<?xml version="1.0" encoding="UTF-8"?>
<svg width="97px" height="27px" viewBox="0 0 97 27" version="1.1" xmlns="http://www.w3.org/2000/svg" xmlns:xlink="http://www.w3.org/1999/xlink">
    <title>logo/MADE</title>
    <g id="Navigation" stroke="none" stroke-width="1" fill="none" fill-rule="evenodd">
        <g id="nav/L0---[default]" transform="translate(-48.000000, -48.000000)">
            <g id="logo/MADE." transform="translate(48.000000, 48.000000)">
                <path d="M5.12325,26.3011765 L5.12325,7.1415 L11.4768145,23.8354412 L16.893871,23.8354412 L23.2474355,6.99538235 L23.2474355,26.3011765 L28.3706855,26.3011765 L28.3706855,0.730588235 L20.8602581,0.730588235 L14.1945242,17.9907353 L7.51042742,0.730588235 L1.70186446e-14,0.730588235 L1.70186446e-14,26.3011765 L5.12325,26.3011765 Z M39.1129838,26.7577941 C40.3371773,26.7577941 41.3838628,26.5355735 42.2530402,26.0911324 C43.1222177,25.6466912 43.8506128,25.0652647 44.4382257,24.3468529 L44.4382257,24.3468529 L44.4382257,26.3011765 L49.120766,26.3011765 L49.120766,8.60267647 L44.4382257,8.60267647 L44.4382257,10.557 C43.8506128,9.82641176 43.1222177,9.23889706 42.2530402,8.79445588 C41.3838628,8.35001471 40.3371773,8.12779412 39.1129838,8.12779412 C37.8887902,8.12779412 36.7502902,8.36523529 35.6974838,8.84011765 C34.6446773,9.315 33.7326531,9.96644118 32.9614112,10.7944412 C32.1901693,11.6224412 31.587254,12.6056912 31.1526652,13.7441912 C30.7180765,14.8826912 30.5007822,16.1155588 30.5007822,17.4427941 C30.5007822,18.7700294 30.7180765,20.0028971 31.1526652,21.1413971 C31.587254,22.2798971 32.1901693,23.2631471 32.9614112,24.0911471 C33.7326531,24.9191471 34.6446773,25.5705882 35.6974838,26.0454706 C36.7502902,26.5203529 37.8887902,26.7577941 39.1129838,26.7577941 Z M39.9944031,22.3194706 C39.2966128,22.3194706 38.6630927,22.1916176 38.0938427,21.9359118 C37.5245927,21.6802059 37.0410362,21.3331765 36.6431733,20.8948235 C36.2453104,20.4564706 35.939262,19.9420147 35.7250281,19.3514559 C35.5107943,18.7608971 35.4036773,18.1246765 35.4036773,17.4427941 C35.4036773,16.7730882 35.5107943,16.1399118 35.7250281,15.5432647 C35.939262,14.9466176 36.2453104,14.4291176 36.6431733,13.9907647 C37.0410362,13.5524118 37.5245927,13.2053824 38.0938427,12.9496765 C38.6630927,12.6939706 39.2966128,12.5661176 39.9944031,12.5661176 C40.6799515,12.5661176 41.3042902,12.6878824 41.8674193,12.9314118 C42.4305483,13.1749412 42.9141048,13.5158824 43.3180886,13.9542353 C43.7220725,14.3925882 44.0342419,14.9100882 44.2545967,15.5067353 C44.4749515,16.1033824 44.585129,16.7487353 44.585129,17.4427941 C44.585129,18.1368529 44.4749515,18.7822059 44.2545967,19.3788529 C44.0342419,19.9755 43.7220725,20.493 43.3180886,20.9313529 C42.9141048,21.3697059 42.4305483,21.7106471 41.8674193,21.9541765 C41.3042902,22.1977059 40.6799515,22.3194706 39.9944031,22.3194706 Z M59.4590805,26.7577941 C60.683274,26.7577941 61.7299595,26.5355735 62.5991369,26.0911324 C63.4683144,25.6466912 64.1967095,25.0652647 64.7843224,24.3468529 L64.7843224,24.3468529 L64.7843224,26.3011765 L69.4668627,26.3011765 L69.4668627,-2.82127263e-15 L64.6925079,-2.82127263e-15 L64.6925079,10.4474118 C64.104895,9.75335294 63.3856813,9.19323529 62.5348668,8.76705882 C61.6840523,8.34088235 60.6587902,8.12779412 59.4590805,8.12779412 C58.2348869,8.12779412 57.0963869,8.36523529 56.0435805,8.84011765 C54.990774,9.315 54.0787498,9.96644118 53.3075079,10.7944412 C52.536266,11.6224412 51.9333506,12.6056912 51.4987619,13.7441912 C51.0641732,14.8826912 50.8468789,16.1155588 50.8468789,17.4427941 C50.8468789,18.7700294 51.0641732,20.0028971 51.4987619,21.1413971 C51.9333506,22.2798971 52.536266,23.2631471 53.3075079,24.0911471 C54.0787498,24.9191471 54.990774,25.5705882 56.0435805,26.0454706 C57.0963869,26.5203529 58.2348869,26.7577941 59.4590805,26.7577941 Z M60.3404998,22.3194706 C59.6427095,22.3194706 59.0091894,22.1916176 58.4399394,21.9359118 C57.8706894,21.6802059 57.3871329,21.3331765 56.98927,20.8948235 C56.5914071,20.4564706 56.2853587,19.9420147 56.0711248,19.3514559 C55.856891,18.7608971 55.749774,18.1246765 55.749774,17.4427941 C55.749774,16.7730882 55.856891,16.1399118 56.0711248,15.5432647 C56.2853587,14.9466176 56.5914071,14.4291176 56.98927,13.9907647 C57.3871329,13.5524118 57.8706894,13.2053824 58.4399394,12.9496765 C59.0091894,12.6939706 59.6427095,12.5661176 60.3404998,12.5661176 C61.0260482,12.5661176 61.6503869,12.6878824 62.213516,12.9314118 C62.776645,13.1749412 63.2602014,13.5158824 63.6641853,13.9542353 C64.0681692,14.3925882 64.3803385,14.9100882 64.6006934,15.5067353 C64.8210482,16.1033824 64.9312256,16.7487353 64.9312256,17.4427941 C64.9312256,18.1368529 64.8210482,18.7822059 64.6006934,19.3788529 C64.3803385,19.9755 64.0681692,20.493 63.6641853,20.9313529 C63.2602014,21.3697059 62.776645,21.7106471 62.213516,21.9541765 C61.6503869,22.1977059 61.0260482,22.3194706 60.3404998,22.3194706 Z M80.4295159,26.7577941 C81.9352739,26.7577941 83.3216731,26.5416618 84.5887135,26.1093971 C85.8557538,25.6771324 86.9973143,24.9982941 88.0133949,24.0728824 L88.0133949,24.0728824 L85.2038707,21.0044118 C84.5550481,21.5523529 83.8358344,21.9724412 83.0462296,22.2646765 C82.2566248,22.5569118 81.4762014,22.7030294 80.7049594,22.7030294 C80.1418304,22.7030294 79.6093062,22.6330147 79.1073869,22.4929853 C78.6054675,22.3529559 78.1555764,22.1307353 77.7577135,21.8263235 C77.3598506,21.5219118 77.0201369,21.1413971 76.7385723,20.6847794 C76.4570078,20.2281618 76.2550159,19.6771765 76.1325965,19.0318235 L76.1325965,19.0318235 L88.747911,19.0318235 C88.7723949,18.8248235 88.7938183,18.5752059 88.8121812,18.2829706 C88.8305441,17.9907353 88.8397256,17.7045882 88.8397256,17.4245294 C88.8397256,16.0485882 88.6285522,14.7883235 88.2062054,13.6437353 C87.7838586,12.4991471 87.1931852,11.5189412 86.4341852,10.7031176 C85.6751852,9.88729412 84.7662215,9.25411765 83.7072941,8.80358824 C82.6483667,8.35305882 81.4762014,8.12779412 80.1907981,8.12779412 C78.8564272,8.12779412 77.6383546,8.35610294 76.5365804,8.81272059 C75.4348062,9.26933824 74.4891167,9.90860294 73.6995119,10.7305147 C72.909907,11.5524265 72.2947498,12.5387206 71.8540401,13.6893971 C71.4133304,14.8400735 71.1929756,16.1094706 71.1929756,17.4975882 C71.1929756,18.8857059 71.4194514,20.1490147 71.872403,21.2875147 C72.3253546,22.4260147 72.9588748,23.4001324 73.7729635,24.2098676 C74.5870522,25.0196029 75.560286,25.6466912 76.6926651,26.0911324 C77.8250441,26.5355735 79.070661,26.7577941 80.4295159,26.7577941 Z M84.0286449,15.7807059 L76.1509594,15.7807059 C76.3590723,14.6726471 76.793661,13.8050735 77.4547256,13.1779853 C78.1157901,12.5508971 79.0155723,12.2373529 80.1540723,12.2373529 C81.1946369,12.2373529 82.0454514,12.5417647 82.7065159,13.1505882 C83.3675804,13.7594118 83.8082901,14.6361176 84.0286449,15.7807059 L84.0286449,15.7807059 Z" id="Made" fill="#FFFFFF" fill-rule="nonzero"></path>
                <ellipse id="Oval-Copy-18" fill="#FF671B" cx="93.0120968" cy="23.4264706" rx="3.59274194" ry="3.57352941"></ellipse>
            </g>
        </g>
    </g>
</svg>