<?xml version="1.0" encoding="UTF-8"?>
<svg width="12px" height="4px" viewBox="0 0 12 4" version="1.1" xmlns="http://www.w3.org/2000/svg" xmlns:xlink="http://www.w3.org/1999/xlink">
    <title>E5880B1D-2F23-45D6-B619-99C4AD10C28E</title>
    <g id="preview---components" stroke="none" stroke-width="1" fill="none" fill-rule="evenodd">
        <g id="4---core---checkbox" transform="translate(-332.000000, -582.000000)" fill="#CF4500">
            <g id="section" transform="translate(100.000000, 403.000000)">
                <g id="01-CORE/05-checkbox/01-group/01-checkbox-only/03-enabled---partly-selected" transform="translate(230.000000, 173.000000)">
                    <g id="icon" transform="translate(2.500000, 2.500000)">
                        <path d="M5.5,8.8 C6.10751322,8.8 6.6,9.29248678 6.6,9.9 C6.6,10.5075132 6.10751322,11 5.5,11 C4.89248678,11 4.4,10.5075132 4.4,9.9 C4.4,9.29248678 4.89248678,8.8 5.5,8.8 Z M5.5,4.4 C6.10751322,4.4 6.6,4.89248678 6.6,5.5 C6.6,6.10751322 6.10751322,6.6 5.5,6.6 C4.89248678,6.6 4.4,6.10751322 4.4,5.5 C4.4,4.89248678 4.89248678,4.4 5.5,4.4 Z M5.5,0 C6.10751322,0 6.6,0.492486775 6.6,1.1 C6.6,1.70751322 6.10751322,2.2 5.5,2.2 C4.89248678,2.2 4.4,1.70751322 4.4,1.1 C4.4,0.492486775 4.89248678,0 5.5,0 Z" transform="translate(5.500000, 5.500000) rotate(-270.000000) translate(-5.500000, -5.500000) "></path>
                    </g>
                </g>
            </g>
        </g>
    </g>
</svg>