<svg width="0" height="0" class="hidden">
  <symbol xmlns="http://www.w3.org/2000/svg" viewBox="0 0 24 24" id="pilot">
    <title>Icons / Mastercard / People &amp;amp; Places / pilot</title>
    <path d="M22.357 9.29a1 1 0 00-.541-1.463h.002l-6.988-2.33a9.802 9.802 0 00-6.16 0l-6.986 2.33a1 1 0 00-.541 1.463l2.607 4.347v2.296l.173.15a11.995 11.995 0 007.827 2.915c2.867 0 5.646-1.036 7.827-2.916l.173-.149v-2.296l2.607-4.348zm-3.607 6.182a10.994 10.994 0 01-7 2.525c-2.552 0-5.028-.895-7-2.525v-1.474h14v1.474zm.217-2.474H4.533L2 8.774l6.987-2.33a8.801 8.801 0 015.527 0l6.987 2.33-2.534 4.223zm-14.217-3h4v1h-4v-1zm14 1h-4v-1h4v1zm-7-3c-1.103 0-2 .897-2 2s.897 2 2 2 2-.897 2-2-.897-2-2-2zm0 3a1.001 1.001 0 010-2 1.001 1.001 0 010 2z" fill="currentColor" fill-rule="evenodd"></path>
  </symbol>
  <symbol xmlns="http://www.w3.org/2000/svg" viewBox="0 0 24 24" id="home">
    <title>Icons / Mastercard / People &amp;amp; Places / home</title>
    <path d="M3 11v11h6v-8h6v8h6V11h1v12h-8v-8h-4v8H2V11h1zm9-9.784l7 5.086V3h1v4.028l3.25 2.362-.587.808L12 2.452 1.337 10.198.75 9.39 12 1.216z" fill="currentColor" fill-rule="evenodd"></path>
  </symbol>
  <symbol xmlns="http://www.w3.org/2000/svg" viewBox="0 0 24 24" id="stadium">
    <title>Icons / Mastercard / People &amp;amp; Places / stadium</title>
    <path d="M16.707 2L13.5 5.207l-.707-.707 1.5-1.5H12v4.005c2.115.037 4.25.315 6 .818V3h5.707L20.5 6.207l-.707-.707 1.5-1.5H19l.001 4.152c1.734.65 2.906 1.566 2.983 2.729.003.009.002.018.004.027.002.031.012.06.012.092 0 .021-.007.04-.008.061-.001.009.002.016.001.025l-.017.092a1.857 1.857 0 01-.061.35l-1.505 8.654-.208.115C18.285 21.363 15.032 22 11.5 22s-6.785-.637-8.703-1.703l-.208-.115-1.505-8.654a1.872 1.872 0 01-.061-.35l-.016-.092c-.001-.009.002-.016.001-.025C1.007 11.04 1 11.021 1 11c0-.032.01-.061.012-.093l.004-.027c.06-.922.81-1.69 1.983-2.291L3 3h5.707L5.5 6.207 4.793 5.5l1.5-1.5H4v4.151c1.896-.71 4.463-1.101 7-1.147V2h5.707zM14 18H9v2.888c.803.074 1.642.112 2.5.112.859 0 1.698-.038 2.501-.112L14 18zm6.637-4.956C18.711 14.324 15.03 15 11.5 15c-3.53 0-7.211-.676-9.137-1.956l1.129 6.49c1.122.573 2.696 1.001 4.508 1.243V17h7l.001 3.776c1.811-.24 3.385-.669 4.507-1.242zM11.5 8c-5.57 0-9.456 1.565-9.496 2.977l.055.318C2.55 12.63 6.288 14 11.5 14c5.212 0 8.95-1.37 9.441-2.704l.055-.318C20.956 9.565 17.07 8 11.5 8z" fill="currentColor" fill-rule="evenodd"></path>
  </symbol>
  <symbol xmlns="http://www.w3.org/2000/svg" viewBox="0 0 24 24" id="restaurant-2">
    <title>Icons / Mastercard / People &amp;amp; Places / restaurant 2</title>
    <path d="M4 1.217v5.5c0 .827.673 1.5 1.5 1.5S7 7.544 7 6.717v-5.5h1v5.5c0 1.208-.86 2.217-2 2.449v14.051H5V9.166a2.502 2.502 0 01-2-2.449v-5.5h1zM12.5 1C14.345 1 15 3.213 15 5.108c0 1.71-.542 3.661-2 4.031v14.078h-1V9.139c-1.458-.37-2-2.321-2-4.031C10 3.213 10.655 1 12.5 1zm5.228.233l.104.003C20.17 1.505 21 4.491 21 6.967v8.25h-3v8h-1V1.989a.76.76 0 01.832-.753zM18 2.286v11.931h2v-7.25c0-1.572-.43-4.222-2-4.681zm-5.5-.285c-1.187 0-1.5 2.033-1.5 3.108 0 1.075.313 3.108 1.5 3.108S14 6.185 14 5.109s-.313-3.108-1.5-3.108zM6 1.217v6H5v-6h1z" fill="currentColor" fill-rule="evenodd"></path>
  </symbol>
  <symbol xmlns="http://www.w3.org/2000/svg" viewBox="0 0 24 24" id="music-venue">
    <title>Icons / Mastercard / People &amp;amp; Places / music venue</title>
    <path d="M12 1a8 8 0 018 8c0 .874-.145 1.713-.404 2.499a7.97 7.97 0 01-.92 1.903c-.042.064-.087.126-.131.189L12 23l-6.545-9.408-.131-.189a7.933 7.933 0 01-.92-1.903A7.98 7.98 0 014 9a8 8 0 018-8zm0 1C8.14 2 5 5.14 5 9a6.99 6.99 0 00.946 3.5c.075.129.149.258.232.381l.056.08 2.232 3.208L12 21.249l3.533-5.08 2.232-3.208.056-.08c.083-.123.157-.252.232-.381.185-.318.344-.652.477-1 .299-.778.47-1.618.47-2.5 0-3.86-3.14-7-7-7zm4 3v6a2 2 0 11-2-2c.366 0 .705.106 1 .278V6.143l-4 .714V12a2 2 0 11-2-2c.366 0 .705.106 1 .277V6l6-1zm-7 6c-.551 0-1 .449-1 1 0 .551.449 1 1 1 .551 0 1-.449 1-1 0-.551-.449-1-1-1zm5-1c-.551 0-1 .449-1 1 0 .551.449 1 1 1 .551 0 1-.449 1-1 0-.551-.449-1-1-1z" fill="currentColor" fill-rule="evenodd"></path>
  </symbol>
  <symbol xmlns="http://www.w3.org/2000/svg" viewBox="0 0 24 24" id="ngo-2">
    <title>Icons / Mastercard / People &amp;amp; Places / ngo 2</title>
    <path d="M2.042 6c1.083 0 1.978.847 2.038 1.929l.309 5.585a2.247 2.247 0 011.465.65L10 18.292V23H9v-4.292l-3.852-3.836a1.268 1.268 0 10-1.794 1.792l1.854 1.832-.703.711-1.856-1.834a2.271 2.271 0 01.748-3.707l-.315-5.683A1.043 1.043 0 001 8.041v11.25l3.826 3.827-.707.707-3.973-3.973A.504.504 0 010 19.498V8.041C0 6.916.916 6 2.042 6zm19.916 0C23.084 6 24 6.916 24 8.041v11.457c0 .133-.053.26-.147.353l-3.973 3.973-.707-.707L23 19.291V8.041a1.04 1.04 0 00-2.08-.057l-.315 5.683a2.27 2.27 0 01.75 3.704l-1.858 1.836-.703-.711 1.855-1.834a1.27 1.27 0 00-.002-1.791 1.27 1.27 0 00-1.793 0L15 18.708V23h-1v-4.708l4.147-4.129a2.248 2.248 0 011.464-.649l.309-5.585A2.042 2.042 0 0121.958 6zM12 0c3.86 0 7 3.141 7 7s-3.14 7-7 7-7-3.141-7-7 3.14-7 7-7zm2.147 10H9.853c.471 1.852 1.34 3 2.147 3 .807 0 1.676-1.148 2.147-3zM8.83 10H6.812a6.025 6.025 0 003.076 2.609C9.435 11.932 9.071 11.04 8.83 10zm8.359 0H15.17c-.242 1.04-.605 1.932-1.058 2.609A6.031 6.031 0 0017.189 10zm.461-5h-2.292a14.05 14.05 0 010 4h2.292c.222-.627.35-1.298.35-2s-.128-1.373-.35-2zm-3.302 0H9.652A12.995 12.995 0 009.5 7c0 .715.056 1.384.152 2h4.696c.096-.616.152-1.285.152-2 0-.715-.056-1.384-.152-2zM8.642 5H6.35A5.976 5.976 0 006 7c0 .702.128 1.373.35 2h2.292a14.05 14.05 0 010-4zM12 1c-.807 0-1.676 1.148-2.147 3h4.294c-.471-1.852-1.34-3-2.147-3zm2.112.391c.453.677.817 1.569 1.058 2.609h2.018a6.025 6.025 0 00-3.076-2.609zm-4.224 0A6.025 6.025 0 006.812 4H8.83c.242-1.04.606-1.932 1.058-2.609z" fill="currentColor" fill-rule="evenodd"></path>
  </symbol>
  <symbol xmlns="http://www.w3.org/2000/svg" viewBox="0 0 24 24" id="globe-latin-america">
    <title>Icons / Mastercard / People &amp;amp; Places / globe latin america</title>
    <path d="M12 1c6.065 0 11 4.935 11 11s-4.935 11-11 11S1 18.065 1 12 5.935 1 12 1zm0 1C6.486 2 2 6.486 2 12s4.486 10 10 10 10-4.486 10-10S17.514 2 12 2zm-1.293 2l.5.5h1.5l3 3h1L18 8.793v3.414L16.207 14h-1.5L13 15.707v1l-1 1v1.086l1 1V21h-2.207L9 19.207v-7l-.707-.707h-1L5.5 9.707V8.293l1.5-1.5v-.998L8.769 4h1.938zm-.414 1H9.188L8 6.205v1.002l-1.5 1.5v.586L7.707 10.5h1L10 11.793v7L11.207 20h.586L11 19.207v-1.914l1-1v-1L14.293 13h1.5L17 11.793V9.207l-.707-.707h-1l-3-3h-1.5l-.5-.5zM14 3v1h-2.5V3H14z" fill="currentColor" fill-rule="evenodd"></path>
  </symbol>
  <symbol xmlns="http://www.w3.org/2000/svg" viewBox="0 0 24 24" id="factory">
    <title>Icons / Mastercard / People &amp;amp; Places / factory</title>
    <path d="M19 5v9.33c0 .364-.155.658-.427.805-.271.147-.602.117-.908-.08l-7.163-4.635-.002 3.933c0 .366-.156.659-.427.806-.271.147-.602.116-.908-.082l-7.163-4.654L2 24H1V10.17c0-.365.156-.658.427-.806.271-.146.602-.116.908.082l7.163 4.655.002-3.931c0-.364.155-.658.427-.806.271-.147.602-.117.908.08l7.163 4.635L18 5h1zm4 0v19h-1V5h1zm-4 13v4h-4v-4h4zm-5 0v4h-4v-4h4zm-5 0v4H5v-4h4zm9 1h-2v2h2v-2zm-5 0h-2v2h2v-2zm-5 0H6v2h2v-2zm6.543-15.856a3.655 3.655 0 016.009.953l-.909.416a2.656 2.656 0 00-4.367-.69 3.668 3.668 0 01-5.16.216 2.657 2.657 0 00-3.748.162l-.736-.676a3.657 3.657 0 015.16-.223 2.658 2.658 0 003.747-.162z" fill="currentColor" fill-rule="evenodd"></path>
  </symbol>
  <symbol xmlns="http://www.w3.org/2000/svg" viewBox="0 0 24 24" id="builder">
    <title>Icons / Mastercard / People &amp;amp; Places / builder</title>
    <path d="M19.861 6.03c1.462-.621 2.199-.209 2.509.092.31.301.744 1.026.166 2.504l-3.199 8.197c-.429 1.1-1.181 1.813-2.118 2.01-.17.035-.341.053-.512.053-.774 0-1.551-.359-2.234-1.042l-1.556-1.556-1.726 1.726c.271.548.207 1.209-.229 1.644l-2.94 2.94a1.381 1.381 0 01-.981.399c-.387 0-.781-.153-1.084-.456a1.543 1.543 0 01-.457-1.082 1.375 1.375 0 01.4-.982l2.94-2.94a1.35 1.35 0 011.042-.399c.213.008.415.072.605.166l1.723-1.723-1.22-1.22c-.834-.833-1.191-1.819-1.005-2.774.186-.956.886-1.736 1.97-2.197zM9.832 18.138h-.009a.382.382 0 00-.275.108l-2.941 2.94a.382.382 0 00-.107.274c0 .135.06.272.163.375.195.196.488.22.652.057l2.94-2.94c.164-.164.139-.456-.056-.65a.538.538 0 00-.358-.163l-.018-.001zm11.399-11.43c-.24 0-.564.067-.979.243l-7.906 3.36c-.769.327-1.259.849-1.379 1.468-.12.619.139 1.286.73 1.877l3.483 3.482c.587.587 1.235.848 1.834.717.596-.124 1.09-.62 1.392-1.394l3.199-8.197c.312-.797.24-1.258.068-1.423-.081-.079-.227-.133-.442-.133zM7 1v3h9v1h-4v3.285l-.435.185-.255.116a4.97 4.97 0 00-.698.414H8v3h.946c-.007.335.035.67.12 1H1v-1h6V9H1V8h2V5H1V4h5V1h1zm4 4H4v3h7V5z" fill="currentColor" fill-rule="evenodd"></path>
  </symbol>
  <symbol xmlns="http://www.w3.org/2000/svg" viewBox="0 0 24 24" id="restaurant-1">
    <title>Icons / Mastercard / People &amp;amp; Places / restaurant 1</title>
    <path d="M5 1.498v6c0 1.38 1.122 2.5 2.5 2.5s2.5-1.12 2.5-2.5v-6h1v6c0 1.76-1.308 3.204-3 3.45v12.55H7v-12.55c-1.692-.246-3-1.692-3-3.45v-6h1zm10.79-.496h.122C18.735 1.246 20 4.056 20 6.734v8.764h-4v8h-1V1.756c0-.2.086-.39.243-.534a.9.9 0 01.669-.22zM16 2.018v12.48h3V6.735c0-2.006-.79-4.408-3-4.717zm-8-.52v7H7v-7h1z" fill="currentColor" fill-rule="evenodd"></path>
  </symbol>
  <symbol xmlns="http://www.w3.org/2000/svg" viewBox="0 0 24 24" id="ngo-1">
    <title>Icons / Mastercard / People &amp;amp; Places / ngo 1</title>
    <path d="M2.042 6c1.083 0 1.979.847 2.038 1.929l.309 5.585a2.247 2.247 0 011.465.65L10 18.292V23H9v-4.292l-3.852-3.836a1.268 1.268 0 10-1.794 1.792l1.854 1.832-.703.711-1.856-1.834a2.271 2.271 0 01.748-3.707l-.315-5.683A1.042 1.042 0 001 8.041v11.25l3.826 3.827-.707.707-3.973-3.973A.504.504 0 010 19.498V8.041C0 6.916.916 6 2.042 6zm19.916 0C23.084 6 24 6.916 24 8.041v11.457c0 .133-.053.26-.147.353l-3.973 3.973-.707-.707L23 19.291V8.041C23 7.467 22.533 7 21.958 7a1.04 1.04 0 00-1.038.984l-.315 5.683a2.27 2.27 0 01.75 3.704l-1.858 1.836-.703-.711 1.855-1.834a1.27 1.27 0 00-.002-1.791 1.27 1.27 0 00-1.793 0L15 18.708V23h-1v-4.708l4.147-4.129a2.248 2.248 0 011.464-.649l.309-5.585A2.041 2.041 0 0121.958 6zm-6.971-5c1.131 0 2.194.44 2.993 1.24.8.8 1.24 1.862 1.24 2.993 0 1.131-.44 2.194-1.24 2.993L12 14.206l-5.98-5.98c-.8-.8-1.24-1.862-1.24-2.993 0-1.131.44-2.193 1.24-2.993A4.202 4.202 0 019.013 1c1.048 0 2.261.521 2.987 1.065C12.726 1.521 13.939 1 14.987 1zm0 1c-.834 0-1.913.475-2.475.935a.809.809 0 01-1.022.001C10.926 2.475 9.846 2 9.013 2c-.864 0-1.676.336-2.286.947a3.21 3.21 0 00-.947 2.286c0 .864.336 1.675.947 2.287L12 12.793l5.273-5.274a3.212 3.212 0 00.947-2.286c0-.863-.336-1.675-.947-2.286A3.208 3.208 0 0014.987 2z" fill="currentColor" fill-rule="evenodd"></path>
  </symbol>
  <symbol xmlns="http://www.w3.org/2000/svg" viewBox="0 0 24 24" id="citizen">
    <title>Icons / Mastercard / People &amp;amp; Places / citizen</title>
    <path d="M9.5 2a9.45 9.45 0 018.512 5.277c.117.234.21.483.306.723h-4.627c.197 1.08.309 2.256.309 3.5 0 5.327-1.977 9.5-4.5 9.5C4.262 21 0 16.738 0 11.5S4.262 2 9.5 2zm11.655 13.105l2.534 4.055-.848.53L21 16.743V21h-5v-4.257l-1.841 2.946-.848-.53 2.534-4.055a.621.621 0 01.702-.27c.271.078.453.32.453.602V20h3v-4.564c0-.281.182-.523.453-.601a.618.618 0 01.702.27zM12.453 16H6.546c.664 2.493 1.833 4 2.954 4 1.121 0 2.29-1.507 2.953-4zm-6.932 0H2.302a8.52 8.52 0 004.879 3.67c-.703-.877-1.278-2.14-1.66-3.67zm-.212-8H1.763A8.433 8.433 0 001 11.5c0 1.248.277 2.431.763 3.5h3.546A19.555 19.555 0 015 11.5c0-1.244.112-2.42.309-3.5zm7.376 0h-6.37A18.727 18.727 0 006 11.5c0 1.283.116 2.458.315 3.5h6.37c.199-1.042.315-2.217.315-3.5s-.116-2.458-.315-3.5zM18.5 9c1.378 0 2.5 1.121 2.5 2.5S19.878 14 18.5 14a2.503 2.503 0 01-2.5-2.5c0-1.379 1.122-2.5 2.5-2.5zm0 1c-.827 0-1.5.673-1.5 1.5s.673 1.5 1.5 1.5 1.5-.673 1.5-1.5-.673-1.5-1.5-1.5zm-9-7C8.379 3 7.21 4.507 6.546 7h5.908C11.79 4.507 10.621 3 9.5 3zm-2.319.33A8.52 8.52 0 002.302 7h3.219c.382-1.53.958-2.793 1.66-3.67zm4.629-.012c.706.877 1.285 2.145 1.669 3.682h3.214a8.423 8.423 0 00-4.883-3.682z" fill="currentColor" fill-rule="evenodd"></path>
  </symbol>
  <symbol xmlns="http://www.w3.org/2000/svg" viewBox="0 0 24 24" id="carpenter">
    <title>Icons / Mastercard / People &amp;amp; Places / carpenter</title>
    <path d="M5.241 1.039l17.707 17.707-4.207 4.207L1.034 5.246l4.207-4.207zm2.168 11.996l.707.707-4.2 4.2-.781 2.938 2.636-.55 4.466-4.467.707.707-4.677 4.678-4.515.942 1.267-4.765 4.39-4.39zM5.241 2.453L2.448 5.246l16.293 16.292 2.793-2.793-1.429-1.429-1.397 1.397-.707-.707 1.397-1.397-1.414-1.414-1.397 1.397-.707-.707 1.397-1.397-1.415-1.415-1.397 1.396-.707-.707 1.397-1.396-1.414-1.414-1.396 1.396-.707-.707 1.396-1.396-1.414-1.414-1.397 1.397-.707-.707 1.397-1.397L9.499 6.71 8.102 8.107 7.395 7.4l1.396-1.397-1.414-1.414L5.98 5.986l-.707-.707L6.67 3.882 5.241 2.453zm13.82-1.069l3.536 3.536-6.031 6.03-.707-.707 2.849-2.849-2.122-2.122-2.849 2.849-.707-.707 6.031-6.03zm0 1.413l-1.768 1.769 2.121 2.121 1.768-1.768-2.121-2.122z" fill="currentColor" fill-rule="evenodd"></path>
  </symbol>
  <symbol xmlns="http://www.w3.org/2000/svg" viewBox="0 0 24 24" id="globe-asiapac">
    <title>Icons / Mastercard / People &amp;amp; Places / globe asiapac</title>
    <path d="M12 1c6.075 0 11 4.925 11 11s-4.925 11-11 11S1 18.075 1 12 5.925 1 12 1zm6.001 3.005L18 7.707 16.707 9h.793v3.207l-1.5 1.5V14h2v3h-2.707L12 13.707v-1.5L11.793 12h-.586l-2 2H8v-3.293L7.293 10H6V8H4.5v.293L5.707 9.5 3 12.207l-.971-.97a10.093 10.093 0 00-.025 1.06l.496.496.293-.293H4.5v3.207l-1.207 1.208C5.013 19.948 8.271 22 12 22c.685 0 1.354-.07 2-.201v-1.006l1-1V18h2.293l.5-.5h2.555A9.991 9.991 0 0018 4.006zm1.591 14.496l-1.385-.001-.5.5H16v1.207l-1 1v.333a10.029 10.029 0 004.592-3.039zM12 2C7.172 2 3.133 5.439 2.202 9.995l.798.798L4.293 9.5 3.5 8.707V7H7v2h.707L9 10.293v2.5L10.793 11h1.414l.793.793v1.5L15.707 16H17v-1h-2v-1.707l1.5-1.5V10h-1V8.793l1.5-1.5.001-3.95A9.939 9.939 0 0012 2zM3.5 13.5h-.293l-.707.707-.322-.321c.14.725.357 1.423.644 2.085l.678-.678V13.5z" fill="currentColor" fill-rule="evenodd"></path>
  </symbol>
  <symbol xmlns="http://www.w3.org/2000/svg" viewBox="0 0 24 24" id="financial-institution-bank">
    <title>Icons / Mastercard / People &amp;amp; Places / financial institution bank</title>
    <path d="M22.68 8.612L12 1.555 1.32 8.612c-.9.594-.871 1.218-.774 1.537.097.318.42.851 1.499.851H3v9.5H1V24h1v-2.5h20V24h1v-3.5h-2V11h.955c1.079 0 1.402-.533 1.499-.851.097-.319.126-.943-.774-1.537zM4 20.5V11h2v9.5H4zm3 0V11h3v9.5H7zm4 0V11h2v9.5h-2zm3 0V11h3v9.5h-3zm6 0h-2V11h2v9.5zM21.955 10H2.045c-.366 0-.524-.085-.542-.142-.017-.056.067-.212.369-.412L12 2.754l10.129 6.692c.301.199.385.355.368.412-.018.057-.176.142-.542.142z" fill="currentColor" fill-rule="evenodd"></path>
  </symbol>
  <symbol xmlns="http://www.w3.org/2000/svg" viewBox="0 0 24 24" id="hotel">
    <title>Icons / Mastercard / People &amp;amp; Places / hotel</title>
    <path d="M9.5 12c.827 0 1.5.673 1.5 1.5V15h2v-1.5c0-.827.673-1.5 1.5-1.5h5c.827 0 1.5.673 1.5 1.5V15h.226c.978 0 1.774.855 1.774 1.906V21h-2v2h-1v-2H4v2H3v-2H1v-4.094C1 15.855 1.796 15 2.774 15H3v-1.5c0-.827.673-1.5 1.5-1.5zm11.726 4H2.774c-.42 0-.774.415-.774.906V20h20v-3.094c0-.491-.354-.906-.774-.906zM19.5 13h-5a.5.5 0 00-.5.5V15h6v-1.5a.5.5 0 00-.5-.5zm-10 0h-5a.5.5 0 00-.5.5V15h6v-1.5a.5.5 0 00-.5-.5zM12 2.674l11.183 6.457-.5.865L12 3.828 1.317 9.996l-.5-.865L12 2.674z" fill="currentColor" fill-rule="evenodd"></path>
  </symbol>
  <symbol xmlns="http://www.w3.org/2000/svg" viewBox="0 0 24 24" id="museum">
    <title>Icons / Mastercard / People &amp;amp; Places / museum</title>
    <path d="M20.5 17a2.5 2.5 0 11-1.768 4.268l.708-.708c.271.272.646.44 1.06.44.827 0 1.5-.673 1.5-1.5s-.673-1.5-1.5-1.5H17v5h-1v-5h-3v5h-1v-5H9v5H8v-5H4.5c-.827 0-1.5.673-1.5 1.5S3.673 21 4.5 21c.414 0 .789-.168 1.06-.44l.708.708A2.5 2.5 0 114.5 17zM15 1c-.471 1.177-.601 2.013-.538 2.669A2.718 2.718 0 0116.25 3 2.75 2.75 0 0119 5.75a2.734 2.734 0 01-2.039 2.641c.022.191.039.39.039.609 0 4-3 7-3 7h-3s-3-3-3-7c0-.219.017-.418.039-.609A2.734 2.734 0 016 5.75 2.75 2.75 0 018.75 3c.685 0 1.308.253 1.788.669.063-.656-.067-1.493-.538-2.669zm-1.378 1h-2.245c.544 2.232-.233 3.344-1.229 4.429C9.507 7.128 9 7.68 9 9c0 2.873 1.76 5.205 2.442 6h2.114c.68-.799 2.444-3.145 2.444-6 0-1.32-.507-1.872-1.149-2.571-.995-1.085-1.773-2.197-1.229-4.429zM8.75 4C7.785 4 7 4.785 7 5.75c0 .799.541 1.467 1.274 1.676.46-1.202 1.39-1.766 1.913-2.658A1.737 1.737 0 008.75 4zm7.5 0c-.599 0-1.123.307-1.436.769.522.891 1.452 1.455 1.912 2.657A1.747 1.747 0 0018 5.75C18 4.785 17.215 4 16.25 4z" fill="currentColor" fill-rule="evenodd"></path>
  </symbol>
  <symbol xmlns="http://www.w3.org/2000/svg" viewBox="0 0 24 24" id="plumber">
    <title>Icons / Mastercard / People &amp;amp; Places / plumber</title>
    <path d="M23 2v20h-1V11h-2.76c.204-.307.358-.647.484-1H22V7h-2.277a4.49 4.49 0 00-.485-1H22V2h1zM3.084 15.457c.186-.277.646-.277.832 0l1.638 2.458c.543.813.593 1.864.133 2.742-.433.826-1.234 1.328-2.14 1.343-1-.015-1.8-.517-2.235-1.343a2.69 2.69 0 01.133-2.742zm.416 1.179l-1.223 1.833a1.689 1.689 0 00-.079 1.723c.265.505.728.799 1.272.808.604-.009 1.067-.303 1.332-.808a1.69 1.69 0 00-.079-1.722L3.5 16.636zM11.761 6a4.534 4.534 0 00-.485 1H5.5C3.57 7 2 8.57 2 10.5V13h3v-1.5c0-.458.13-.818.383-1.07.446-.443 1.136-.44 1.857-.431L7.5 10h3.776c.126.353.28.693.485.999H7.232c-.464-.007-.995-.007-1.144.141-.073.071-.088.235-.088.36V14H1v-3.5C1 8.019 3.02 6 5.5 6zm6.237-4v1h-2v2.05C17.69 5.294 19 6.741 19 8.5c0 1.93-1.57 3.5-3.5 3.5S12 10.43 12 8.5c0-1.758 1.307-3.203 2.998-3.449V3H13V2h4.998zM15.5 6A2.503 2.503 0 0013 8.5c0 1.379 1.122 2.5 2.5 2.5S18 9.879 18 8.5 16.878 6 15.5 6z" fill="currentColor" fill-rule="evenodd"></path>
  </symbol>
  <symbol xmlns="http://www.w3.org/2000/svg" viewBox="0 0 24 24" id="kid-friendly">
    <title>Icons / Mastercard / People &amp;amp; Places / kid friendly</title>
    <path d="M15.9 16.397c.211-.214.478-.271.713-.172a.622.622 0 01.387.577V21h3v-4.154a.624.624 0 011.104-.402l2.6 3.12-.768.64L21 17.881V22h-1v2h-1v-2h-1v2h-1v-2h-1v-4.151l-1.931 2.356-.773-.635zM10.436 5.904a.62.62 0 01.7.236l.062.12.646 1.813a7.843 7.843 0 001.83 2.894l1.533 1.533-.707.707-1.533-1.533A8.861 8.861 0 0111 8.67v1.76L13.163 18H10v6H9v-6H7v6H6v-6H2.837L5 10.429V7.94l-2.827 4.745-.859-.512 3.458-5.805a.662.662 0 011.227.341L6 10.638 4.163 17h7.674L10 10.5v-4c0-.273.175-.513.436-.596zM18.5 12c1.103 0 2 .897 2 2s-.897 2-2 2-2-.897-2-2 .897-2 2-2zm0 1a1.001 1.001 0 000 2 1.001 1.001 0 000-2zM8 0c1.378 0 2.5 1.121 2.5 2.5S9.378 5 8 5a2.503 2.503 0 01-2.5-2.5C5.5 1.121 6.622 0 8 0zm0 1c-.827 0-1.5.673-1.5 1.5S7.173 4 8 4s1.5-.673 1.5-1.5S8.827 1 8 1z" fill="currentColor" fill-rule="evenodd"></path>
  </symbol>
  <symbol xmlns="http://www.w3.org/2000/svg" viewBox="0 0 24 24" id="globe-north-america">
    <title>Icons / Mastercard / People &amp;amp; Places / globe north america</title>
    <path d="M12 1c6.075 0 11 4.925 11 11s-4.925 11-11 11S1 18.075 1 12 5.925 1 12 1zm0 1C6.486 2 2 6.486 2 12s4.486 10 10 10 10-4.486 10-10S17.514 2 12 2zM8.707 4l2 2h3L15 7.293v1.414l-1 1v.586l1.207 1.207H16.5v-.793L15.293 9.5l1.5-1.5h2.414L20.5 9.293v1.414l-1 1v2L17.707 15.5l.293.293V18h-1.707l-1-1h-.586l-.707.707v.586l1.207 1.207-1.5 1.5h-1.414L10.5 19.207v-1.478l-3.5-3v-4.522l-2-2V6.293L7.293 4h1.414zm-.414 1h-.586L6 6.707v1.086l2 2v4.478l3.5 3v1.522L12.707 20h.586l.5-.5-.793-.793v-1.414L14.293 16h1.414l1 1H17v-.793l-.707-.707 2.207-2.207v-2l1-1v-.586L18.793 9h-1.586l-.5.5.793.793V12.5h-2.707L13 10.707V9.293l1-1v-.586L13.293 7h-3l-2-2z" fill="currentColor" fill-rule="evenodd"></path>
  </symbol>
  <symbol xmlns="http://www.w3.org/2000/svg" viewBox="0 0 24 24" id="globe-europe">
    <title>Icons / Mastercard / People &amp;amp; Places / globe europe</title>
    <path d="M12 1c6.075 0 11 4.925 11 11s-4.925 11-11 11S1 18.075 1 12 5.925 1 12 1zm0 1C6.486 2 2 6.486 2 12s4.486 10 10 10a9.972 9.972 0 007.213-3.08L17.5 17.207V16h-1.293l.793.793V19h-3.5v-1.293l-1-1V16h-1.793l-2 2H5v-3.207L6.793 13h1.532l2.175-1.74V11h-.793l-.5.5H7V8h3.819l3-2.5h2.388l1 1h.586l.707-.707.001-1.385a10.01 10.01 0 00-3-1.776L15.5 5H12zm7.501 3.394l-.001.813L18.207 7.5h-1.414l-1-1h-1.612l-3 2.5H8v1.5h.793l.5-.5H11.5v1.74L8.675 14H7.207L6 15.207V17h2.293l2-2H13.5v1.293l1 1V18H16v-.793l-1-1V15h3.5v1.793l1.37 1.37A9.95 9.95 0 0022 12c0-2.53-.944-4.843-2.499-6.606zM10 4v3.5H7V5.293L8.293 4H10zM9 5h-.293L8 5.707V6.5h1V5zm4-2.95V4h1.5V2.316A9.939 9.939 0 0013 2.05z" fill="currentColor" fill-rule="evenodd"></path>
  </symbol>
  <symbol xmlns="http://www.w3.org/2000/svg" viewBox="0 0 24 24" id="globe-australia">
    <title>Icons / Mastercard / People &amp;amp; Places / globe australia</title>
    <path d="M12 1c6.075 0 11 4.925 11 11s-4.925 11-11 11S1 18.075 1 12 5.925 1 12 1zm0 1C6.486 2 2 6.486 2 12s4.486 10 10 10 10-4.486 10-10S17.514 2 12 2zm7.5 12.793l.707.707-2.707 2.707-.707-.707 2.707-2.707zM13.809 6l1.102 2.204L18 11.293v3.414L14.707 18h-1.414l-2-2H8.707l-1 1H6.293L4 14.707v-3.414L7.293 8h1l1-1H11.5v1.293l.707.707h.293V6h1.309zM13.5 7.618V10h-1.707L10.5 8.707V8h-.793l-1 1h-1L5 11.707v2.586L6.707 16h.586l1-1h3.414l2 2h.586L17 14.293v-2.586l-2.947-2.983-.553-1.106z" fill="currentColor" fill-rule="evenodd"></path>
  </symbol>
  <symbol xmlns="http://www.w3.org/2000/svg" viewBox="0 0 24 24" id="gas-station">
    <title>Icons / Mastercard / People &amp;amp; Places / gas station</title>
    <path d="M12.5 1C14.43 1 16 2.57 16 4.5V8h1c1.103 0 2 .897 2 2v6c0 .827.673 1.5 1.5 1.5S22 16.827 22 16V6.207l-4.353-4.354.707-.707L23 5.793V16c0 1.379-1.122 2.5-2.5 2.5A2.503 2.503 0 0118 16v-6c0-.552-.449-1-1-1h-1v13h2v1H1v-1h2V4.5C3 2.57 4.57 1 6.5 1zm0 1h-6A2.503 2.503 0 004 4.5V22h11V4.5C15 3.121 13.878 2 12.5 2zM14 4v6H5V4h9zm-1 1H6v4h7V5z" fill="currentColor" fill-rule="evenodd"></path>
  </symbol>
  <symbol xmlns="http://www.w3.org/2000/svg" viewBox="0 0 24 24" id="electrician">
    <title>Icons / Mastercard / People &amp;amp; Places / electrician</title>
    <path d="M22.5 16c.827 0 1.5.673 1.5 1.5v3c0 .827-.673 1.5-1.5 1.5h-21C.673 22 0 21.327 0 20.5v-3c0-.827.673-1.5 1.5-1.5zm0 1h-21a.5.5 0 00-.5.5v3a.5.5 0 00.5.5h21a.5.5 0 00.5-.5v-3a.5.5 0 00-.5-.5zm-9-14a1.5 1.5 0 011.357.87l.286.085C19.769 5.332 23 9.669 23 14.5v.5h-1v-.5c0-4.342-2.872-8.238-7-9.537V9h-1V4.5a.5.5 0 00-.5-.5h-3a.5.5 0 00-.5.5V9H9V4.963C4.872 6.262 2 10.158 2 14.5v.5H1v-.5C1 9.669 4.231 5.332 8.857 3.955l.286-.085A1.5 1.5 0 0110.5 3zm-1.384 7l-.858 2h1.98l-1.2 3h-1.077l.801-2h-2.02l1.285-3h1.089z" fill="currentColor" fill-rule="evenodd"></path>
  </symbol>
  <symbol xmlns="http://www.w3.org/2000/svg" viewBox="0 0 24 24" id="profile">
    <title>Icons / Mastercard / People &amp;amp; Places / profile</title>
    <path d="M17.39 9.496l5.632 9.218-.854.521L17 10.776V24H7V10.776l-5.168 8.459-.854-.521L6.61 9.497a.744.744 0 01.844-.33.742.742 0 01.546.722V23h8V9.889c0-.34.219-.63.546-.722a.743.743 0 01.844.329zM12 0c2.206 0 4 1.794 4 4s-1.794 4-4 4-4-1.794-4-4 1.794-4 4-4zm0 1c-1.654 0-3 1.346-3 3s1.346 3 3 3 3-1.346 3-3-1.346-3-3-3z" fill="currentColor" fill-rule="evenodd"></path>
  </symbol>
  <symbol xmlns="http://www.w3.org/2000/svg" viewBox="0 0 24 24" id="globe-africa">
    <title>Icons / Mastercard / People &amp;amp; Places / globe africa</title>
    <path d="M12 1c6.075 0 11 4.925 11 11s-4.925 11-11 11S1 18.075 1 12 5.925 1 12 1zm0 1C6.486 2 2 6.486 2 12s4.486 10 10 10 10-4.486 10-10S17.514 2 12 2zm-1.293 3l1 1h3l.793.793v1L17.207 9.5H19v2.207l-2 2v3L13.707 20h-1.914L10 18.207v-3.5l-1-1V12.5H5.793L4 10.707V7.793L6.793 5h3.914zm-.414 1H7.207L5 8.207v2.086L6.207 11.5H10v1.793l1 1v3.5L12.207 19h1.086L16 16.293v-3l2-2V10.5h-1.207L14.5 8.207v-1L14.293 7h-3l-1-1zM18.5 16.293l.707.707-1.707 1.707-.707-.707 1.707-1.707z" fill="currentColor" fill-rule="evenodd"></path>
  </symbol>
  <symbol xmlns="http://www.w3.org/2000/svg" viewBox="0 0 24 24" id="parking">
    <title>Icons / Mastercard / People &amp;amp; Places / parking</title>
    <path d="M18.5 1C20.981 1 23 3.019 23 5.5v13c0 2.481-2.019 4.5-4.5 4.5h-13A4.505 4.505 0 011 18.5v-13C1 3.019 3.019 1 5.5 1h13zm0 1h-13C3.57 2 2 3.57 2 5.5v13C2 20.43 3.57 22 5.5 22h13c1.93 0 3.5-1.57 3.5-3.5v-13C22 3.57 20.43 2 18.5 2zm-3.388 3c.607 0 1.151.073 1.634.22.481.146.889.36 1.222.641.332.28.587.622.766 1.025.177.403.266.861.266 1.374a3.4 3.4 0 01-.267 1.379 2.774 2.774 0 01-.766 1.024 3.45 3.45 0 01-1.222.637 5.628 5.628 0 01-1.634.22h-3.126v4.478h-.958V5h4.085zm-.023.906h-3.104v4.702h3.104c.46 0 .871-.05 1.232-.149.361-.099.667-.247.915-.443.249-.196.439-.441.57-.734.131-.293.196-.634.196-1.021 0-.387-.065-.729-.196-1.025a1.912 1.912 0 00-.57-.738 2.544 2.544 0 00-.915-.443 4.668 4.668 0 00-1.232-.149z" fill="currentColor" fill-rule="evenodd"></path>
  </symbol>
  <symbol xmlns="http://www.w3.org/2000/svg" viewBox="0 0 24 24" id="globe">
    <title>Icons / Mastercard / People &amp;amp; Places / globe</title>
    <path d="M12.5 2C6.71 2 2 6.71 2 12.5S6.71 23 12.5 23 23 18.29 23 12.5 18.29 2 12.5 2zm0 19.999c-1.191 0-2.434-1.492-3.199-3.999h6.398c-.765 2.507-2.008 3.999-3.199 3.999zM9.039 17c-.301-1.305-.483-2.818-.483-4.501 0-1.682.182-3.195.483-4.499h6.923c.301 1.304.483 2.817.483 4.499 0 1.683-.182 3.196-.483 4.501H9.039zM12.5 3c1.191 0 2.435 1.493 3.199 4H9.301c.764-2.507 2.008-4 3.199-4zm4.478 5h3.886A9.44 9.44 0 0122 12.5a9.44 9.44 0 01-1.136 4.5h-3.886c.297-1.359.467-2.878.467-4.501A21.23 21.23 0 0016.978 8zm3.254-1h-3.504c-.437-1.533-1.05-2.798-1.79-3.671A9.515 9.515 0 0120.232 7zm-10.17-3.671C9.323 4.202 8.709 5.467 8.273 7H4.768a9.515 9.515 0 015.294-3.671zM4.136 8h3.886a21.167 21.167 0 00-.466 4.499c0 1.623.17 3.142.467 4.501H4.136A9.44 9.44 0 013 12.5 9.44 9.44 0 014.136 8zm.632 10h3.505c.437 1.533 1.051 2.799 1.79 3.672A9.524 9.524 0 014.768 18zm10.168 3.672c.74-.873 1.353-2.139 1.79-3.672h3.505a9.517 9.517 0 01-5.295 3.672z" fill="currentColor" fill-rule="evenodd"></path>
  </symbol>
  <symbol xmlns="http://www.w3.org/2000/svg" viewBox="0 0 24 24" id="merchant">
    <title>Icons / Mastercard / People &amp;amp; Places / merchant</title>
    <path d="M22 13.392V22h-3v-7h-3v7H2v-8.608c.309.187.645.33 1 .432V21h12v-7h5v7h1v-7.176a4.05 4.05 0 001-.432zM13 14v6H4v-6h9zm-1 1H5v4h7v-4zm9.409-13L23 9.875a3.124 3.124 0 01-5.75 1.694 3.124 3.124 0 01-5.25 0 3.124 3.124 0 01-5.25 0A3.124 3.124 0 011 9.875l.01-.1L2.591 2h18.818zm-.817 1H3.409L2 9.923A2.128 2.128 0 004.125 12a2.121 2.121 0 002.112-2h1.028c.066 1.113.983 2 2.112 2a2.121 2.121 0 002.112-2h1.025c.066 1.113.983 2 2.112 2a2.121 2.121 0 002.112-2h1.025c.066 1.113.983 2 2.112 2A2.128 2.128 0 0022 9.923L20.592 3z" fill="currentColor" fill-rule="evenodd"></path>
  </symbol>
</svg>