<svg width="0" height="0" class="hidden">
  <symbol xmlns="http://www.w3.org/2000/svg" viewBox="0 0 24 24" id="lighting-bolt">
    <title>Icons / Mastercard / Things / lighting bolt</title>
    <path d="M7.5 23.5a.5.5 0 01-.473-.66l3.315-9.832L6.999 13a.499.499 0 01-.385-.818l9.5-11.5a.5.5 0 01.859.477L14.194 9.5H17a.5.5 0 01.404.794l-9.5 13a.498.498 0 01-.404.206zm.56-11.497l2.979.007a.497.497 0 01.472.66L9.01 20.086l7.005-9.586H13.5a.499.499 0 01-.474-.658l2.152-6.456-7.118 8.617z" fill="currentColor" fill-rule="evenodd"></path>
  </symbol>
  <symbol xmlns="http://www.w3.org/2000/svg" viewBox="0 0 24 24" id="parcel">
    <title>Icons / Mastercard / Things / parcel</title>
    <path d="M23.007 1v22h-22V1h22zM9 2H2.007v20h20V2H14v4H9V2zm10 17v1h-7v-1h7zm-3.5-8.621l3.182 3.182-.707.707L16 12.293V18h-1v-5.707l-1.975 1.975-.707-.707 3.182-3.182zM13 2h-3v3h3V2z" fill="currentColor" fill-rule="evenodd"></path>
  </symbol>
  <symbol xmlns="http://www.w3.org/2000/svg" viewBox="0 0 24 24" id="leisure-1">
    <title>Icons / Mastercard / Things / leisure 1</title>
    <path d="M11 11v11h-1V11h1zm1 6.135a56.49 56.49 0 011.706.853C16.439 19.4 19.538 21 24 21v1c-4.705 0-7.918-1.659-10.753-3.123A82.894 82.894 0 0012 18.244zM1.671 18.624C4.521 16.13 6.824 15.657 9 16.077v1.02c-2.011-.441-4.042-.019-6.671 2.279zM10.5 2.5c.176 0 .348.014.522.027.249.017.495.047.737.088C15.301 3.213 18 6.288 18 10H3c0-3.712 2.699-6.786 6.24-7.386A8.543 8.543 0 0110.5 2.5zM8.668 3.789C6.289 4.494 4.464 6.502 4.077 9h2.948C7.014 8.834 7 8.669 7 8.5c0-1.785.626-3.423 1.668-4.711zM10.5 3.5l-.164.015A6.487 6.487 0 008 8.5c0 .169.013.334.025.5h4.95c.012-.166.025-.331.025-.5 0-2.001-.91-3.792-2.336-4.985-.056-.001-.108-.015-.164-.015zm1.832.289A7.464 7.464 0 0114 8.5c0 .169-.014.334-.025.5h2.948c-.387-2.498-2.212-4.506-4.591-5.211z" fill="currentColor" fill-rule="evenodd"></path>
  </symbol>
  <symbol xmlns="http://www.w3.org/2000/svg" viewBox="0 0 24 24" id="sports">
    <title>Icons / Mastercard / Things / sports</title>
    <path d="M18.5 7c1.506 0 2.907.91 3.947 2.564.1.158.194.324.286.494C23.55 11.581 24 13.514 24 15.5c0 1.986-.45 3.919-1.267 5.44l-.14.252-.147.243C21.408 23.09 20.006 24 18.5 24c-1.506 0-2.908-.91-3.947-2.564a8.398 8.398 0 01-.286-.494C13.45 19.419 13 17.486 13 15.5c0-1.986.45-3.919 1.267-5.44a8.12 8.12 0 01.287-.495C15.593 7.91 16.994 7 18.5 7zM7 14c1.029 0 2.01.31 2.84.883l.019.014c.24.167.466.357.677.568A4.962 4.962 0 0112 19c0 1.336-.52 2.591-1.464 3.535-.21.21-.438.4-.677.568l-.019.014A4.97 4.97 0 017 24c-1.029 0-2.01-.31-2.84-.883l-.019-.014a5.071 5.071 0 01-.677-.568A4.962 4.962 0 012 19c0-1.247.453-2.423 1.28-3.342l.184-.193c.211-.21.438-.4.677-.568l.019-.014A4.971 4.971 0 017 14zm11.5-6c-1.149 0-2.25.744-3.1 2.096a7.71 7.71 0 00-.253.438C14.408 11.911 14 13.676 14 15.5c0 1.824.408 3.589 1.147 4.968.081.149.165.296.252.437C16.249 22.256 17.35 23 18.5 23s2.251-.744 3.1-2.096a7.71 7.71 0 00.253-.438C22.592 19.089 23 17.324 23 15.5c0-1.824-.408-3.589-1.147-4.968a9.227 9.227 0 00-.252-.437C20.75 8.744 19.649 8 18.5 8zM7 15c-.779 0-1.524.221-2.164.634a5.455 5.455 0 01.006 6.725c1.294.804 3.022.804 4.316 0a5.455 5.455 0 01.005-6.724A3.962 3.962 0 007 15zm-2.93 1.278l-.013.012-.107.121a4.04 4.04 0 00-.146.183l.097-.124c-.05.06-.098.123-.144.187l.047-.063c-.041.055-.081.11-.12.166l.073-.103a3.988 3.988 0 00-.13.19l.058-.087a3.985 3.985 0 00-.13.205l.072-.118a3.97 3.97 0 00-.109.18l.036-.062a3.963 3.963 0 00-.122.222l.086-.16a3.956 3.956 0 00-.11.207l.024-.047a3.95 3.95 0 00-.084.175l.06-.128a3.95 3.95 0 00-.095.21l.035-.082a3.946 3.946 0 00-.19.52l.032-.106a3.963 3.963 0 00-.133.543l.02-.11a4.039 4.039 0 00.028 1.707l-.03-.142a3.97 3.97 0 00.27.857l-.035-.08c.03.072.064.144.099.214l-.064-.134c.025.055.05.11.078.164l-.014-.03a3.966 3.966 0 00.275.475l-.06-.092a4 4 0 00.134.196l-.074-.104c.038.056.078.11.118.165l-.044-.061c.044.06.09.12.138.18l-.094-.12c.048.063.097.125.148.185l-.054-.066c.048.06.098.118.15.174l-.096-.108a5 5 0 00.12.134A4.46 4.46 0 005 19a4.46 4.46 0 00-.93-2.722zm5.86-.001A4.459 4.459 0 009 19c0 .986.326 1.936.928 2.721l.037-.04.056-.06a4.038 4.038 0 00.152-.185l-.063.08a4.01 4.01 0 00.146-.19l-.083.11c.042-.055.083-.11.122-.167l-.04.056c.043-.058.083-.118.122-.179l-.082.123c.053-.077.103-.155.15-.234l-.068.111c.04-.062.077-.125.113-.189l-.044.078c.046-.079.09-.16.13-.24l-.086.162c.036-.064.07-.129.103-.194l-.016.032a3.95 3.95 0 00.075-.157l-.06.125a3.945 3.945 0 00.218-.54l-.043.127a3.958 3.958 0 00.159-.576l-.03.142A3.987 3.987 0 0011 19a4.048 4.048 0 00-.078-.79l.02.11a3.972 3.972 0 00-.132-.543l.032.103a3.947 3.947 0 00-.19-.518l.036.083a3.948 3.948 0 00-.097-.21l.06.127a3.95 3.95 0 00-.083-.175l.023.048a3.959 3.959 0 00-.11-.207l.087.16a3.96 3.96 0 00-.122-.223l.036.063a3.976 3.976 0 00-.11-.181l.074.118a3.976 3.976 0 00-.13-.205l.056.087a4 4 0 00-.13-.19l.074.103a3.998 3.998 0 00-.12-.166l.046.062a4.034 4.034 0 00-.144-.186l.099.124a4.027 4.027 0 00-.147-.183l.048.059a4.076 4.076 0 00-.155-.18l.107.121a4.06 4.06 0 00-.12-.134zM19 11v1h1v1h-1v2h1v1h-1v2h1v1h-1v1h-1v-1h-1v-1h1v-2h-1v-1h1v-2h-1v-1h1v-1h1zM2.49 2.489c3.313-3.313 8.707-3.315 12.02 0a8.445 8.445 0 012.204 3.87c-.314.126-.621.28-.916.473a7.414 7.414 0 00-1.42-2.985 7.47 7.47 0 00-1.595 4.155h1.698a8.265 8.265 0 00-.753 1h-.945c.031.466.121.925.238 1.38-.205.481-.39.98-.532 1.508a8.533 8.533 0 01-.705-2.888H9v4.352a5.955 5.955 0 00-1-.263V9.002H5.222a8.455 8.455 0 01-1.913 4.901c.076.072.163.124.241.193a5.998 5.998 0 00-.789.658c-.089-.082-.183-.157-.271-.244-3.314-3.315-3.314-8.707 0-12.021zm1.733 6.513H1.029a7.456 7.456 0 001.597 4.153 7.471 7.471 0 001.597-4.153zM9 1.027v6.976h2.784a8.454 8.454 0 011.911-4.904A7.457 7.457 0 009 1.027zm-1 0a7.462 7.462 0 00-4.691 2.069 8.464 8.464 0 011.914 4.906H8zM2.626 3.844a7.462 7.462 0 00-1.598 4.158h3.196a7.462 7.462 0 00-1.598-4.158z" fill="currentColor" fill-rule="evenodd"></path>
  </symbol>
  <symbol xmlns="http://www.w3.org/2000/svg" viewBox="0 0 24 24" id="emergency">
    <title>Icons / Mastercard / Things / emergency</title>
    <path d="M23 13c0 6.065-4.935 11-11 11H7v-3.522c.318.213.655.4 1 .572V23h4c5.176 0 9.446-3.954 9.949-9H21v-1zM12 5c4.411 0 8 3.589 8 8s-3.589 8-8 8-8-3.589-8-8 3.589-8 8-8zm0 1c-3.86 0-7 3.141-7 7s3.14 7 7 7 7-3.141 7-7-3.14-7-7-7zm0 5c1.103 0 2 .897 2 2s-.897 2-2 2-2-.897-2-2 .897-2 2-2zm0 1a1.001 1.001 0 000 2 1.001 1.001 0 000-2zm3.433-8.409l.46.195a9.963 9.963 0 013.178 2.143 9.94 9.94 0 012.143 3.179l.195.46-.921.389-.195-.461a8.99 8.99 0 00-1.929-2.86 9.002 9.002 0 00-2.861-1.93l-.46-.194.39-.921zm-6.866 0l.39.921-.46.194a9.002 9.002 0 00-2.861 1.93 8.99 8.99 0 00-1.929 2.86l-.195.461-.921-.39.195-.46a9.947 9.947 0 012.143-3.178 9.985 9.985 0 013.178-2.143l.46-.195zm-.778-1.843l.39.921-.46.195a10.961 10.961 0 00-3.497 2.358 10.976 10.976 0 00-2.357 3.496l-.196.461-.921-.39.195-.46a11.953 11.953 0 012.572-3.814 11.956 11.956 0 013.814-2.573l.46-.194zm8.423.001l.46.194a11.975 11.975 0 013.814 2.572 11.972 11.972 0 012.571 3.814l.195.46-.921.39-.195-.461a10.982 10.982 0 00-2.357-3.496 10.953 10.953 0 00-3.497-2.357l-.46-.195.39-.921z" fill="currentColor" fill-rule="evenodd"></path>
  </symbol>
  <symbol xmlns="http://www.w3.org/2000/svg" viewBox="0 0 24 24" id="prescription">
    <title>Icons / Mastercard / Things / prescription</title>
    <path d="M12 1c1.208 0 2.217.86 2.45 2H16v1h4v20H4V4h4V3h1.55c.233-1.14 1.242-2 2.45-2zM8 5H5v18h14V5h-3v2H8V5zm9 15v1H7v-1h10zM9.468 9c.694 0 1.221.148 1.581.447.361.298.542.728.542 1.29 0 .254-.047.486-.141.696-.094.21-.228.39-.401.54-.173.15-.383.269-.63.355a2.852 2.852 0 01-.829.148l1.342 1.739.969-1.32h1.059l-1.509 1.992L13.081 17h-1.199l-1.055-1.395L9.821 17h-1.05l1.536-2.081-1.85-2.443h-.489v2.523H7V9zm-.025.908H7.968v1.688h1.475c.39 0 .68-.071.865-.212.185-.141.278-.358.278-.649 0-.285-.095-.495-.284-.628-.19-.133-.476-.199-.859-.199zM12 2c-.827 0-1.5.673-1.5 1.5V4H9v2h6V4h-1.5v-.5c0-.827-.673-1.5-1.5-1.5z" fill="currentColor" fill-rule="evenodd"></path>
  </symbol>
  <symbol xmlns="http://www.w3.org/2000/svg" viewBox="0 0 24 24" id="target">
    <title>Icons / Mastercard / Things / target</title>
    <path d="M11 2c1.712 0 3.327.404 4.774 1.105l-.748.748A9.93 9.93 0 0011 3C5.486 3 1 7.486 1 13s4.486 10 10 10 10-4.486 10-10a9.934 9.934 0 00-.853-4.026l.748-.748A10.914 10.914 0 0122 13c0 6.065-4.935 11-11 11S0 19.065 0 13 4.935 2 11 2zm0 4c1.075 0 2.089.251 3 .685v1.127A5.958 5.958 0 0011 7c-3.309 0-6 2.691-6 6s2.691 6 6 6 6-2.691 6-6a5.958 5.958 0 00-.812-3h1.127c.434.911.685 1.926.685 3 0 3.859-3.14 7-7 7s-7-3.141-7-7 3.14-7 7-7zm0 4c.267 0 .521.046.767.112l-.902.902A1.996 1.996 0 009 13c0 1.103.897 2 2 2a1.995 1.995 0 001.986-1.865l.902-.902c.066.246.112.5.112.767 0 1.654-1.346 3-3 3s-3-1.346-3-3 1.346-3 3-3zm8-8.707V5h3.707l-4 4h-3l-4.354 4.354-.707-.707L15 8.293v-3l4-4zm-1 2.414l-2 2V8h2.293l2-2H18V3.707z" fill="currentColor" fill-rule="evenodd"></path>
  </symbol>
  <symbol xmlns="http://www.w3.org/2000/svg" viewBox="0 0 24 24" id="hair-makeup">
    <title>Icons / Mastercard / Things / hair makeup</title>
    <path d="M8.5 0C12.084 0 15 2.916 15 6.5v3a6.532 6.532 0 01-4.245 6.093l.974 4.382a3.291 3.291 0 01-.649 2.787A3.292 3.292 0 018.5 24a3.292 3.292 0 01-2.58-1.238 3.291 3.291 0 01-.649-2.787l.974-4.382A6.532 6.532 0 012 9.5v-3C2 2.916 4.916 0 8.5 0zm11.793 6A.998.998 0 0122 6.707V14.5h.5V23h-6v-8.5h.5V9.293zM8.5 1A5.506 5.506 0 003 6.5v3a5.52 5.52 0 003.97 5.279l.449.131-1.173 5.281a2.301 2.301 0 00.453 1.945c.881 1.098 2.719 1.098 3.6 0a2.294 2.294 0 00.453-1.945L9.579 14.91l.451-.131A5.52 5.52 0 0014 9.5v-3C14 3.468 11.533 1 8.5 1zm13 14.5h-4V22h4v-6.5zM21 12h-3v2.5h3V12zM8.5 2C10.981 2 13 4.019 13 6.5v3c0 2.481-2.019 4.5-4.5 4.5A4.505 4.505 0 014 9.5v-3C4 4.019 6.019 2 8.5 2zm0 1C6.57 3 5 4.57 5 6.5v3C5 11.43 6.57 13 8.5 13S12 11.43 12 9.5v-3C12 4.57 10.43 3 8.5 3zm0 8a.5.5 0 110 1 .5.5 0 010-1zM21 6.707l-3 3V11h3V6.707zM6.5 9a.5.5 0 110 1 .5.5 0 010-1zm4 0a.5.5 0 110 1 .5.5 0 010-1zm-4-3a.5.5 0 110 1 .5.5 0 010-1zm4 0a.5.5 0 110 1 .5.5 0 010-1zm-2-2a.5.5 0 110 1 .5.5 0 010-1z" fill="currentColor" fill-rule="evenodd"></path>
  </symbol>
  <symbol xmlns="http://www.w3.org/2000/svg" viewBox="0 0 24 24" id="ticket">
    <title>Icons / Mastercard / Things / ticket</title>
    <path d="M21 6a2 2 0 002 2v9a2 2 0 00-2 2H3a2 2 0 00-2-2V8a2 2 0 002-2zm-.829 1H3.829A3.018 3.018 0 012 8.829v7.342a3.017 3.017 0 011.829 1.83h16.342A3.016 3.016 0 0122 16.172V8.829A3.018 3.018 0 0120.171 7zM18 15v1H6v-1h12zm0-3v1H6v-1h12zm0-3v1H6V9h12z" fill="currentColor" fill-rule="evenodd"></path>
  </symbol>
  <symbol xmlns="http://www.w3.org/2000/svg" viewBox="0 0 24 24" id="racing-3">
    <title>Icons / Mastercard / Things / racing 3</title>
    <path d="M21.368 16.078l-1.506 4.615-.084.085A10.93 10.93 0 0112 24a10.933 10.933 0 01-7.778-3.221l-.084-.085-1.491-4.606c.395.167.792.324 1.193.47l1.173 3.596A9.933 9.933 0 0012 23a9.94 9.94 0 006.988-2.845l1.174-3.6c.405-.148.807-.307 1.206-.477zM14 19v1h-4v-1h4zm8.951-9l.033.645c.008.117.016.235.016.355l-.025.155-1.191 3.651-.199.091A22.781 22.781 0 0112 17c-3.328 0-6.553-.706-9.583-2.099l-.199-.091L1 11c0-.12.008-.238.016-.355L1.048 10h21.903zm-.977 1H2.026l1.006 3.083a22.008 22.008 0 0017.937-.004L21.974 11zM12 0c2.938 0 5.701 1.145 7.779 3.222A10.921 10.921 0 0122.813 9H21.8a9.925 9.925 0 00-2.729-5.071A9.932 9.932 0 0012 1a9.932 9.932 0 00-7.071 2.929A9.925 9.925 0 002.2 9H1.187a10.916 10.916 0 013.035-5.778A10.93 10.93 0 0112 0z" fill="currentColor" fill-rule="evenodd"></path>
  </symbol>
  <symbol xmlns="http://www.w3.org/2000/svg" viewBox="0 0 24 24" id="concert">
    <title>Icons / Mastercard / Things / concert</title>
    <path d="M16.036.686l.707.706 1.355 1.355-.519.694a2.505 2.505 0 00.224 3.255 2.458 2.458 0 001.75.725c.547 0 1.067-.173 1.505-.499l.694-.519 2.062 2.062-.707.707L9.671 22.606l-.707.707-2.062-2.062.519-.694a2.505 2.505 0 00-.224-3.255 2.458 2.458 0 00-1.75-.725c-.547 0-1.067.174-1.505.501l-.694.519-1.355-1.355-.707-.707.707-.707L15.329 1.393l.707-.707zm0 1.414L2.599 15.535l.743.743a3.51 3.51 0 012.104-.7 3.46 3.46 0 012.457 1.018 3.49 3.49 0 01.318 4.561l.743.743L22.401 8.465l-.743-.743a3.51 3.51 0 01-2.104.7 3.46 3.46 0 01-2.457-1.018 3.49 3.49 0 01-.318-4.561l-.743-.743zM15 8v1h-2v6a2 2 0 11-2-2c.366 0 .705.106 1 .277V8h3zm-4 6c-.551 0-1 .449-1 1 0 .551.449 1 1 1 .551 0 1-.449 1-1 0-.551-.449-1-1-1z" fill="currentColor" fill-rule="evenodd"></path>
  </symbol>
  <symbol xmlns="http://www.w3.org/2000/svg" viewBox="0 0 24 24" id="leisure-3">
    <title>Icons / Mastercard / Things / leisure 3</title>
    <path d="M21 5v18H7V5h14zm-1 1H8v16h12V6zm-8.5 3c.827 0 1.5.673 1.5 1.5V21h-1V10.5a.5.5 0 00-1 0V21h-1V10.5c0-.827.673-1.5 1.5-1.5zm5 0c.827 0 1.5.673 1.5 1.5V21h-1V10.5a.5.5 0 00-1 0V21h-1V10.5c0-.827.673-1.5 1.5-1.5zM6 6v1h-.5C4.673 7 4 7.673 4 8.5v6c0 .827.673 1.5 1.5 1.5H6v1h-.5A2.503 2.503 0 013 14.5v-6C3 7.121 4.122 6 5.5 6H6zm12.5-5C19.878 1 21 2.121 21 3.5V4h-1v-.5c0-.827-.673-1.5-1.5-1.5h-9C8.673 2 8 2.673 8 3.5V4H7v-.5C7 2.121 8.122 1 9.5 1h9z" fill="currentColor" fill-rule="evenodd"></path>
  </symbol>
  <symbol xmlns="http://www.w3.org/2000/svg" viewBox="0 0 24 24" id="leisure-2">
    <title>Icons / Mastercard / Things / leisure 2</title>
    <path d="M19.5 3C20.878 3 22 4.121 22 5.5V9c1.103 0 2 .897 2 2v8h-2v2h-1v-2H4v2H3v-2H1v-8c0-1.103.897-2 2-2V5.5C3 4.121 4.122 3 5.5 3zM4 10H3c-.551 0-1 .448-1 1v7h21v-7c0-.552-.449-1-1-1h-1c-.551 0-1 .448-1 1v3H5v-3c0-.552-.449-1-1-1zm15.5-6h-14C4.673 4 4 4.673 4 5.5V9c1.103 0 2 .897 2 2v2h13v-2c0-1.103.897-2 2-2V5.5c0-.827-.673-1.5-1.5-1.5zM13 6v5h-1V6h1z" fill="currentColor" fill-rule="evenodd"></path>
  </symbol>
  <symbol xmlns="http://www.w3.org/2000/svg" viewBox="0 0 24 24" id="speed">
    <title>Icons / Mastercard / Things / speed</title>
    <path d="M22.707 7L22 6.293l-1.471 1.471A13.89 13.89 0 0011 4C7.26 4 3.745 5.456 1.101 8.101l.707.707A12.914 12.914 0 0111 5a12.9 12.9 0 018.822 3.471L17.7 10.593c-3.92-3.548-9.991-3.444-13.77.335l.707.707c3.39-3.391 8.827-3.496 12.356-.335l-2.121 2.121A5.952 5.952 0 0011 12a5.96 5.96 0 00-4.243 1.758l.707.707A4.972 4.972 0 0111 13c1.166 0 2.257.417 3.147 1.146l-2.138 2.138A1.97 1.97 0 0011 16c-1.103 0-2 .897-2 2s.897 2 2 2 2-.897 2-2c0-.37-.108-.712-.283-1.01L22.707 7zM11 19a1.001 1.001 0 010-2 1.001 1.001 0 010 2z" fill="currentColor" fill-rule="evenodd"></path>
  </symbol>
  <symbol xmlns="http://www.w3.org/2000/svg" viewBox="0 0 24 24" id="racing-2">
    <title>Icons / Mastercard / Things / racing 2</title>
    <path d="M15 21c0 .846-.36 1.657-.987 2.225a3.01 3.01 0 01-2.321.759C10.183 23.833 9 22.459 9 20.857V19H5v1.5c0 .827-.673 1.5-1.5 1.5h-2C.673 22 0 21.327 0 20.5v-4c0-.827.673-1.5 1.5-1.5h2c.827 0 1.5.673 1.5 1.5V18h4v-1.293l-3-3V8.5c0-1.11.732-2.043 1.735-2.368a4.448 4.448 0 00-.223 1.248A1.493 1.493 0 007 8.5v4.793l3 3v4.564c0 1.095.787 2.032 1.792 2.133a1.99 1.99 0 001.55-.507c.418-.379.658-.919.658-1.483v-4.707l3-3V8.5c0-.447-.201-.845-.512-1.12a4.448 4.448 0 00-.223-1.248A2.495 2.495 0 0118 8.5v5.207l-3 3V18h4v-1.5c0-.827.673-1.5 1.5-1.5h2c.827 0 1.5.673 1.5 1.5v4c0 .827-.673 1.5-1.5 1.5h-2c-.827 0-1.5-.673-1.5-1.5V19h-4zM3.5 16h-2a.5.5 0 00-.5.5v4a.5.5 0 00.5.5h2a.5.5 0 00.5-.5v-4a.5.5 0 00-.5-.5zm19 0h-2a.5.5 0 00-.5.5v4a.5.5 0 00.5.5h2a.5.5 0 00.5-.5v-4a.5.5 0 00-.5-.5zM12 4c1.93 0 3.5 1.57 3.5 3.5S13.93 11 12 11 8.5 9.43 8.5 7.5 10.07 4 12 4zm0 1a2.503 2.503 0 00-2.5 2.5c0 1.379 1.122 2.5 2.5 2.5s2.5-1.121 2.5-2.5S13.378 5 12 5zM3.5 1.011c.827 0 1.5.673 1.5 1.5v4c0 .827-.673 1.5-1.5 1.5h-2c-.827 0-1.5-.673-1.5-1.5v-4c0-.827.673-1.5 1.5-1.5zm19 0c.827 0 1.5.673 1.5 1.5v4c0 .827-.673 1.5-1.5 1.5h-2c-.827 0-1.5-.673-1.5-1.5v-4c0-.827.673-1.5 1.5-1.5zm-19 1h-2a.5.5 0 00-.5.5v4a.5.5 0 00.5.5h2a.5.5 0 00.5-.5v-4a.5.5 0 00-.5-.5zm19 0h-2a.5.5 0 00-.5.5v4a.5.5 0 00.5.5h2a.5.5 0 00.5-.5v-4a.5.5 0 00-.5-.5zM18 0v4h-1V1H7v3H6V0h12z" fill="currentColor" fill-rule="evenodd"></path>
  </symbol>
  <symbol xmlns="http://www.w3.org/2000/svg" viewBox="0 0 24 24" id="puzzle">
    <title>Icons / Mastercard / Things / puzzle</title>
    <path d="M13 1H2v10.511h-.005L2 23h22V1H13zm0 7.908c.394.189.842.292 1.278.292 1.476 0 2.677-1.184 2.677-2.639 0-1.455-1.201-2.639-2.677-2.639-.436 0-.893.104-1.278.293V2h10v9h-2.216a.994.994 0 00-.902 1.423c.124.259.195.57.195.854 0 .925-.735 1.678-1.639 1.678s-1.638-.753-1.638-1.678c0-.285.071-.596.195-.855A.996.996 0 0016.093 11H13V8.908zM3 2h9v2.216a.994.994 0 001.422.902c.259-.123.571-.194.856-.194.925 0 1.677.735 1.677 1.639S15.203 8.2 14.278 8.2c-.285 0-.597-.071-.854-.193a.983.983 0 00-.957.054.99.99 0 00-.467.845V11h-1.833c.255-.413.38-.841.38-1.307a2.72 2.72 0 00-1.076-2.15 2.644 2.644 0 00-2.331-.442 2.681 2.681 0 00-1.948 2.525c-.009.49.118.941.397 1.385H3V2zm9.001 20H3l-.005-9.989H5.59c.366 0 .69-.189.867-.508a1.013 1.013 0 00-.026-1.023 1.46 1.46 0 01-.238-.835c.014-.725.524-1.39 1.214-1.581a1.64 1.64 0 011.459.275c.426.325.681.831.681 1.354 0 .281-.071.522-.23.779a1.018 1.018 0 00-.028 1.031c.177.317.5.507.866.507H12v2.799c-1.154-.711-2.664-.353-3.461.697a2.65 2.65 0 00-.443 2.331 2.684 2.684 0 002.525 1.947c.489.002.943-.117 1.385-.398L12.001 22zM23 22h-9.999l.004-2.612a.979.979 0 00-.506-.866 1.012 1.012 0 00-1.025.025 1.501 1.501 0 01-.834.238 1.7 1.7 0 01-1.58-1.215 1.634 1.634 0 01.275-1.458c.498-.657 1.399-.904 2.133-.452a1.02 1.02 0 001.031.028.972.972 0 00.501-.866V12h3.092a3.009 3.009 0 00-.292 1.277c0 1.477 1.184 2.678 2.639 2.678 1.455 0 2.639-1.201 2.639-2.678 0-.435-.104-.891-.293-1.277H23v10z" fill="currentColor" fill-rule="evenodd"></path>
  </symbol>
  <symbol xmlns="http://www.w3.org/2000/svg" viewBox="0 0 24 24" id="airline">
    <title>Icons / Mastercard / Things / airline</title>
    <path d="M21.707 10h-5.378l-3.698-5.174-.015.011A3.905 3.905 0 009.669 3.5H6.762l2.6 6.5H5.707l-2-2H1.375a.75.75 0 00-.692 1.038L3.167 15H9.14l-2.333 7h2.806a3.488 3.488 0 002.944-1.607L16.023 15H21.5c1.378 0 2.5-1.121 2.5-2.5v-.207L21.707 10zM8.238 4.5h1.431c.979 0 1.888.486 2.44 1.314L15.1 10h-4.662l-2.2-5.5zm3.477 15.352A2.494 2.494 0 019.612 21H8.194l2-6h4.64l-3.119 4.852zM21.5 14H3.833L1.75 9h1.543l2 2h16l1.694 1.694A1.502 1.502 0 0121.5 14z" fill="currentColor" fill-rule="evenodd"></path>
  </symbol>
  <symbol xmlns="http://www.w3.org/2000/svg" viewBox="0 0 24 24" id="competition-2">
    <title>Icons / Mastercard / Things / competition 2</title>
    <path d="M17 15v4h7v4h-1v-3h-7v-4H9v4H2v3H1v-4h7v-4h9zm.377-6.532c.189-.228.462-.301.711-.21a.62.62 0 01.412.588V13h2V8.89a.62.62 0 01.434-.594.62.62 0 01.699.232l2.307 3.626-.844.537L21.5 10.18V14H21v4h-1v-4h-1v4h-1v-4h-.5V9.979l-1.646 2.22-.804-.595zm-14 0c.189-.228.462-.301.711-.21a.62.62 0 01.412.588V13h2V8.89c0-.273.175-.512.435-.595a.622.622 0 01.699.232l2.306 3.627-.844.537L7.5 10.18V14H7v4H6v-4H5v4H4v-4h-.5V9.979L1.853 12.2l-.803-.596zm7-4c.19-.228.461-.301.711-.21a.62.62 0 01.412.588V9h2V4.89a.62.62 0 01.434-.594.622.622 0 01.699.232l2.307 3.626-.844.537L14.5 6.18V10H14v4h-1v-4h-1v4h-1v-4h-.5V5.979L8.853 8.2l-.803-.596zM19.5 5c.827 0 1.5.673 1.5 1.5S20.327 8 19.5 8 18 7.327 18 6.5 18.673 5 19.5 5zm-14 0C6.327 5 7 5.673 7 6.5S6.327 8 5.5 8 4 7.327 4 6.5 4.673 5 5.5 5zm14 1a.5.5 0 10.002 1.002A.5.5 0 0019.5 6zm-14 0a.5.5 0 10.002 1.002A.5.5 0 005.5 6zm7-5c.827 0 1.5.673 1.5 1.5S13.327 4 12.5 4 11 3.327 11 2.5 11.673 1 12.5 1zm0 1a.5.5 0 10.002 1.002A.5.5 0 0012.5 2z" fill="currentColor" fill-rule="evenodd"></path>
  </symbol>
  <symbol xmlns="http://www.w3.org/2000/svg" viewBox="0 0 24 24" id="sports-hokey">
    <title>Icons / Mastercard / Things / sports hokey</title>
    <path d="M20.547 1.788l.906.424-7 15C13.809 18.5 12.419 18.5 11.5 18.5H4c-.277 0-.5.273-.5.5v.009l.005.034c.016.097.078.37.316 1.056A2.824 2.824 0 006.483 22h3.569c1.23 0 2.401-.301 3.384-.87 1.018-.59 2.383-1.645 3.104-3.327l5.497-13.491.926.377-5.5 13.5c-.659 1.539-1.877 2.853-3.525 3.807-1.136.656-2.479 1.004-3.885 1.004H6.5a3.833 3.833 0 01-3.624-2.573C2.545 19.471 2.5 19.169 2.5 19c0-.799.701-1.5 1.5-1.5h7.5c.99 0 1.717-.052 2.053-.724l6.994-14.988zM9.5 8c1.93 0 3.5 1.57 3.5 3.5S11.43 15 9.5 15 6 13.43 6 11.5 7.57 8 9.5 8zm0 1A2.503 2.503 0 007 11.5C7 12.879 8.122 14 9.5 14s2.5-1.121 2.5-2.5S10.878 9 9.5 9z" fill="currentColor" fill-rule="evenodd"></path>
  </symbol>
  <symbol xmlns="http://www.w3.org/2000/svg" viewBox="0 0 24 24" id="limousine-2">
    <title>Icons / Mastercard / Things / limousine 2</title>
    <path d="M4 14c1.103 0 2 .897 2 2s-.897 2-2 2-2-.897-2-2 .897-2 2-2zm14 0c1.103 0 2 .897 2 2s-.897 2-2 2-2-.897-2-2 .897-2 2-2zM4 15a1.001 1.001 0 000 2 1.001 1.001 0 000-2zm14 0a1.001 1.001 0 000 2 1.001 1.001 0 000-2zm-3.057-8c.182 0 .355.079.474.218l3.348 3.825L24 12.09V17h-3v-1h2v-3.09L18.45 12H1v5H0v-5.375C0 11.28.28 11 .625 11h2.028l1.348-3.595A.626.626 0 014.586 7zM15 16v1H7v-1h8zM6.86 8H4.847l-1.125 3H6.11l.75-3zM12 8H7.89l-.75 3H12V8zm2.772 0H13v3h4.397l-2.625-3z" fill="currentColor" fill-rule="evenodd"></path>
  </symbol>
  <symbol xmlns="http://www.w3.org/2000/svg" viewBox="0 0 24 24" id="racing-1">
    <title>Icons / Mastercard / Things / racing 1</title>
    <path d="M6.317 3.307l9.75 16.887-.866.5-3.44-5.958-1.56-2.702-1.299.75 1 1.732-5.629 3.25-3.75-6.495 2.165-1.25-1-1.732 4.763-2.75-1-1.732.866-.5zm4.528 11.843l.578 1-2.374 4.111-.866-.5 2.662-4.611zm6.587-11.412l.866.5-.75 1.3 4.764 2.75-1 1.732 2.165 1.25-3.75 6.495-5.629-3.25 1-1.732-1.299-.75-.646 1.116-.577-1 4.856-8.411zM3.187 10.886l-1.298.749 2.75 4.765 3.896-2.25-.5-.867-2.598 1.5-2.25-3.897zm17.625 0l-2.25 3.897-2.598-1.5-.5.867 3.897 2.25 2.749-4.764-1.298-.75zM6.951 6.404l-3.897 2.25 2.75 4.764 3.897-2.25-2.75-4.764zm10.098 0l-2.75 4.764 3.897 2.25 2.75-4.764-3.897-2.25z" fill="currentColor" fill-rule="evenodd"></path>
  </symbol>
  <symbol xmlns="http://www.w3.org/2000/svg" viewBox="0 0 24 24" id="car-rental">
    <title>Icons / Mastercard / Things / car rental</title>
    <path d="M3 21v.5c0 .827.673 1.5 1.5 1.5S6 22.327 6 21.5V21h1v.5C7 22.879 5.878 24 4.5 24A2.503 2.503 0 012 21.5V21h1zm15 0v.5c0 .827.673 1.5 1.5 1.5s1.5-.673 1.5-1.5V21h1v.5c0 1.379-1.122 2.5-2.5 2.5a2.503 2.503 0 01-2.5-2.5V21h1zm2.5-10c1.378 0 2.5 1.121 2.5 2.5V20H1v-6.5C1 12.121 2.122 11 3.5 11h17zm0 1h-17c-.827 0-1.5.673-1.5 1.5V19h20v-5.5c0-.827-.673-1.5-1.5-1.5zM5 13c1.103 0 2 .897 2 2s-.897 2-2 2-2-.897-2-2 .897-2 2-2zm14 0c1.103 0 2 .897 2 2s-.897 2-2 2-2-.897-2-2 .897-2 2-2zM5 14a1.001 1.001 0 000 2 1.001 1.001 0 000-2zm14 0a1.001 1.001 0 000 2 1.001 1.001 0 000-2zm-3 1v1H8v-1h8zm1.5-12c1.087 0 2.043.787 2.379 1.958L21.319 10h-1.04l-1.362-4.767C18.706 4.495 18.137 4 17.5 4H9.975a5.503 5.503 0 00-.188-1zm-13-3C6.981 0 9 2.019 9 4.5S6.981 9 4.5 9A4.505 4.505 0 010 4.5C0 2.019 2.019 0 4.5 0zm0 1C2.57 1 1 2.57 1 4.5S2.57 8 4.5 8 8 6.43 8 4.5 6.43 1 4.5 1zM5 2v2.293L6.707 6 6 6.707l-2-2V2h1z" fill="currentColor" fill-rule="evenodd"></path>
  </symbol>
  <symbol xmlns="http://www.w3.org/2000/svg" viewBox="0 0 24 24" id="agile">
    <title>Icons / Mastercard / Things / agile</title>
    <path d="M9.651 4.052l.39.921-.46.195a7.462 7.462 0 00-2.384 1.607 7.492 7.492 0 00-1.608 2.384A7.448 7.448 0 005 12.078a7.466 7.466 0 002.196 5.304 7.445 7.445 0 005.086 2.185l-1.989-1.989.707-.707 3.207 3.207L11 23.285l-.708-.707 2.01-2.01a8.433 8.433 0 01-5.813-2.479A8.474 8.474 0 014 12.078c0-1.147.225-2.261.669-3.309A8.437 8.437 0 016.49 6.068a8.478 8.478 0 012.701-1.822l.46-.194zM14 1l.707.707-2.009 2.01a8.422 8.422 0 015.813 2.479A8.485 8.485 0 0121 12.207a8.44 8.44 0 01-.669 3.31 8.46 8.46 0 01-1.821 2.701 8.469 8.469 0 01-2.702 1.821l-.46.194-.389-.922.461-.194a7.46 7.46 0 002.384-1.606A7.484 7.484 0 0020 12.207a7.466 7.466 0 00-2.196-5.304 7.445 7.445 0 00-5.086-2.185l1.989 1.989-.707.707-3.207-3.207L14 1z" fill="currentColor" fill-rule="evenodd"></path>
  </symbol>
  <symbol xmlns="http://www.w3.org/2000/svg" viewBox="0 0 24 24" id="competition-1">
    <title>Icons / Mastercard / Things / competition 1</title>
    <path d="M17 11.093v4h7v6h-1v-5h-7v-4H9v6H2v3H1v-4h7v-6h9zM4.337 8.96c.306 0 .583.041.833.122.25.081.464.196.643.347a1.575 1.575 0 01.564 1.245c0 .319-.083.595-.249.825a1.674 1.674 0 01-.664.537c.157.062.3.141.429.231.128.092.239.196.332.313.093.117.164.246.214.389.05.144.075.297.075.459 0 .291-.06.547-.178.766a1.605 1.605 0 01-.473.542 2.1 2.1 0 01-.679.322c-.256.07-.519.107-.791.107-.449 0-.849-.076-1.202-.226a2.191 2.191 0 01-.863-.632l.596-.621c.18.193.398.344.653.451.256.107.521.161.795.161.163 0 .316-.019.458-.056a1.11 1.11 0 00.373-.17.82.82 0 00.249-.284.856.856 0 00.09-.403.759.759 0 00-.103-.398.905.905 0 00-.278-.287 1.392 1.392 0 00-.412-.176 2.093 2.093 0 00-.505-.06h-.725v-.851h.72c.163 0 .315-.019.457-.057.141-.036.265-.092.371-.164a.806.806 0 00.25-.276.8.8 0 00.092-.395.792.792 0 00-.335-.662 1.135 1.135 0 00-.36-.173 1.513 1.513 0 00-.831-.007 1.504 1.504 0 00-.818.593l-.669-.569a1.931 1.931 0 01.746-.671c.163-.084.343-.15.542-.199a2.72 2.72 0 01.653-.073zM20.35 6.989c.312 0 .59.049.836.145a1.7 1.7 0 011.017 1.006 2.16 2.16 0 01.062 1.302 2.247 2.247 0 01-.188.448 2.751 2.751 0 01-.257.383 6.508 6.508 0 01-.278.326l-1.504 1.61h2.464v.883h-3.839v-.729l2.168-2.306c.168-.18.3-.361.394-.546a1.289 1.289 0 00.071-1.011.927.927 0 00-.534-.546 1.178 1.178 0 00-.437-.077c-.152 0-.287.019-.407.054s-.228.084-.324.144c-.096.06-.184.13-.263.212-.08.082-.157.166-.231.255l-.665-.549c.071-.098.161-.205.268-.322.107-.117.238-.225.392-.325a2.277 2.277 0 011.255-.357zM13.263 3v5.21h1.44v.883h-3.9v-.884h1.53V4.271l-1.611.579v-.946L13.263 3z" fill="currentColor" fill-rule="evenodd"></path>
  </symbol>
  <symbol xmlns="http://www.w3.org/2000/svg" viewBox="0 0 24 24" id="limousine-1">
    <title>Icons / Mastercard / Things / limousine 1</title>
    <path d="M6 15.5v.5c0 3.309 2.691 6 6 6s6-2.691 6-6v-.5h1v.5c0 3.859-3.14 7-7 7s-7-3.141-7-7v-.5h1zM8.92 1.499a9.802 9.802 0 016.16 0l6.986 2.329a1.001 1.001 0 01.541 1.464L20 9.639v2.297l-.173.149A12.002 12.002 0 0113 14.955V19h-1v-4a11.995 11.995 0 01-7.827-2.915L4 11.936V9.639L1.393 5.292a1 1 0 01.541-1.463zM19 10H5v1.474A10.994 10.994 0 0012 14c2.552 0 5.028-.896 7-2.526V10zm-4.236-7.552a8.808 8.808 0 00-5.527 0L2.25 4.777 4.783 9h14.434l2.534-4.223z" fill="currentColor" fill-rule="evenodd"></path>
  </symbol>
  <symbol xmlns="http://www.w3.org/2000/svg" viewBox="0 0 24 24" id="health">
    <title>Icons / Mastercard / Things / health</title>
    <path d="M15.049 3c1.525 0 2.961.594 4.039 1.673a5.676 5.676 0 011.672 4.038c0 .098-.023.192-.028.289h-1c.006-.097.028-.191.028-.289a4.68 4.68 0 00-1.379-3.331A4.682 4.682 0 0015.049 4c-1.206 0-2.768.686-3.581 1.349a.925.925 0 01-1.177 0C9.479 4.686 7.917 4 6.711 4 5.452 4 4.27 4.49 3.38 5.38A4.682 4.682 0 002 8.711c0 1.259.49 2.441 1.38 3.331l7.5 7.501L12.423 18h1.414l-2.957 2.957-8.207-8.208A5.671 5.671 0 011 8.711c0-1.524.594-2.959 1.673-4.038A5.67 5.67 0 016.711 3c1.477 0 3.201.768 4.169 1.538C11.848 3.768 13.572 3 15.049 3zM20 10v3h3v4h-3v3h-4v-3h-3v-4h3v-3h4zm-1 1h-2v3h-3v2h3v3h2v-3h3v-2h-3v-3z" fill="currentColor" fill-rule="evenodd"></path>
  </symbol>
  <symbol xmlns="http://www.w3.org/2000/svg" viewBox="0 0 24 24" id="key">
    <title>Icons / Mastercard / Things / key</title>
    <path d="M12.5 1a5 5 0 00-5 5c0 2.59 1.977 4.695 4.5 4.95V17H8v1h4v2h-2v1h2v2h1V10.95c2.523-.254 4.5-2.359 4.5-4.95a5 5 0 00-5-5zm0 9c-2.206 0-4-1.794-4-4s1.794-4 4-4 4 1.794 4 4-1.794 4-4 4zm0-7a2 2 0 10-.001 3.999A2 2 0 0012.5 3zm0 3c-.551 0-1-.449-1-1 0-.551.449-1 1-1 .551 0 1 .449 1 1 0 .551-.449 1-1 1z" fill="currentColor" fill-rule="evenodd"></path>
  </symbol>
  <symbol xmlns="http://www.w3.org/2000/svg" viewBox="0 0 24 24" id="headphones">
    <title>Icons / Mastercard / Things / headphones</title>
    <path d="M5 12a2 2 0 012 2v7a2 2 0 11-4 0v-7a2 2 0 012-2zm14 0a2 2 0 012 2v7a2 2 0 11-4 0v-7a2 2 0 012-2zM5 13c-.551 0-1 .449-1 1v7c0 .551.449 1 1 1 .551 0 1-.449 1-1v-7c0-.551-.449-1-1-1zm14 0c-.551 0-1 .449-1 1v7c0 .551.449 1 1 1 .551 0 1-.449 1-1v-7c0-.551-.449-1-1-1zM12 1c6.075 0 11 4.925 11 11v6h-1v-6c0-5.514-4.486-10-10-10S2 6.486 2 12v6H1v-6C1 5.925 5.925 1 12 1z" fill="currentColor" fill-rule="evenodd"></path>
  </symbol>
  <symbol xmlns="http://www.w3.org/2000/svg" viewBox="0 0 24 24" id="sports-soccer">
    <title>Icons / Mastercard / Things / sports soccer</title>
    <path d="M5.597 17.474l.707.707-4.95 4.95-.708-.707 4.95-4.95zm2.828 1.417l.71.705-2.822 2.836-.709-.705 2.821-2.836zM14.5 0C19.738 0 24 4.262 24 9.5S19.738 19 14.5 19 5 14.738 5 9.5 9.262 0 14.5 0zM4.182 14.646l.708.707-2.829 2.829-.707-.708 2.828-2.828zm10.318 2.36l-1.483.856A8.52 8.52 0 0014.5 18a8.52 8.52 0 001.483-.138l-1.483-.856zm-3-5.196l-1.25.721-1.25.722v2.716a8.504 8.504 0 002.648 1.529L14 16.139v-2.886l-1.25-.722-1.25-.721zm6 0l-1.25.721-1.25.722v2.886l2.352 1.358A8.482 8.482 0 0020 15.969v-2.716l-1.25-.722-1.25-.721zm-10.98.588A8.483 8.483 0 008 14.966v-1.713zm15.96.001l-1.48.854v1.713a8.49 8.49 0 001.48-2.567zM8.5 6.613l-2.355 1.36A8.445 8.445 0 006 9.5c0 .522.054 1.031.145 1.527l2.355 1.36 1.25-.721 1.25-.722V8.057l-1.25-.723-1.25-.721zm6 .001l-1.25.721-1.25.722v2.886l2.5 1.444 1.25-.721 1.25-.722V8.057l-1.25-.722-1.25-.721zm6 0l-1.25.721-1.25.722v2.886l1.25.723 1.25.721 2.355-1.36A8.445 8.445 0 0023 9.5c0-.522-.054-1.031-.145-1.526L20.5 6.614zm-3.148-5.112L15 2.861v2.886l1.25.722 1.25.721L20 5.747V3.031a8.504 8.504 0 00-2.648-1.529zm-5.704.001A8.482 8.482 0 009 3.031v2.716l2.5 1.443L14 5.747V2.861zM21 4.034v1.713l1.48.855A8.483 8.483 0 0021 4.034zm-13 0a8.483 8.483 0 00-1.48 2.568L8 5.747zM14.5 1c-.507 0-1.001.053-1.483.139l1.483.856 1.483-.857A8.52 8.52 0 0014.5 1z" fill="currentColor" fill-rule="evenodd"></path>
  </symbol>
  <symbol xmlns="http://www.w3.org/2000/svg" viewBox="0 0 24 24" id="trophy">
    <title>Icons / Mastercard / Things / trophy</title>
    <path d="M23 22v1H2v-1h21zM19 1v3.05a3.49 3.49 0 013 3.45c0 1.821-1.395 3.299-3.172 3.467l.001-.009-.062.246A6.499 6.499 0 0113 15.975V20h3v1H9v-1h3v-4.025a6.497 6.497 0 01-5.829-5.017A3.473 3.473 0 013 7.5a3.49 3.49 0 013-3.45V1h13zm-1 1H7v7.5c0 3.033 2.467 5.5 5.5 5.5S18 12.533 18 9.5V2zm-5.5 1l1.391 2.963L17 6.438l-2.25 2.306.531 3.256-2.781-1.537L9.719 12l.531-3.256L8 6.438l3.109-.475L12.5 3zm0 2.354l-.485 1.033-.227.483-.527.081-1.186.181.891.913.352.361-.081.498-.2 1.224.979-.541.484-.267.484.268.979.541-.2-1.224-.081-.498.352-.361.891-.913-1.186-.181-.527-.081-.227-.483-.485-1.034zm6.5-.303V9.5c0 .152-.011.302-.022.451A2.502 2.502 0 0021 7.5c0-1.207-.86-2.217-2-2.449zm-13 0C4.86 5.283 4 6.293 4 7.5c0 1.215.872 2.227 2.022 2.451A6.106 6.106 0 016 9.5z" fill="currentColor" fill-rule="evenodd"></path>
  </symbol>
  <symbol xmlns="http://www.w3.org/2000/svg" viewBox="0 0 24 24" id="innovation-1">
    <title>Icons / Mastercard / Things / innovation 1</title>
    <path d="M16 19v5H9v-5h7zm-1 3h-5v1h5v-1zm0-2h-5v1h5v-1zM12.5 0c4.577 0 8.3 3.771 8.3 8.406a8.445 8.445 0 01-2.879 6.365C16.288 16.198 16 16.918 16 17.9v.1h-1v-.1c0-1.423.571-2.403 2.263-3.883A7.448 7.448 0 0019.8 8.405C19.8 4.322 16.525 1 12.5 1S5.2 4.322 5.2 8.405c0 2.157.925 4.203 2.537 5.611C9.429 15.497 10 16.476 10 17.9v.1H9v-.1c0-.982-.288-1.702-1.921-3.131A8.44 8.44 0 014.2 8.405C4.2 3.771 7.923 0 12.5 0zm.5 3.986v1.065a3.469 3.469 0 011.583.652l.751-.75.707.707-.75.75c.342.456.571.994.658 1.583h1.058v1H15.95a3.468 3.468 0 01-.654 1.589l.744.744-.707.707-.743-.743a3.459 3.459 0 01-1.59.659V13h-1v-1.051a3.463 3.463 0 01-1.59-.659l-.744.743-.707-.707.745-.744a3.453 3.453 0 01-.654-1.589H7.993v-1h1.058a3.472 3.472 0 01.658-1.583l-.75-.75.707-.707.751.75A3.46 3.46 0 0112 5.05V3.986h1zM12.5 6A2.503 2.503 0 0010 8.5c0 1.379 1.122 2.5 2.5 2.5S15 9.879 15 8.5 13.878 6 12.5 6z" fill="currentColor" fill-rule="evenodd"></path>
  </symbol>
  <symbol xmlns="http://www.w3.org/2000/svg" viewBox="0 0 24 24" id="concierge">
    <title>Icons / Mastercard / Things / concierge</title>
    <path d="M23 18v3h-1v-2H2v2H1v-3h22zM12 7c5.523 0 10 4.477 10 10H2C2 11.477 6.477 7 12 7zm0 1c-4.625 0-8.446 3.506-8.945 8h17.89c-.499-4.494-4.32-8-8.945-8zm2-5v3h-4V3h4zm-1 1h-2v1h2V4z" fill="currentColor" fill-rule="evenodd"></path>
  </symbol>
  <symbol xmlns="http://www.w3.org/2000/svg" viewBox="0 0 24 24" id="innovation-2">
    <title>Icons / Mastercard / Things / innovation 2</title>
    <path d="M22.32 14a9.445 9.445 0 01-2.103 3.218l-1.99 1.99a3.982 3.982 0 00-1.173 2.833V24h-1v-1.959c0-1.338.521-2.595 1.466-3.54l1.99-1.99A8.48 8.48 0 0021.24 14zM10 1.683v1.081C7.056 4.102 5 7.062 5 10.5v.16l-2.223 3.112L5 14.661V17.5c0 .827.673 1.5 1.5 1.5h1c1.378 0 2.5 1.121 2.5 2.5V24H9v-2.5c0-.827-.673-1.5-1.5-1.5h-1A2.503 2.503 0 014 17.5v-2.161l-2.777-1.111 2.778-3.89C4.067 6.407 6.539 3.062 10 1.683zM13.5 0C14.878 0 16 1.121 16 2.5c0 1.207-.86 2.217-2 2.449v2.102c.59.085 1.129.313 1.586.656l2.83-2.83A2.486 2.486 0 0118 3.5C18 2.121 19.122 1 20.5 1S23 2.121 23 3.5 21.878 6 20.5 6a2.48 2.48 0 01-1.376-.416l-2.83 2.83c.342.457.57.996.656 1.586h2.101c.232-1.14 1.242-2 2.449-2a2.502 2.502 0 012.499 2.5c0 1.379-1.122 2.5-2.5 2.5a2.503 2.503 0 01-2.449-2h-2.101c-.245 1.692-1.691 3-3.449 3-1.93 0-3.5-1.57-3.5-3.5 0-1.758 1.308-3.204 3-3.45V4.949A2.502 2.502 0 0111 2.5C11 1.121 12.122 0 13.5 0zm0 8a2.503 2.503 0 00-2.5 2.5c0 1.379 1.122 2.5 2.5 2.5s2.5-1.121 2.5-2.5S14.878 8 13.5 8zm8 1c-.827 0-1.5.673-1.5 1.5s.673 1.5 1.5 1.5 1.5-.673 1.5-1.5S22.327 9 21.5 9zm-1-7c-.827 0-1.5.673-1.5 1.5S19.673 5 20.5 5 22 4.327 22 3.5 21.327 2 20.5 2zm-7-1c-.827 0-1.5.673-1.5 1.5S12.673 4 13.5 4 15 3.327 15 2.5 14.327 1 13.5 1z" fill="currentColor" fill-rule="evenodd"></path>
  </symbol>
  <symbol xmlns="http://www.w3.org/2000/svg" viewBox="0 0 24 24" id="global-er">
    <title>Icons / Mastercard / Things / global er</title>
    <path d="M20 9v4h4v5h-4v4h-5v-4h-4v-5h4V9h5zM9.5 2c4.002 0 7.426 2.49 8.823 6h-4.632c.197 1.08.309 2.256.309 3.5 0 .17-.011.333-.015.5h-.996c.004-.166.011-.33.011-.5 0-1.283-.116-2.458-.315-3.5h-6.37A18.727 18.727 0 006 11.5c0 1.283.116 2.458.315 3.5H10v1H6.546c.664 2.493 1.833 4 2.954 4 .542 0 1.096-.355 1.599-1h1.186a6.47 6.47 0 01-.466.67 8.457 8.457 0 001.649-.67H14v.864A9.44 9.44 0 019.5 21C4.262 21 0 16.738 0 11.5S4.262 2 9.5 2zm9.5 8h-3v4h-4v3h4v4h3v-4h4v-3h-4v-4zM5.521 16H2.302a8.52 8.52 0 004.879 3.67c-.703-.877-1.278-2.14-1.66-3.67zm-.212-8H1.763A8.433 8.433 0 001 11.5c0 1.248.277 2.431.763 3.5h3.546A19.555 19.555 0 015 11.5c0-1.244.112-2.42.309-3.5zm6.51-4.67c.703.877 1.278 2.14 1.66 3.67h3.219a8.52 8.52 0 00-4.879-3.67zM9.5 3C8.379 3 7.21 4.507 6.546 7h5.908C11.79 4.507 10.621 3 9.5 3zm-2.319.33A8.52 8.52 0 002.302 7h3.219c.382-1.53.958-2.793 1.66-3.67z" fill="currentColor" fill-rule="evenodd"></path>
  </symbol>
  <symbol xmlns="http://www.w3.org/2000/svg" viewBox="0 0 24 24" id="truck">
    <title>Icons / Mastercard / Things / truck</title>
    <path d="M3 21v.5c0 .827.673 1.5 1.5 1.5S6 22.327 6 21.5V21h1v.5C7 22.879 5.878 24 4.5 24A2.503 2.503 0 012 21.5V21h1zm15 0v.5c0 .827.673 1.5 1.5 1.5s1.5-.673 1.5-1.5V21h1v.5c0 1.379-1.122 2.5-2.5 2.5a2.503 2.503 0 01-2.5-2.5V21h1zm1-19c1.103 0 2 .897 2 2h2v5h-2v1.051c1.14.232 2 1.241 2 2.449V20H1v-7.5c0-1.207.86-2.217 2-2.449V9H1V4h2c0-1.103.897-2 2-2zm-2.809 7H7.809l-1 2H3.5c-.827 0-1.5.673-1.5 1.5V19h20v-6.5c0-.827-.673-1.5-1.5-1.5h-3.309l-1-2zM16 16v1H8v-1h8zM5 12c1.103 0 2 .897 2 2s-.897 2-2 2-2-.897-2-2 .897-2 2-2zm14 0c1.103 0 2 .897 2 2s-.897 2-2 2-2-.897-2-2 .897-2 2-2zM5 13a1.001 1.001 0 000 2 1.001 1.001 0 000-2zm14 0a1.001 1.001 0 000 2 1.001 1.001 0 000-2zm-3 1v1H8v-1h8zm0-2v1H8v-1h8zm3-9H5c-.551 0-1 .448-1 1v6h2.191l1-2h9.618l1 2H20V4c0-.552-.449-1-1-1zM3 5H2v3h1V5zm19 0h-1v3h1V5zm-5-5v1H7V0h10z" fill="currentColor" fill-rule="evenodd"></path>
  </symbol>
  <symbol xmlns="http://www.w3.org/2000/svg" viewBox="0 0 24 24" id="film-1">
    <title>Icons / Mastercard / Things / film 1</title>
    <path d="M24 22v1h-8.218a11.98 11.98 0 001.837-1H24zM11 1c6.065 0 11 4.935 11 11s-4.935 11-11 11S0 18.065 0 12 4.935 1 11 1zm0 1C5.486 2 1 6.486 1 12s4.486 10 10 10 10-4.486 10-10S16.514 2 11 2zm3.996 11.891a3.001 3.001 0 01-.938 5.926 2.984 2.984 0 01-1.958-1.2 2.979 2.979 0 01-.537-2.232 3.001 3.001 0 013.433-2.494zm-5.759.537a2.984 2.984 0 011.2 1.957 2.975 2.975 0 01-.537 2.232 2.984 2.984 0 01-2.434 1.237 2.966 2.966 0 01-1.58-.454l-.176-.119a3.004 3.004 0 01-.664-4.19 3.001 3.001 0 014.191-.663zm5.286.426c-.419 0-.826.132-1.172.383a1.988 1.988 0 00-.8 1.306 1.985 1.985 0 00.357 1.487c.314.433.778.717 1.306.8.468.077.937-.016 1.34-.258l.148-.098a2.003 2.003 0 00.443-2.794 1.983 1.983 0 00-1.305-.8 1.892 1.892 0 00-.317-.026zm-7.046 0a1.983 1.983 0 00-1.622.825 2.004 2.004 0 00.314 2.692l.129.102c.432.314.96.443 1.488.356a1.985 1.985 0 001.306-.8c.314-.432.441-.96.357-1.487a1.989 1.989 0 00-.8-1.306 1.988 1.988 0 00-1.172-.382zM11 10c1.103 0 2 .897 2 2s-.897 2-2 2-2-.897-2-2 .897-2 2-2zM6.221 7.293a2.982 2.982 0 011.746 1.491c.364.714.428 1.526.18 2.288a2.976 2.976 0 01-1.491 1.746 2.977 2.977 0 01-2.289.181 3.004 3.004 0 01-1.976-3.611l.05-.169a3.006 3.006 0 013.78-1.926zm13.28 1.76l.059.166a3.003 3.003 0 01-2.857 3.928c-.467 0-.931-.11-1.359-.329a2.973 2.973 0 01-1.491-1.746 2.975 2.975 0 01.18-2.288 2.982 2.982 0 011.746-1.491 3.007 3.007 0 013.722 1.76zM11 11a1.001 1.001 0 000 2 1.001 1.001 0 000-2zM3.392 9.527a2.003 2.003 0 001.284 2.521 2.005 2.005 0 002.52-1.284 1.982 1.982 0 00-.12-1.525 1.99 1.99 0 00-1.164-.995 2.004 2.004 0 00-2.52 1.283zm13.313-1.381a1.991 1.991 0 00-1.781 1.092 1.983 1.983 0 00-.12 1.525 2.003 2.003 0 002.521 1.284 2.004 2.004 0 001.284-2.521 2.006 2.006 0 00-1.904-1.38zM11 3c1.654 0 3 1.346 3 3s-1.346 3-3 3-3-1.346-3-3 1.346-3 3-3zm0 1c-1.103 0-2 .897-2 2s.897 2 2 2 2-.897 2-2-.897-2-2-2z" fill="currentColor" fill-rule="evenodd"></path>
  </symbol>
  <symbol xmlns="http://www.w3.org/2000/svg" viewBox="0 0 24 24" id="camera">
    <title>Icons / Mastercard / Things / camera</title>
    <path d="M14.767 3l2 3H21c1.103 0 2 .897 2 2v12c0 1.103-.897 2-2 2H3c-1.103 0-2-.897-2-2V8c0-1.103.897-2 2-2h3.232l2-3h6.535zm-.535 1H8.768l-2 3H3c-.551 0-1 .448-1 1v12c0 .552.449 1 1 1h18c.551 0 1-.448 1-1V8c0-.552-.449-1-1-1h-4.768l-2-3zM11.5 8c3.033 0 5.5 2.468 5.5 5.5S14.533 19 11.5 19A5.506 5.506 0 016 13.5C6 10.468 8.467 8 11.5 8zm0 1A4.505 4.505 0 007 13.5c0 2.481 2.019 4.5 4.5 4.5s4.5-2.019 4.5-4.5S13.981 9 11.5 9zM19 8c1.103 0 2 .897 2 2s-.897 2-2 2-2-.897-2-2 .897-2 2-2zm0 1a1.001 1.001 0 000 2 1.001 1.001 0 000-2z" fill="currentColor" fill-rule="evenodd"></path>
  </symbol>
  <symbol xmlns="http://www.w3.org/2000/svg" viewBox="0 0 24 24" id="donation">
    <title>Icons / Mastercard / Things / donation</title>
    <path d="M7.365 3.615l.707.706-5.779 5.794-.087.1a.997.997 0 00.087 1.316 1.025 1.025 0 001.414-.001l1.726-1.726a.622.622 0 01.68-.136.622.622 0 01.387.577v10.577a1.001 1.001 0 002 0v-8h1v9a1.001 1.001 0 002 0v-9h1v8a1.001 1.001 0 002 0v-8h1v6a1.001 1.001 0 002 0v-6.379l.994-.994.006 6.873v.5c0 1.103-.897 2-2 2-.366 0-.705-.106-1-.278v.278a2.002 2.002 0 01-3.12 1.656 1.995 1.995 0 01-1.88 1.344 1.995 1.995 0 01-1.88-1.344 2.002 2.002 0 01-3.12-1.656V11.15l-1.086 1.086c-.756.756-2.072.756-2.828 0A1.986 1.986 0 011 10.822c0-.534.208-1.036.586-1.414l.353-.354 5.426-5.439zM18.944 1c.951 0 1.844.37 2.515 1.042A3.534 3.534 0 0122.5 4.556c0 .95-.37 1.843-1.042 2.514L16.5 12.029 11.542 7.07A3.528 3.528 0 0110.5 4.556c0-.951.37-1.843 1.042-2.514A3.526 3.526 0 0114.056 1c.85 0 1.832.41 2.444.85.613-.439 1.595-.85 2.444-.85zm0 1c-.66 0-1.52.378-1.969.744a.744.744 0 01-.952-.001c-.448-.364-1.307-.742-1.967-.742-.683 0-1.325.266-1.807.749a2.535 2.535 0 00-.749 1.806c0 .682.266 1.324.749 1.807l4.251 4.252 4.251-4.252a2.536 2.536 0 00.749-1.807c0-.683-.266-1.324-.749-1.807A2.536 2.536 0 0018.944 2z" fill="currentColor" fill-rule="evenodd"></path>
  </symbol>
  <symbol xmlns="http://www.w3.org/2000/svg" viewBox="0 0 24 24" id="proof-of-age">
    <title>Icons / Mastercard / Things / proof of age</title>
    <path d="M20.5 21h-17C1.57 21 0 19.43 0 17.5v-11C0 4.57 1.57 3 3.5 3h17C22.43 3 24 4.57 24 6.5v11c0 1.93-1.57 3.5-3.5 3.5zM3.5 4A2.503 2.503 0 001 6.5v11C1 18.879 2.122 20 3.5 20h17c1.378 0 2.5-1.121 2.5-2.5v-11C23 5.121 21.878 4 20.5 4h-17zm3.191 10.116v-3.938l-1.611.579v-.946l2.541-.904v5.21h1.44V15h-3.9v-.883h1.53v-.001zM12 8.897c.294 0 .572.038.833.115.262.077.489.189.682.337.193.148.345.327.458.54.113.213.169.453.169.722 0 .175-.023.332-.071.474a1.32 1.32 0 01-.195.379c-.083.111-.181.21-.293.294a2.026 2.026 0 01-.362.216c.146.058.284.128.414.213.13.084.243.184.339.298a1.334 1.334 0 01.31.887c0 .271-.06.514-.18.729-.12.214-.283.396-.491.544a2.34 2.34 0 01-.726.341 3.26 3.26 0 01-.887.118c-.314 0-.61-.04-.887-.118a2.324 2.324 0 01-.727-.341 1.661 1.661 0 01-.49-.544 1.467 1.467 0 01-.18-.729 1.337 1.337 0 01.31-.887c.096-.115.208-.214.336-.298.128-.085.267-.155.416-.213a2.099 2.099 0 01-.362-.216 1.408 1.408 0 01-.293-.294 1.32 1.32 0 01-.195-.379 1.498 1.498 0 01-.07-.474c0-.269.056-.509.169-.722.113-.213.266-.393.458-.54.192-.147.419-.26.679-.337.26-.077.539-.115.836-.115zm0 3.493c-.177 0-.345.021-.503.06-.158.04-.296.1-.414.179a.887.887 0 00-.278.291.773.773 0 00-.103.4c0 .151.035.284.103.398.068.114.161.21.278.287.117.077.255.136.414.176a2.057 2.057 0 001.004 0c.157-.04.294-.099.412-.176a.885.885 0 00.278-.287.763.763 0 00.103-.398.773.773 0 00-.103-.4.897.897 0 00-.278-.291 1.299 1.299 0 00-.412-.179 2.023 2.023 0 00-.501-.06zm0-2.627c-.16 0-.31.02-.45.059a1.16 1.16 0 00-.369.171.844.844 0 00-.249.28.803.803 0 00-.09.386c0 .151.03.284.09.398.06.114.143.21.249.287.106.077.229.136.369.174.14.039.29.058.45.058.16 0 .311-.019.452-.058.142-.038.264-.097.369-.174a.82.82 0 00.341-.685.795.795 0 00-.341-.666 1.12 1.12 0 00-.369-.171A1.651 1.651 0 0012 9.763zm4.727 4.756v-1.521h-1.513v-.813h1.513v-1.521h.832v1.521h1.512v.813h-1.512v1.521h-.832z" fill="currentColor" fill-rule="evenodd"></path>
  </symbol>
  <symbol xmlns="http://www.w3.org/2000/svg" viewBox="0 0 24 24" id="sports-tennis">
    <title>Icons / Mastercard / Things / sports tennis</title>
    <path d="M19.925 5.075c4.094 4.094 4.094 10.756 0 14.85a10.467 10.467 0 01-7.425 3.07 10.467 10.467 0 01-7.425-3.07C1.055 15.905.982 9.406 4.86 5.297l.215-.222c4.094-4.094 10.756-4.094 14.85 0zm-13.93.501l-.157.153c3.292 3.897 3.292 9.645 0 13.542l-.056-.053c3.688 3.686 9.675 3.705 13.384.051-3.289-3.897-3.289-9.641 0-13.537l.052.05c-3.635-3.633-9.504-3.704-13.224-.206zm-.838.897l-.15.185c-2.72 3.483-2.67 8.44.149 11.87A9.43 9.43 0 007.312 12.5c0-2.225-.76-4.332-2.155-6.027zm14.69.003l-.03.037a9.43 9.43 0 00-2.123 5.987c0 2.223.758 4.33 2.153 6.024 2.865-3.489 2.865-8.558 0-12.048z" fill="currentColor" fill-rule="evenodd"></path>
  </symbol>
  <symbol xmlns="http://www.w3.org/2000/svg" viewBox="0 0 24 24" id="sports-football">
    <title>Icons / Mastercard / Things / sports football</title>
    <path d="M12.5 5c2.472 0 4.874.626 6.763 1.761.21.126.416.258.613.396l.247.18C21.981 8.734 23 10.558 23 12.5c0 2.026-1.109 3.924-3.124 5.342-.197.138-.403.27-.614.396C17.374 19.374 14.972 20 12.5 20c-2.472 0-4.874-.626-6.763-1.761a10.02 10.02 0 01-.612-.396C3.11 16.424 2 14.526 2 12.5s1.11-3.924 3.125-5.343c.197-.137.402-.269.613-.395C7.626 5.626 10.028 5 12.5 5zm0 1c-2.293 0-4.512.575-6.247 1.62a9.022 9.022 0 00-.553.356C3.959 9.201 3 10.809 3 12.5c0 1.691.959 3.299 2.701 4.525.176.124.361.242.551.356C7.988 18.425 10.207 19 12.5 19s4.512-.575 6.248-1.62c.191-.114.376-.232.553-.356C21.042 15.799 22 14.191 22 12.5c0-1.691-.958-3.299-2.7-4.525a8.97 8.97 0 00-.551-.356C17.012 6.575 14.793 6 12.5 6zM18 8.36c.075.043.161.073.235.118.169.101.334.206.491.316.096.068.182.141.273.211v6.99c-.09.07-.176.143-.273.211-.157.11-.322.214-.494.318-.072.044-.157.074-.232.116zm-11 0v8.28c-.075-.043-.161-.073-.235-.118a7.885 7.885 0 01-.489-.315c-.097-.069-.184-.142-.276-.213V9.005c.091-.07.177-.143.274-.211.157-.11.322-.215.495-.318.072-.044.157-.074.231-.116zM10 11v1h2v-1h1v1h2v-1h1v1h1v1h-1v1h-1v-1h-2v1h-1v-1h-2v1H9v-1H8v-1h1v-1h1z" fill="currentColor" fill-rule="evenodd"></path>
  </symbol>
  <symbol xmlns="http://www.w3.org/2000/svg" viewBox="0 0 24 24" id="culture">
    <title>Icons / Mastercard / Things / culture</title>
    <path d="M11.833 8C12.917 8 14 9 14 10v8c0 4-6.5 5-6.5 5S1 22 1 18v-8c0-1 1.083-2 2.167-2 1.071 0 2.165.5 4.333.5 1.629 0 3.25-.5 4.333-.5zm0 1c-.402 0-.969.096-1.57.198-.835.141-1.781.302-2.763.302-1.367 0-2.333-.184-3.108-.332C3.902 9.074 3.515 9 3.167 9 2.603 9 2 9.587 2 10v8c0 2.758 4.595 3.804 5.5 3.983.902-.178 5.5-1.225 5.5-3.983v-8c0-.413-.603-1-1.167-1zM7.5 17c.828 0 1.578.336 2.122.878l-.708.708a1.997 1.997 0 00-2.827.001l-.708-.708A2.99 2.99 0 017.5 17zM20.833 1C21.917 1 23 2 23 3v8c0 4-6.5 5-6.5 5s-.631-.097-1.5-.352v-1.057c.672.215 1.24.341 1.5.392.902-.178 5.5-1.225 5.5-3.983V3c0-.413-.603-1-1.167-1-.402 0-.969.096-1.57.198-.835.141-1.781.302-2.763.302-1.367 0-2.333-.184-3.108-.332-.49-.094-.877-.168-1.225-.168C11.603 2 11 2.587 11 3v4.064c-.32.04-.654.092-1 .151V3c0-1 1.083-2 2.167-2 1.071 0 2.165.5 4.333.5 1.629 0 3.25-.5 4.333-.5zM4 12c0 .551.449 1 1 1 .551 0 1-.449 1-1h1a2 2 0 11-4 0zm5 0c0 .551.449 1 1 1 .551 0 1-.449 1-1h1a2 2 0 11-4 0zm8.914-2l.708.708a2.99 2.99 0 01-2.121.879 2.99 2.99 0 01-2.121-.879l.706-.708a1.997 1.997 0 002.828 0zM14 5a2 2 0 012 2h-1c0-.551-.449-1-1-1-.551 0-1 .449-1 1h-1a2 2 0 012-2zm5 0a2 2 0 012 2h-1c0-.551-.449-1-1-1-.551 0-1 .449-1 1h-1a2 2 0 012-2z" fill="currentColor" fill-rule="evenodd"></path>
  </symbol>
  <symbol xmlns="http://www.w3.org/2000/svg" viewBox="0 0 24 24" id="airplane-landing">
    <title>Icons / Mastercard / Things / airplane landing</title>
    <path d="M16.361 12.37l-1.32-5.692a3.918 3.918 0 00-2.346-2.862L10 2.7v7.036L6.261 8.188 5.179 5.574l-2.155-.892a.75.75 0 00-1.037.694L2 11.834l5.805 2.405-4.834 5.573 2.592 1.074c.434.18.889.269 1.342.269a3.5 3.5 0 001.994-.627l5.267-3.655 4.774 1.978a2.502 2.502 0 003.266-1.354l.079-.191-1.241-2.996-4.683-1.94zm-2.298-5.481l1.162 5.011L11 10.15V4.196l1.312.544a2.922 2.922 0 011.751 2.149zM8.328 19.706a2.49 2.49 0 01-2.382.257l-1.311-.543 4.144-4.777 4.287 1.775-4.738 3.288zm10.993-1.779l-5.911-2.449L3 11.166l-.012-5.417 1.425.591 1.083 2.613 14.782 6.122.917 2.214a1.505 1.505 0 01-1.874.638z" fill="currentColor" fill-rule="evenodd"></path>
  </symbol>
  <symbol xmlns="http://www.w3.org/2000/svg" viewBox="0 0 24 24" id="benefit">
    <title>Icons / Mastercard / Things / benefit</title>
    <path d="M17.874 5.71l-1 1H3v14h15V9.826l1-1V21.71H2v-16h15.874zM21.998 3l.707.707-13.71 13.71-4.204-4.204.707-.707 3.497 3.497L21.998 3z" fill="currentColor" fill-rule="evenodd"></path>
  </symbol>
  <symbol xmlns="http://www.w3.org/2000/svg" viewBox="0 0 24 24" id="sports-skiing">
    <title>Icons / Mastercard / Things / sports skiing</title>
    <path d="M22.268 22.06l.707.707-.354.354A2.98 2.98 0 0120.5 24H12v-1h8.5c.534 0 1.036-.208 1.414-.586l.354-.354zM3.075 16.404l6.011 6.01c.377.378.88.586 1.414.586h.5v1h-.5a2.976 2.976 0 01-2.121-.879l-6.011-6.01.707-.707zM15.707 15l.523.524A5.996 5.996 0 0118 19.795V22h-1v-2.205a5.007 5.007 0 00-1.477-3.565L14.293 15h1.414zM22 11v7h1v1h-1v1h-1v-1h-1v-1h1v-7h1zm-9.036 4l-4.939 4.939-.707-.707L11.55 15h1.414zm-9.85-6.135l4.95 4.949.707-.707.707.707-.707.708.707.707-.707.707-.707-.707-.707.707-.707-.707.707-.708-4.95-4.949.707-.707zm12.528-2.191a.59.59 0 01.601.593c0 3.403 2.989 5.288 3.019 5.307l.425.262-.522.851-.426-.26c-.099-.06-1.741-1.088-2.739-3.037V14h-5V8.207l-3.5 3.5L6.793 11l4.14-4.139a.618.618 0 01.68-.136.622.622 0 01.387.577V13h3V7.302c0-.346.288-.627.642-.628zM13.5 1C14.878 1 16 2.121 16 3.5S14.878 6 13.5 6A2.503 2.503 0 0111 3.5C11 2.121 12.122 1 13.5 1zm0 1c-.827 0-1.5.673-1.5 1.5S12.673 5 13.5 5 15 4.327 15 3.5 14.327 2 13.5 2z" fill="currentColor" fill-rule="evenodd"></path>
  </symbol>
  <symbol xmlns="http://www.w3.org/2000/svg" viewBox="0 0 24 24" id="film-2">
    <title>Icons / Mastercard / Things / film 2</title>
    <path d="M20 11v2.933l3.063-1.758a.626.626 0 01.937.542v9.566a.626.626 0 01-.936.542L20 21.046V24H0V11h20zm-1 1H1v11h18v-3.69l4 2.322v-8.268l-4 2.295V12zM14 0c2.757 0 5 2.243 5 5s-2.243 5-5 5c-1.988 0-3.695-1.175-4.5-2.86C8.695 8.825 6.988 10 5 10c-2.757 0-5-2.243-5-5s2.243-5 5-5c1.988 0 3.695 1.175 4.5 2.86C10.305 1.175 12.012 0 14 0zm0 1c-2.206 0-4 1.794-4 4s1.794 4 4 4 4-1.794 4-4-1.794-4-4-4zM5 1C2.794 1 1 2.794 1 5s1.794 4 4 4 4-1.794 4-4-1.794-4-4-4z" fill="currentColor" fill-rule="evenodd"></path>
  </symbol>
  <symbol xmlns="http://www.w3.org/2000/svg" viewBox="0 0 24 24" id="voice-recording-2">
    <title>Icons / Mastercard / Things / voice recording 2</title>
    <path d="M9.994 5v14h-1V5h1zm8 3v9h-1V8h1zm-2 1v7h-1V9h1zm-8-1v8h-1V8h1zm4 0v8h-1V8h1zm-8 2v5h-1v-5h1zm17.99 0v5h-1v-5h1zm-15.99 1v3h-1v-3h1zM2 11v3H1v-3h1zm17.994 0v3h-1v-3h1zM24 11v3h-1v-3h1zm-10.006 0v3h-1v-3h1z" fill="currentColor" fill-rule="evenodd"></path>
  </symbol>
  <symbol xmlns="http://www.w3.org/2000/svg" viewBox="0 0 24 24" id="airplane-takeoff">
    <title>Icons / Mastercard / Things / airplane takeoff</title>
    <path d="M23.592 7.035l-.069-.195-2.926-1.396-4.613 1.633-4.789-3.347a3.916 3.916 0 00-3.659-.558l-2.75.975 4.708 5.229-3.979 1.409-2.554-1.218-2.198.778a.75.75 0 00-.307 1.21l4.332 4.791 6.211-2.2v7.426l2.658-.94a3.485 3.485 0 002.238-2.499l1.468-6.24 4.707-1.666a2.502 2.502 0 001.522-3.192zM6.53 4.591l1.34-.475a2.925 2.925 0 012.739.425l4.217 2.947-4.311 1.527L6.53 4.591zm8.393 13.313a2.487 2.487 0 01-1.599 1.784l-1.324.47v-6.365l4.244-1.503-1.321 5.614zm6.814-8.621L5.083 15.181 1.45 11.163l1.454-.516 2.553 1.218L20.54 6.524l2.163 1.032a1.502 1.502 0 01-.966 1.727z" fill="currentColor" fill-rule="evenodd"></path>
  </symbol>
  <symbol xmlns="http://www.w3.org/2000/svg" viewBox="0 0 24 24" id="bicycle">
    <title>Icons / Mastercard / Things / bicycle</title>
    <path d="M19 10c-.316 0-.622.037-.922.093L17 6.428V6h2.5a.618.618 0 010 1.235H19v1h.5a1.62 1.62 0 001.618-1.618A1.62 1.62 0 0019.5 5H16v1.5l.438 1.5H8.86l-.666-2h1.542V5H5.265v1H7.14L8 8.581l-1.02 1.832A4.973 4.973 0 005 10c-2.757 0-5 2.243-5 5s2.243 5 5 5 5-2.243 5-5a4.99 4.99 0 00-2.148-4.096L8.912 9h7.818l.4 1.371A5.001 5.001 0 0014 15c0 2.757 2.243 5 5 5s5-2.243 5-5-2.243-5-5-5zM9 15c0 2.206-1.794 4-4 4s-4-1.794-4-4 1.794-4 4-4c.527 0 1.029.108 1.49.294l-1.927 3.462.874.486 1.923-3.456A3.991 3.991 0 019 15zm10 4c-2.206 0-4-1.794-4-4a4 4 0 012.41-3.666l1.111 3.807.959-.281-1.116-3.795c.208-.034.418-.065.636-.065 2.206 0 4 1.794 4 4s-1.794 4-4 4z" fill="currentColor" fill-rule="evenodd"></path>
  </symbol>
  <symbol xmlns="http://www.w3.org/2000/svg" viewBox="0 0 24 24" id="idea">
    <title>Icons / Mastercard / Things / idea</title>
    <path d="M15 18v5H9v-5h6zm-1 3h-4v1h4v-1zm0-2h-4v1h4v-1zM12 2c3.86 0 7 3.18 7 7.088a7.123 7.123 0 01-2.428 5.366C15.235 15.623 15 16.207 15 17h-1c0-1.215.483-2.047 1.914-3.298A6.123 6.123 0 0018 9.088C18 5.731 15.309 3 12 3S6 5.731 6 9.088c0 1.773.76 3.455 2.086 4.614C9.517 14.953 10 15.785 10 17H9c0-.793-.235-1.377-1.572-2.546A7.12 7.12 0 015 9.088C5 5.18 8.14 2 12 2z" fill="currentColor" fill-rule="evenodd"></path>
  </symbol>
  <symbol xmlns="http://www.w3.org/2000/svg" viewBox="0 0 24 24" id="exclusive-2">
    <title>Icons / Mastercard / Things / exclusive 2</title>
    <path d="M22 19v4H2v-4h20zm-1 1H3v2h18v-2zM3 1a3.97 3.97 0 012.828 1.172A3.972 3.972 0 017 5c0 .9-.295 1.755-.84 2.453l2.09 2.09 1.355-1.355A3.974 3.974 0 018 5c0-2.206 1.794-4 4-4s4 1.794 4 4a3.974 3.974 0 01-1.605 3.188l1.355 1.355 2.09-2.09A3.966 3.966 0 0117 5c0-1.069.417-2.074 1.172-2.828A3.97 3.97 0 0121 1h1v17H2V1zm18 1c-.801 0-1.555.312-2.121.879A2.976 2.976 0 0018 5c0 .802.312 1.555.879 2.12l.354.354-3.483 3.482-2.989-2.989.607-.314A2.983 2.983 0 0015 5c0-1.654-1.346-3-3-3S9 3.346 9 5c0 1.116.625 2.133 1.632 2.654l.607.314-2.989 2.989-3.483-3.482.354-.354A2.976 2.976 0 006 5c0-.802-.312-1.555-.879-2.121A2.978 2.978 0 003 2v15h18z" fill="currentColor" fill-rule="evenodd"></path>
  </symbol>
  <symbol xmlns="http://www.w3.org/2000/svg" viewBox="0 0 24 24" id="voice-recording-1">
    <title>Icons / Mastercard / Things / voice recording 1</title>
    <path d="M7 11v1.5c0 3.033 2.467 5.5 5.5 5.5s5.5-2.467 5.5-5.5V11h1v1.5a6.497 6.497 0 01-6 6.475V22h4v1H8v-1h4v-3.025A6.497 6.497 0 016 12.5V11h1zm5.5-10A3.5 3.5 0 0116 4.5v8a3.5 3.5 0 11-7 0v-8A3.5 3.5 0 0112.5 1zm0 1A2.502 2.502 0 0010 4.5v8c0 1.379 1.121 2.5 2.5 2.5s2.5-1.121 2.5-2.5v-8C15 3.121 13.879 2 12.5 2z" fill="currentColor" fill-rule="evenodd"></path>
  </symbol>
  <symbol xmlns="http://www.w3.org/2000/svg" viewBox="0 0 24 24" id="gift">
    <title>Icons / Mastercard / Things / gift</title>
    <path d="M23 5h-4.512c.317-.419.512-.935.512-1.5A2.5 2.5 0 0016.504 1a2.52 2.52 0 00-1.597.582l-2.909 2.94-2.95-2.979A2.493 2.493 0 005.512 5H1v5h2v13h18V10h2V5zm-7.425-2.676c.266-.212.588-.324.929-.324a1.5 1.5 0 010 3h-3.572l2.643-2.676zM11 6h2v3h-2V6zM6 3.5A1.5 1.5 0 017.496 2c.341 0 .663.112.886.285L11.067 5H7.496A1.5 1.5 0 016 3.5zM2 6h8v3H2V6zm2 16V10h6v12H4zm7 0V10h2v12h-2zm9 0h-6V10h6v12zm2-13h-8V6h8v3z" fill="currentColor" fill-rule="evenodd"></path>
  </symbol>
  <symbol xmlns="http://www.w3.org/2000/svg" viewBox="0 0 24 24" id="exclusive-1">
    <title>Icons / Mastercard / Things / exclusive 1</title>
    <path d="M14 15l5 8H5l5-8h4zm-.554 1h-2.892l-3.75 6h10.392l-3.75-6zM21 1a2 2 0 01.501 3.937L21.5 18H23v1h-4v-1h1.5V6.194a14.27 14.27 0 01-8.086 2.8L12 9C8.814 9 5.881 7.95 3.5 6.194V18H5v1H1v-1h1.5V4.937a2 2 0 01-1.495-1.788L1 3a2 2 0 112.501 1.937A13.285 13.285 0 0012 8c3.227 0 6.189-1.151 8.5-3.062A2.002 2.002 0 0121 1zM3 2c-.551 0-1 .449-1 1 0 .551.449 1 1 1 .551 0 1-.449 1-1 0-.551-.449-1-1-1zm18 0c-.551 0-1 .449-1 1 0 .551.449 1 1 1 .551 0 1-.449 1-1 0-.551-.449-1-1-1z" fill="currentColor" fill-rule="evenodd"></path>
  </symbol>
  <symbol xmlns="http://www.w3.org/2000/svg" viewBox="0 0 24 24" id="insurance">
    <title>Icons / Mastercard / Things / insurance</title>
    <path d="M13 2.025V1h-1v1.025C5.891 2.29 1 7.328 1 13.5v.5h1c0-1.654 1.346-3 3-3s3 1.346 3 3h1c0-1.518 1.518-2.721 3-2.952V20c0 1.654 1.346 3 3 3s3-1.346 3-3h-1c0 1.103-.897 2-2 2s-2-.897-2-2v-8.952c1.482.231 3 1.434 3 2.952h1c0-1.654 1.346-3 3-3s3 1.346 3 3h1v-.5c0-6.172-4.891-11.21-11-11.475zM20 10a4.004 4.004 0 00-3.55 2.158C15.624 10.852 13.999 10 12.5 10s-3.124.852-3.95 2.158A4.004 4.004 0 005 10a3.975 3.975 0 00-2.705 1.072C3.395 6.451 7.547 3 12.5 3s9.105 3.451 10.205 8.072A3.975 3.975 0 0020 10z" fill="currentColor" fill-rule="evenodd"></path>
  </symbol>
  <symbol xmlns="http://www.w3.org/2000/svg" viewBox="0 0 24 24" id="wheelchair">
    <title>Icons / Mastercard / Things / wheelchair</title>
    <path d="M20.368 21l-2.5-8H9.963l-1-13H4v1h4.037l.396 5.146C4.168 6.896 1 10.623 1 15c0 4.963 4.038 9 9 9a8.949 8.949 0 008.43-5.846L19.632 22H24v-1h-3.632zM10 23c-4.411 0-8-3.589-8-8 0-3.858 2.768-7.147 6.51-7.854L9.037 14h8.095l.745 2.383A7.958 7.958 0 0110 23z" fill="currentColor" fill-rule="evenodd"></path>
  </symbol>
  <symbol xmlns="http://www.w3.org/2000/svg" viewBox="0 0 24 24" id="car">
    <title>Icons / Mastercard / Things / car</title>
    <path d="M18 20v.5c0 .827.673 1.5 1.5 1.5s1.5-.673 1.5-1.5V20h1v.5c0 1.379-1.122 2.5-2.5 2.5a2.503 2.503 0 01-2.5-2.5V20h1zM3 20v.5c0 .827.673 1.5 1.5 1.5S6 21.327 6 20.5V20h1v.5C7 21.879 5.878 23 4.5 23A2.503 2.503 0 012 20.5V20h1zm17.5-10c1.378 0 2.5 1.121 2.5 2.5V19H1v-6.5C1 11.121 2.122 10 3.5 10h17zm0 1h-17c-.827 0-1.5.673-1.5 1.5V18h20v-5.5c0-.827-.673-1.5-1.5-1.5zM5 12c1.103 0 2 .897 2 2s-.897 2-2 2-2-.897-2-2 .897-2 2-2zm14 0c1.103 0 2 .897 2 2s-.897 2-2 2-2-.897-2-2 .897-2 2-2zM5 13a1.001 1.001 0 000 2 1.001 1.001 0 000-2zm14 0a1.001 1.001 0 000 2 1.001 1.001 0 000-2zm-3 1v1H8v-1h8zm1.5-12c1.088 0 2.043.787 2.379 1.958L21.319 9h-1.04l-1.362-4.767C18.706 3.495 18.137 3 17.5 3h-11c-.637 0-1.206.495-1.417 1.233L3.721 9h-1.04l1.441-5.042C4.457 2.787 5.412 2 6.5 2z" fill="currentColor" fill-rule="evenodd"></path>
  </symbol>
  <symbol xmlns="http://www.w3.org/2000/svg" viewBox="0 0 24 24" id="device-tv">
    <title>Icons / Mastercard / Things / device tv</title>
    <path d="M21 21v1H3v-1h18zM5 18v2H4v-2h1zm15 0v2h-1v-2h1zm1-15c1.1 0 2 .9 2 2v10c0 1.1-.9 2-2 2H3c-1.1 0-2-.9-2-2V5c0-1.1.9-2 2-2zm0 1H3c-.551 0-1 .449-1 1v10c0 .551.449 1 1 1h18c.551 0 1-.449 1-1V5c0-.551-.449-1-1-1zm0 1v10H3V5h18zm-1 1H4v8h16V6z" fill="currentColor" fill-rule="evenodd"></path>
  </symbol>
  <symbol xmlns="http://www.w3.org/2000/svg" viewBox="0 0 24 24" id="e-sports">
    <title>Icons / Mastercard / Things / e-sports</title>
    <path d="M17.5 12a5.5 5.5 0 11-4.242 9h-2.515A5.5 5.5 0 116.5 12zm0 1h-11A4.505 4.505 0 002 17.5C2 19.981 4.019 22 6.5 22a4.487 4.487 0 003.471-1.637l.3-.363h3.457l.3.363A4.49 4.49 0 0017.5 22c2.481 0 4.5-2.019 4.5-4.5S19.981 13 17.5 13zm.5 6v1h-1v-1h1zM7 18v2H6v-2h1zm9-1v1h-1v-1h1zm4 0v1h-1v-1h1zM6 17v1H4v-1h2zm3 0v1H7v-1h2zm-2-2v2H6v-2h1zm11 0v1h-1v-1h1zm3-14v1c-2.256 0-2.5 2.098-2.5 3 0 2.43-1.374 4-3.5 4-1.939 0-2.5.448-2.5 2h-1c0-2.637 1.682-3 3.5-3 2.256 0 2.5-2.098 2.5-3 0-2.43 1.374-4 3.5-4z" fill="currentColor" fill-rule="evenodd"></path>
  </symbol>
  <symbol xmlns="http://www.w3.org/2000/svg" viewBox="0 0 24 24" id="photo">
    <title>Icons / Mastercard / Things / photo</title>
    <path d="M24 3v18H0V3h24zm-1 1H1v16h22V4zM9 7l5 7 2-3 5 7H3L9 7zm.114 1.88L4.685 17h14.372l-3.028-4.24-2 3-.842-1.179L9.114 8.88zM18.5 6a2.5 2.5 0 110 5 2.5 2.5 0 010-5zm0 1c-.827 0-1.5.673-1.5 1.5s.673 1.5 1.5 1.5S20 9.327 20 8.5 19.327 7 18.5 7z" fill="currentColor" fill-rule="evenodd"></path>
  </symbol>
  <symbol xmlns="http://www.w3.org/2000/svg" viewBox="0 0 24 24" id="basketball">
    <title>Icons / Mastercard / Things / basketball</title>
    <path d="M19.925 5.075C15.831.981 9.169.981 5.075 5.075c-4.094 4.094-4.094 10.756 0 14.85a10.467 10.467 0 007.425 3.07c2.689 0 5.378-1.023 7.425-3.07 4.094-4.094 4.094-10.756 0-14.85zM13 12.003V3.028a9.453 9.453 0 016.17 2.711 10.441 10.441 0 00-2.447 6.264H13zm-1 0H8.283a10.44 10.44 0 00-2.45-6.267A9.449 9.449 0 0112 3.028v8.975zm-4.712 0h-4.26a9.457 9.457 0 012.129-5.529 9.409 9.409 0 012.131 5.529zm0 1a9.412 9.412 0 01-2.13 5.523 9.46 9.46 0 01-2.129-5.523h4.259zm.995 0H12v8.969a9.454 9.454 0 01-6.167-2.708 10.45 10.45 0 002.45-6.261zm4.717 0h3.723a10.452 10.452 0 002.447 6.258A9.448 9.448 0 0113 21.972v-8.969zm4.719 0h4.253a9.46 9.46 0 01-2.125 5.519 9.405 9.405 0 01-2.128-5.519zm0-1a9.407 9.407 0 012.128-5.525 9.458 9.458 0 012.126 5.525h-4.254z" fill="currentColor" fill-rule="evenodd"></path>
  </symbol>
  <symbol xmlns="http://www.w3.org/2000/svg" viewBox="0 0 24 24" id="components">
    <title>Icons / Mastercard / Things / components</title>
    <path d="M15 13.996V21H8.5v-7.004H15zm-7.5 0V21H1v-7.004h6.5zM23 3v18h-7V3h7zm-9 11.996H9.5V20H14v-5.004zm-7.5 0H2V20h4.5v-5.004zM22 4h-5v16h5V4zm-7-1v10H1V3h14zm-1 1H2v8h12V4z" fill="currentColor" fill-rule="evenodd"></path>
  </symbol>
  <symbol xmlns="http://www.w3.org/2000/svg" viewBox="0 0 24 24" id="convenience">
    <title>Icons / Mastercard / Things / convenience</title>
    <path d="M14.847 5.594a2.004 2.004 0 012.829 0 2.003 2.003 0 010 2.828l-.353.354-1.269 1.269c.339.083.66.245.915.5a1.983 1.983 0 01.381 2.28c.379.073.741.255 1.034.548.62.62.738 1.548.371 2.295a1.95 1.95 0 011.043.533c.378.378.586.88.586 1.414a1.97 1.97 0 01-.585 1.41l-2.472 2.473c-.391.39-.903.585-1.415.585a1.993 1.993 0 01-1.794-2.865 1.993 1.993 0 01-1.033-.548 1.995 1.995 0 01-.38-2.28 1.987 1.987 0 01-1.034-.548 1.986 1.986 0 01-.586-1.414c0-.535.208-1.037.586-1.414l.009-.01 5.291-5.29.083-.094a1.001 1.001 0 00-1.498-1.32l-7.479 7.479a.616.616 0 01-.68.136.622.622 0 01-.387-.577v-2.44a.994.994 0 00-.293-.708 1.025 1.025 0 00-1.414 0 .994.994 0 00-.293.708v.5L5 19.082l-1-.002.008-7.793v-.39c0-.534.208-1.036.586-1.414.754-.754 2.074-.754 2.828 0 .378.378.586.88.586 1.415v1.534zm4.244 11.312a1.023 1.023 0 00-1.414 0l-1.411 1.412-.354.354-.708.708a.995.995 0 00-.292.707 1 1 0 001.707.707l2.12-2.122.236-.235.117-.117.087-.1a.993.993 0 00.205-.607.993.993 0 00-.293-.707zm-1.411-2.828a1 1 0 00-1.415 0l-1.766 1.766-.354.354-.354.354a1.004 1.004 0 00-.002 1.415c.389.39 1.024.39 1.415 0l1.412-1.412.354-.354.356-.355.354-.354a1 1 0 000-1.414zm-1.418-2.827a1.025 1.025 0 00-1.415 0l-2.119 2.119h.001l-.354.354a.993.993 0 00-.292.707c0 .266.105.517.291.708a1.023 1.023 0 001.414 0l.353-.354 2.12-2.12a.993.993 0 00.293-.707.993.993 0 00-.292-.707zM8 6.08v1H5v-1h3zM7.933 2l1.5 2.597-.866.5-1.5-2.598.866-.5zm4.134 0l.866.5-1.5 2.598-.866-.5L12.067 2z" fill="currentColor" fill-rule="evenodd"></path>
  </symbol>
  <symbol xmlns="http://www.w3.org/2000/svg" viewBox="0 0 24 24" id="help">
    <title>Icons / Mastercard / Things / help</title>
    <path d="M12.5 2C6.71 2 2 6.71 2 12.5S6.71 23 12.5 23 23 18.29 23 12.5 18.29 2 12.5 2zm9.37 9h-4.872A4.74 4.74 0 0014 8.003V3.13A9.51 9.51 0 0121.87 11zm.13 1.5c0 .169-.017.333-.025.5h-4.763c.018-.167.05-.329.05-.5 0-.171-.033-.333-.05-.5h4.763c.008.167.025.331.025.5zm-9.5 3.762A3.767 3.767 0 018.738 12.5 3.767 3.767 0 0112.5 8.738a3.767 3.767 0 013.762 3.762 3.767 3.767 0 01-3.762 3.762zM13 3.025v4.763c-.167-.018-.329-.05-.5-.05-.171 0-.333.033-.5.05V3.025c.167-.008.331-.025.5-.025.169 0 .333.017.5.025zm-2 .105v4.872A4.74 4.74 0 008.003 11H3.13A9.51 9.51 0 0111 3.13zM3 12.5c0-.169.017-.333.025-.5h4.763c-.018.167-.05.329-.05.5 0 .171.033.333.05.5H3.025c-.008-.167-.025-.331-.025-.5zm.13 1.5h4.872a4.738 4.738 0 002.997 2.997v4.872A9.507 9.507 0 013.13 14zM12 21.975v-4.763c.167.018.329.05.5.05.171 0 .333-.033.5-.05v4.763c-.167.008-.331.025-.5.025-.169 0-.333-.017-.5-.025zm2-.105v-4.872a4.738 4.738 0 002.997-2.997h4.872A9.507 9.507 0 0114 21.87z" fill="currentColor" fill-rule="evenodd"></path>
  </symbol>
  <symbol xmlns="http://www.w3.org/2000/svg" viewBox="0 0 24 24" id="baggage">
    <title>Icons / Mastercard / Things / baggage</title>
    <path d="M19.5 5C21.43 5 23 6.57 23 8.5v10c0 1.93-1.57 3.5-3.5 3.5h-15C2.57 22 1 20.43 1 18.5v-10C1 6.57 2.57 5 4.5 5h15zm0 1h-15A2.503 2.503 0 002 8.5v10C2 19.879 3.122 21 4.5 21h15c1.378 0 2.5-1.121 2.5-2.5v-10C22 7.121 20.878 6 19.5 6zM17 8v11h-1V8h1zM8 8v11H7V8h1zm9.5-6a.5.5 0 01.5.5V4h-1V3H7v1H6V2.5a.5.5 0 01.5-.5h11z" fill="currentColor" fill-rule="evenodd"></path>
  </symbol>
  <symbol xmlns="http://www.w3.org/2000/svg" viewBox="0 0 24 24" id="loyalty">
    <title>Icons / Mastercard / Things / loyalty</title>
    <path d="M21.507 1C22.331 1 23 1.673 23 2.5v9.192c0 .4-.155.776-.437 1.06l-9.888 9.96c-.281.284-.657.44-1.056.44s-.774-.156-1.057-.44L1.436 13.52a1.508 1.508 0 010-2.119l9.888-9.96A1.477 1.477 0 0112.381 1h9.126zm0 1h-9.126a.485.485 0 00-.347.146l-9.888 9.96a.503.503 0 000 .709l9.126 9.192a.498.498 0 00.694 0l9.888-9.96a.502.502 0 00.146-.355V2.5c0-.275-.221-.5-.493-.5zm-7.442 6.5c.951 0 1.844.37 2.515 1.042a3.53 3.53 0 011.041 2.514c0 .951-.37 1.843-1.042 2.514l-4.958 4.958-4.958-4.959a3.53 3.53 0 01-1.042-2.514c0-.95.37-1.842 1.042-2.514A3.532 3.532 0 019.177 8.5c.85 0 1.832.41 2.444.85.613-.439 1.595-.85 2.444-.85zm0 1c-.66 0-1.52.378-1.969.744a.744.744 0 01-.952-.001c-.448-.365-1.307-.743-1.967-.743-.683 0-1.324.266-1.807.749a2.536 2.536 0 00-.749 1.807c0 .683.266 1.324.749 1.807l4.251 4.252 4.251-4.252a2.536 2.536 0 00.749-1.807c0-.683-.266-1.324-.749-1.807a2.534 2.534 0 00-1.807-.749zm6.332-5.913a2.012 2.012 0 010 2.826A1.974 1.974 0 0118.989 7a1.974 1.974 0 01-1.408-.587 2.012 2.012 0 010-2.826c.751-.756 2.063-.757 2.816 0zM18.989 4a.976.976 0 00-.698.292 1.007 1.007 0 000 1.416 1.002 1.002 0 001.396 0 1.007 1.007 0 000-1.416.98.98 0 00-.698-.292z" fill="currentColor" fill-rule="evenodd"></path>
  </symbol>
</svg>