<svg width="0" height="0" class="hidden">
  <symbol xmlns="http://www.w3.org/2000/svg" viewBox="0 0 24 24" id="hand-gesture-16">
    <title>Icons / Mastercard / UI / hand gesture 16</title>
    <path d="M13 4c1.103 0 2 .897 2 2v2.278A1.978 1.978 0 0116 8c.872 0 1.607.564 1.88 1.344A1.99 1.99 0 0119 9c.872 0 1.607.564 1.88 1.344A2.002 2.002 0 0124 12v4.5l-1.089 6.575-.986-.164 1.082-6.493-.006-3.918H23V12a1.001 1.001 0 00-2 0v2h-1v-3a1.001 1.001 0 00-2 0v3h-1v-4a1.001 1.001 0 00-2 0v4h-1V6a1.001 1.001 0 00-2 0v10.577a.624.624 0 01-1.066.443l-1.727-1.727a1.023 1.023 0 00-1.414 0 .993.993 0 00.002 1.414l5.778 5.794-.708.706-5.425-5.439-.354-.354A1.986 1.986 0 016.5 16c0-.534.208-1.036.586-1.414.756-.756 2.072-.756 2.828 0L11 15.672V6c0-1.103.897-2 2-2zM5.5 1.793L8.707 5 8 5.707l-2-2V13H5V3.707l-2 2L2.293 5 5.5 1.793zM13 1c1.336 0 2.591.52 3.535 1.464l.354.354-.707.707-.354-.354c-1.51-1.511-4.146-1.511-5.656 0l-.354.354-.707-.707.354-.354A4.966 4.966 0 0113 1z" fill="currentColor" fill-rule="evenodd"></path>
  </symbol>
  <symbol xmlns="http://www.w3.org/2000/svg" viewBox="0 0 24 24" id="search">
    <title>Icons / Mastercard / UI / search</title>
    <path d="M16.634 14.159l6.707 6.707-2.475 2.475-6.707-6.707.847-.847-.906-.906c.138-.121.278-.238.41-.37.107-.107.201-.222.301-.333l.902.902.921-.921zm0 1.414l-1.061 1.061 5.293 5.293 1.061-1.061-5.293-5.293zM13.605 3.006l.198.191c2.924 2.925 2.924 7.683 0 10.607A7.477 7.477 0 018.5 15.997a7.477 7.477 0 01-5.303-2.193c-2.924-2.925-2.924-7.683 0-10.607C6.056.338 10.669.274 13.605 3.007zM8.5 2.003a6.478 6.478 0 00-4.596 1.9 6.509 6.509 0 000 9.193 6.507 6.507 0 009.192 0 6.509 6.509 0 000-9.193 6.478 6.478 0 00-4.596-1.9z" fill="currentColor" fill-rule="evenodd"></path>
  </symbol>
  <symbol xmlns="http://www.w3.org/2000/svg" viewBox="0 0 24 24" id="contact-us">
    <title>Icons / Mastercard / UI / contact us</title>
    <path d="M20.591 1C21.919 1 23 2.111 23 3.478v11.045C23 15.889 21.919 17 20.591 17h-8.884l-5 5A1 1 0 015 21.293V17H3.5C2.154 17 1 15.351 1 14V3.478C1 2.135 2.145 1 3.5 1h17.091zm0 1H3.5C2.701 2 2 2.69 2 3.478V14c0 .836.756 2 1.5 2h2a.5.5 0 01.5.5v4.793l5.146-5.146A.5.5 0 0111.5 16h9.091c.777 0 1.409-.663 1.409-1.478V3.478C22 2.663 21.368 2 20.591 2zm-4.702 8v1H5v-1h10.889zM19 6v1H5V6h14z" fill="currentColor" fill-rule="evenodd"></path>
  </symbol>
  <symbol xmlns="http://www.w3.org/2000/svg" viewBox="0 0 24 24" id="grid-view">
    <title>Icons / Mastercard / UI / grid view</title>
    <path d="M11 13v10H1V13h10zm12 0v10H13V13h10zm-13 1H2v8h8v-8zm12 0h-8v8h8v-8zM11 1v10H1V1h10zm12 0v10H13V1h10zM10 2H2v8h8V2zm12 0h-8v8h8V2z" fill="currentColor" fill-rule="evenodd"></path>
  </symbol>
  <symbol xmlns="http://www.w3.org/2000/svg" viewBox="0 0 24 24" id="hand-gesture-17">
    <title>Icons / Mastercard / UI / hand gesture 17</title>
    <path d="M16 2c1.103 0 2 .897 2 2v4.278A1.978 1.978 0 0119 8c.872 0 1.607.564 1.88 1.344A2.002 2.002 0 0124 11v4.5l-1.089 6.575-.986-.164 1.082-6.493-.006-3.918H23V11a1.001 1.001 0 00-2 0v2h-1v-3a1.001 1.001 0 00-2 0v3h-1V4a1.001 1.001 0 00-2 0v9h-1V5a1.001 1.001 0 00-2 0v10.577a.624.624 0 01-1.066.443l-1.727-1.727a1.023 1.023 0 00-1.414 0 .993.993 0 00.002 1.414l5.778 5.794-.708.706-5.425-5.439-.354-.354A1.986 1.986 0 016.5 15c0-.534.208-1.036.586-1.414.756-.756 2.072-.756 2.828 0L11 14.672V5a2.002 2.002 0 013.12-1.656A1.995 1.995 0 0116 2zM6 1v9.293l2-2L8.707 9 5.5 12.207 2.293 9 3 8.293l2 2V1h1z" fill="currentColor" fill-rule="evenodd"></path>
  </symbol>
  <symbol xmlns="http://www.w3.org/2000/svg" viewBox="0 0 24 24" id="time-45mins">
    <title>Icons / Mastercard / UI / time 45mins</title>
    <path d="M12.498 2c5.788 0 10.498 4.709 10.498 10.497 0 5.789-4.709 10.498-10.498 10.498S2 18.286 2 12.497C2.001 6.709 6.71 2 12.498 2zm0 1C7.261 3 3 7.261 3 12.497c0 5.237 4.261 9.498 9.498 9.498 5.237 0 9.498-4.261 9.498-9.498C21.996 7.261 17.735 3 12.498 3zm.5 1v8.997H3.996v-1h8.002V4h1zM6.25 8.318l1.732 1-.5.865-1.731-1 .5-.865zm2.93-2.563l.999 1.732-.866.5-1-1.732.866-.5z" fill="currentColor" fill-rule="evenodd"></path>
  </symbol>
  <symbol xmlns="http://www.w3.org/2000/svg" viewBox="0 0 24 24" id="hand-gesture-29">
    <title>Icons / Mastercard / UI / hand gesture 29</title>
    <path d="M10.322 6.515c.78-.78 2.049-.78 2.829 0l6.839 6.839v-1.536c0-.534.208-1.036.586-1.414.756-.756 2.072-.756 2.828 0 .378.378.586.88.586 1.414v.389L24 20h-1l-.009-7.683v-.5l-.009-.132a.992.992 0 00-.284-.575 1.023 1.023 0 00-1.414 0 .993.993 0 00-.293.707v2.441a.624.624 0 01-1.067.442l-7.479-7.479a1 1 0 00-1.415 1.414l2.829 2.828 2.829 2.829-.707.707-2.829-2.829a1.023 1.023 0 00-1.414 0 1.002 1.002 0 000 1.415l2.829 2.829-.707.707-2.122-2.122a1.025 1.025 0 00-1.415 0 1 1 0 000 1.414l2.122 2.122-.707.707-1.415-1.415a1 1 0 10-1.414 1.415l1.414 1.414-.707.707-1.414-1.414a2.003 2.003 0 010-2.829 1.992 1.992 0 011.035-.548 1.998 1.998 0 01.377-2.279 1.993 1.993 0 011.035-.549 1.998 1.998 0 01.38-2.28c.255-.254.575-.416.915-.499l-1.622-1.622a2.002 2.002 0 010-2.828zM3.5 2C5.43 2 7 3.57 7 5.5c0 1.758-1.308 3.204-3 3.449v2.102c.59.085 1.129.313 1.587.655l3.207-3.207c.068.355.206.696.403 1.011l-2.904 2.904c.438.584.707 1.301.707 2.086C7 16.43 5.43 18 3.5 18S0 16.43 0 14.499c0-1.758 1.308-3.204 3-3.449V8.949C1.308 8.704 0 7.258 0 5.5 0 3.57 1.57 2 3.5 2zm0 10A2.503 2.503 0 001 14.5C1 15.878 2.122 17 3.5 17S6 15.878 6 14.5 4.878 12 3.5 12zm0-9A2.503 2.503 0 001 5.5C1 6.878 2.122 8 3.5 8S6 6.878 6 5.5 4.878 3 3.5 3zm9-1C14.43 2 16 3.57 16 5.5c0 .696-.21 1.341-.561 1.887l-.734-.734A2.47 2.47 0 0015 5.5C15 4.122 13.878 3 12.5 3a2.502 2.502 0 00-2.499 2.492 3.082 3.082 0 00-.385.315 2.975 2.975 0 00-.472.638A3.387 3.387 0 019 5.5C9 3.57 10.57 2 12.5 2z" fill="currentColor" fill-rule="evenodd"></path>
  </symbol>
  <symbol xmlns="http://www.w3.org/2000/svg" viewBox="0 0 24 24" id="hand-gesture-15">
    <title>Icons / Mastercard / UI / hand gesture 15</title>
    <path d="M12.707 4c1.103 0 2 .897 2 2v2.278a1.978 1.978 0 011-.278c.872 0 1.607.564 1.88 1.344A1.99 1.99 0 0118.707 9c.872 0 1.607.564 1.88 1.344A2.002 2.002 0 0123.707 12v4.5l-1.089 6.575-.986-.164 1.082-6.493-.006-3.918h-.001V12a1.001 1.001 0 00-2 0v2h-1v-3a1.001 1.001 0 00-2 0v3h-1v-4a1.001 1.001 0 00-2 0v4h-1V6a1.001 1.001 0 00-2 0v10.577a.624.624 0 01-1.066.443l-1.727-1.727a1.023 1.023 0 00-1.414 0 .993.993 0 00.002 1.414l5.778 5.794-.708.706-5.425-5.439-.354-.354A1.986 1.986 0 016.207 16c0-.534.208-1.036.586-1.414.756-.756 2.072-.756 2.828 0l1.086 1.086V6c0-1.103.897-2 2-2zm-7-2v9.293l2-2 .707.707-3.207 3.207L2 10l.707-.707 2 2V2h1zm7-1c1.336 0 2.591.52 3.535 1.464l.354.354-.707.707-.354-.354c-1.51-1.511-4.146-1.511-5.656 0l-.354.354-.707-.707.354-.354A4.966 4.966 0 0112.707 1z" fill="currentColor" fill-rule="evenodd"></path>
  </symbol>
  <symbol xmlns="http://www.w3.org/2000/svg" viewBox="0 0 24 24" id="hand-gesture-28">
    <title>Icons / Mastercard / UI / hand gesture 28</title>
    <path d="M19.707 7h-8.278c.172-.295.278-.634.278-1 0-1.103-.897-2-2-2H7.621c-.4 0-.777.156-1.061.439L2 9l.707.707 4.561-4.561A.503.503 0 017.621 5h2.086c.551 0 1 .449 1 1 0 .551-.449 1-1 1h-1v1h11c.551 0 1 .449 1 1 0 .551-.449 1-1 1h-8v1h4c.551 0 1 .449 1 1 0 .551-.449 1-1 1h-4v1h3c.551 0 1 .449 1 1 0 .551-.449 1-1 1h-3v1h2c.551 0 1 .449 1 1 0 .551-.449 1-1 1h-.5v.001l-3.918.006-6.493-1.082-.164.986L9.207 20h4.5a2.002 2.002 0 001.656-3.12 1.988 1.988 0 001-3A1.995 1.995 0 0017.707 12c0-.366-.106-.705-.278-1h2.278c1.103 0 2-.897 2-2s-.897-2-2-2z" fill="currentColor" fill-rule="evenodd"></path>
  </symbol>
  <symbol xmlns="http://www.w3.org/2000/svg" viewBox="0 0 24 24" id="hand-gesture-14">
    <title>Icons / Mastercard / UI / hand gesture 14</title>
    <path d="M12.586 8.586c.756-.756 2.072-.756 2.828 0 .378.378.586.88.586 1.414a1.99 1.99 0 01-.585 1.414l-1.623 1.623c.339.083.66.244.915.499.378.378.586.88.586 1.414 0 .306-.076.598-.205.866a1.993 1.993 0 011.405 2.843c.387.069.755.247 1.042.534a2 2 0 01-.001 2.828l-.007.007.007.007-1.441 1.386-.693-.721 1.089-1.047.34-.34c.39-.391.39-1.025 0-1.415a1.024 1.024 0 00-1.414 0L14 21.313l-.709-.704 2.123-2.123c.39-.391.39-1.025 0-1.415a1.003 1.003 0 00-1.414 0l-2.121 2.121-.707-.707 1.768-1.768.354-.353.353-.353-.001-.001.354-.353a.995.995 0 00.292-.708.997.997 0 00-.293-.707 1.023 1.023 0 00-1.414 0l-.353.354-2.475 2.475-.707-.707 5.657-5.657A.993.993 0 0015 10a.993.993 0 00-.293-.707 1.024 1.024 0 00-1.414 0l-.333.333-6.889 6.919a.62.62 0 01-.682.136.622.622 0 01-.386-.577v-2.441a.993.993 0 00-.292-.707 1.025 1.025 0 00-1.415 0 .993.993 0 00-.293.707v.5L3 21.987H2l.003-8.323c0-.535.208-1.038.586-1.415.755-.755 2.072-.756 2.828 0 .378.377.586.879.586 1.414v1.533l6.229-6.256.012-.012.34-.342.001.001zm5.914 2.207l4.5 4.5V11h1v6h-6v-1h4.293l-4.5-4.5.707-.707zM14.5 6C16.43 6 18 7.57 18 9.5v.5h-1v-.5C17 8.122 15.879 7 14.5 7H14V6zM24 0v6h-1V1.707l-4.5 4.5-.707-.707 4.5-4.5H18V0h6zM13 0v1H8.707l4.5 4.5-.707.707-4.5-4.5V6H7V0h6z" fill="currentColor" fill-rule="evenodd"></path>
  </symbol>
  <symbol xmlns="http://www.w3.org/2000/svg" viewBox="0 0 24 24" id="logout">
    <title>Icons / Mastercard / UI / logout</title>
    <path d="M19.5 1C21.43 1 23 2.57 23 4.5v15c0 1.93-1.57 3.5-3.5 3.5H12v-1h7.5c1.378 0 2.5-1.121 2.5-2.5v-15C22 3.121 20.878 2 19.5 2H12V1zM8.363 5.126l.708.707L3.903 11h13.814v1H3.924l5.147 5.146-.708.708L2 11.489l6.363-6.363z" fill="currentColor" fill-rule="evenodd"></path>
  </symbol>
  <symbol xmlns="http://www.w3.org/2000/svg" viewBox="0 0 24 24" id="cart-add">
    <title>Icons / Mastercard / UI / cart add</title>
    <path d="M21 19c1.103 0 2 .897 2 2s-.897 2-2 2-2-.897-2-2 .897-2 2-2zM9 19c1.103 0 2 .897 2 2s-.897 2-2 2-2-.897-2-2 .897-2 2-2zm12 1a1.001 1.001 0 000 2 1.001 1.001 0 000-2zM9 20a1.001 1.001 0 000 2 1.001 1.001 0 000-2zM1.646 3c1.334 0 2.534.741 3.13 1.935l5.342 10.683A2.485 2.485 0 0012.354 17H22v1h-9.646a3.48 3.48 0 01-3.13-1.934L3.882 5.382A2.485 2.485 0 001.646 4H0V3zM21.5 5C22.878 5 24 6.121 24 7.5V12c0 1.379-1.122 2.5-2.5 2.5H10.677l-.5-1H21.5c.827 0 1.5-.673 1.5-1.5V7.5c0-.827-.673-1.5-1.5-1.5h-3.525c.015-.165.025-.331.025-.5 0-.169-.01-.335-.025-.5zm-9-4C14.981 1 17 3.019 17 5.5S14.981 10 12.5 10A4.505 4.505 0 018 5.5C8 3.019 10.019 1 12.5 1zm0 1C10.57 2 9 3.57 9 5.5S10.57 9 12.5 9 16 7.43 16 5.5 14.43 2 12.5 2zm.5 1v2h2v1h-2v2h-1V6h-2V5h2V3h1z" fill="currentColor" fill-rule="evenodd"></path>
  </symbol>
  <symbol xmlns="http://www.w3.org/2000/svg" viewBox="0 0 24 24" id="hand-gesture-38">
    <title>Icons / Mastercard / UI / hand gesture 38</title>
    <path d="M10.322 8.513c.78-.78 2.049-.78 2.829 0l6.839 6.838v-1.534c0-.535.208-1.038.586-1.415.755-.755 2.072-.756 2.828 0 .378.377.586.88.586 1.415v.389l.01 7.793-1 .002-.009-7.68v-.5a.993.993 0 00-.292-.707 1.023 1.023 0 00-1.415 0 .99.99 0 00-.293.707v2.44c0 .254-.152.48-.387.577a.62.62 0 01-.681-.137l-7.478-7.478a1 1 0 00-1.415 1.414l5.657 5.657-.707.707-2.829-2.829a1.025 1.025 0 00-1.414 0 .99.99 0 00-.293.707c0 .267.104.518.293.707l2.829 2.829-.707.707L11.737 17a1.027 1.027 0 00-1.415 0 1 1 0 000 1.414l2.122 2.121-.707.707-1.061-1.061-.353-.354a1.025 1.025 0 00-1.414 0 .993.993 0 00-.293.707c0 .268.104.519.292.707l1.415 1.414-.707.707-1.414-1.414a1.983 1.983 0 01-.586-1.414c0-.534.208-1.036.585-1.415a1.95 1.95 0 011.043-.533 1.998 1.998 0 01.371-2.295 1.989 1.989 0 011.034-.548 1.991 1.991 0 01-.205-.866c0-.535.208-1.037.586-1.414a1.91 1.91 0 01.914-.5l-1.622-1.622a2.002 2.002 0 010-2.828zM3.5 6C4.878 6 6 7.122 6 8.5S4.878 11 3.5 11A2.503 2.503 0 011 8.5C1 7.122 2.122 6 3.5 6zm6 0c.793 0 1.493.378 1.951.956a2.974 2.974 0 00-1.088.321A1.49 1.49 0 009.5 7C8.673 7 8 7.673 8 8.5c0 .554.305 1.033.752 1.292a3 3 0 00.167 1.133A2.5 2.5 0 017 8.5C7 7.122 8.122 6 9.5 6zm-6 1C2.673 7 2 7.673 2 8.5S2.673 10 3.5 10 5 9.327 5 8.5 4.327 7 3.5 7zm0-7C4.878 0 6 1.122 6 2.5S4.878 5 3.5 5A2.503 2.503 0 011 2.5C1 1.122 2.122 0 3.5 0zm6 0C10.878 0 12 1.122 12 2.5S10.878 5 9.5 5A2.503 2.503 0 017 2.5C7 1.122 8.122 0 9.5 0zm-6 1C2.673 1 2 1.673 2 2.5S2.673 4 3.5 4 5 3.327 5 2.5 4.327 1 3.5 1zm6 0C8.673 1 8 1.673 8 2.5S8.673 4 9.5 4 11 3.327 11 2.5 10.327 1 9.5 1z" fill="currentColor" fill-rule="evenodd"></path>
  </symbol>
  <symbol xmlns="http://www.w3.org/2000/svg" viewBox="0 0 24 24" id="time-1-hour">
    <title>Icons / Mastercard / UI / time 1 hour</title>
    <path d="M12.5 2C18.29 2 23 6.71 23 12.5S18.29 23 12.5 23 2 18.29 2 12.5 6.71 2 12.5 2zm0 1C7.262 3 3 7.262 3 12.5S7.262 22 12.5 22s9.5-4.262 9.5-9.5S17.738 3 12.5 3zm.5 1.006V13h-1V4.006h1z" fill="currentColor" fill-rule="evenodd"></path>
  </symbol>
  <symbol xmlns="http://www.w3.org/2000/svg" viewBox="0 0 24 24" id="hand-gesture-10">
    <title>Icons / Mastercard / UI / hand gesture 10</title>
    <path d="M18.117 8.384l-3.536-3.536-.354-.354a2.003 2.003 0 00-2.829 0 1.991 1.991 0 00-.549 1.043c-.744-.343-1.685-.224-2.279.371a1.997 1.997 0 00-.547 1.036 1.998 1.998 0 00-2.28.379 1.996 1.996 0 00-.371 2.296 1.946 1.946 0 00-1.043.533c-.78.78-.78 2.049 0 2.829l.354.354 3.657 3.657H6.803c-.534 0-1.036.208-1.414.586-.378.378-.586.88-.586 1.414 0 .534.208 1.036.586 1.414.378.378.88.586 1.414.586h.389l7.794.008.001-1-7.684-.01h-.5a.993.993 0 01-.707-.293.993.993 0 01-.293-.707c0-.267.104-.518.293-.707a.993.993 0 01.707-.293h2.441a.624.624 0 00.442-1.067l-4.297-4.297-.354-.354a1.002 1.002 0 010-1.415 1.023 1.023 0 011.414 0l.353.354 2.475 2.475.707-.707-3.181-3.181-.353-.353a1.002 1.002 0 010-1.415 1.002 1.002 0 011.414 0l.706.706.001.002.354.354 2.474 2.475.707-.707-2.828-2.83a1 1 0 010-1.414 1.023 1.023 0 011.414 0l.354.354.354.354.354.354 1.768 1.768.707-.707L12.46 6.97l-.354-.354a1 1 0 011.415-1.414l.354.354 3.482 3.473 3.826 5.356.813-.581-3.879-5.42z" fill="currentColor" fill-rule="evenodd"></path>
  </symbol>
  <symbol xmlns="http://www.w3.org/2000/svg" viewBox="0 0 24 24" id="sound-up">
    <title>Icons / Mastercard / UI / sound up</title>
    <path d="M12.146 1.134a.5.5 0 01.841.365v21a.501.501 0 01-.841.365L4.806 16H1V8h3.81zm-.159 1.518l-6.64 6.215A.548.548 0 015 9H2v6h3c.133 0 .252.054.341.138l.003-.003 6.643 6.213V2.652zM20 9v3h3v1h-3v3h-1v-3h-3v-1h3V9h1z" fill="currentColor" fill-rule="evenodd"></path>
  </symbol>
  <symbol xmlns="http://www.w3.org/2000/svg" viewBox="0 0 24 24" id="sound-on">
    <title>Icons / Mastercard / UI / sound on</title>
    <path d="M12.146 1.135a.5.5 0 01.841.365v21a.501.501 0 01-.841.365L4.806 16H1V8h3.81zm-.159 1.518l-6.64 6.215A.548.548 0 015 9H2v6h3c.133 0 .252.054.341.138l.003-.003 6.643 6.213V2.653zm7.609 1.215c4.484 4.485 4.484 11.779 0 16.264l-.707-.707c4.094-4.094 4.094-10.756 0-14.85l.707-.707zM17.475 5.99c3.314 3.314 3.314 8.706 0 12.021l-.707-.707c2.924-2.925 2.924-7.683 0-10.607l.707-.707zm-2.121 2.121A5.462 5.462 0 0116.965 12a5.462 5.462 0 01-1.611 3.889l-.707-.707A4.469 4.469 0 0015.965 12a4.469 4.469 0 00-1.318-3.182l.707-.707z" fill="currentColor" fill-rule="evenodd"></path>
  </symbol>
  <symbol xmlns="http://www.w3.org/2000/svg" viewBox="0 0 24 24" id="expression-ok">
    <title>Icons / Mastercard / UI / expression ok</title>
    <path d="M12.5 2C18.29 2 23 6.71 23 12.5S18.29 23 12.5 23 2 18.29 2 12.5 6.71 2 12.5 2zm0 1C7.262 3 3 7.262 3 12.5S7.262 22 12.5 22s9.5-4.262 9.5-9.5S17.738 3 12.5 3zM17 15v1H8v-1h9zm-1-7a1 1 0 110 2 1 1 0 010-2zM9 8a1 1 0 110 2 1 1 0 010-2z" fill="currentColor" fill-rule="evenodd"></path>
  </symbol>
  <symbol xmlns="http://www.w3.org/2000/svg" viewBox="0 0 24 24" id="process-complete">
    <title>Icons / Mastercard / UI / process complete</title>
    <path d="M12.5 2C18.29 2 23 6.71 23 12.5S18.29 23 12.5 23 2 18.29 2 12.5 6.71 2 12.5 2zm0 1C7.262 3 3 7.262 3 12.5S7.262 22 12.5 22s9.5-4.262 9.5-9.5S17.738 3 12.5 3zm6.146 5.646l.708.708L11 17.707l-5.354-5.353.708-.708L11 16.293l7.646-7.647z" fill="currentColor" fill-rule="evenodd"></path>
  </symbol>
  <symbol xmlns="http://www.w3.org/2000/svg" viewBox="0 0 24 24" id="hand-gesture-13">
    <title>Icons / Mastercard / UI / hand gesture 13</title>
    <path d="M11.839 6.522a2.002 2.002 0 012.828 0c.295.295.477.661.549 1.043.743-.342 1.684-.224 2.279.373.378.377.586.879.586 1.414 0 .534-.208 1.036-.586 1.414l-3.025 3.025c.331.087.645.252.904.511.616.617.737 1.536.379 2.28.38.073.742.256 1.035.549.378.377.586.879.586 1.414 0 .534-.208 1.036-.586 1.414l-3.536 3.536-.707-.707 3.536-3.536a.993.993 0 00.293-.707 1.001 1.001 0 00-1.708-.707l-1.415 1.415-.707-.707 2.123-2.123a1 1 0 00-1.415-1.414l-2.122 2.122-.707-.707 6.365-6.365a.993.993 0 00.293-.707.993.993 0 00-.293-.707 1.023 1.023 0 00-1.414 0l-.353.354-6.011 6.01-.707-.707 5.657-5.657a1 1 0 10-1.414-1.415l-7.479 7.479a.619.619 0 01-.681.135.622.622 0 01-.386-.577v-2.441a.993.993 0 00-.293-.707 1.023 1.023 0 00-1.414 0 .993.993 0 00-.293.707V20H1v-8.174c0-.534.208-1.036.586-1.415.756-.756 2.072-.756 2.828 0 .378.378.586.88.586 1.414v1.536l6.485-6.486zM19.5.793L23.207 4.5 19.5 8.207l-.707-.707 2.5-2.5H8V4h13.293l-2.5-2.5.707-.707z" fill="currentColor" fill-rule="evenodd"></path>
  </symbol>
  <symbol xmlns="http://www.w3.org/2000/svg" viewBox="0 0 24 24" id="settings">
    <title>Icons / Mastercard / UI / settings</title>
    <path d="M13.218 1l.483 2.054c.445.084.88.199 1.302.346l1.443-1.534 2.108 1.217-.607 2.017c.34.293.659.612.953.953l2.017-.607 1.218 2.109-1.536 1.444c.146.42.262.855.345 1.3l2.056.484v2.434l-2.056.484c-.083.444-.199.88-.345 1.3l1.536 1.444-1.218 2.108-2.017-.606a9.22 9.22 0 01-.953.953l.607 2.018-2.108 1.217-1.443-1.534a9.167 9.167 0 01-1.302.346L13.218 23h-2.436l-.483-2.053a9.083 9.083 0 01-1.303-.346l-1.442 1.533-2.108-1.217.606-2.015a9.17 9.17 0 01-.956-.955l-2.014.605-1.217-2.108 1.531-1.441A9.172 9.172 0 013.05 13.7L1 13.218v-2.436l2.05-.482c.084-.447.2-.884.346-1.305l-1.531-1.44 1.217-2.109 2.014.606c.295-.342.614-.661.956-.955l-.606-2.015 2.108-1.217 1.442 1.533a9.216 9.216 0 011.303-.346L10.782 1h2.436zm-.792 1h-.852l-.455 1.935-.335.05a8.05 8.05 0 00-1.743.462l-.315.123-1.357-1.443-.738.426.571 1.896-.264.211a8.179 8.179 0 00-1.279 1.278l-.211.264-1.895-.571-.426.738 1.442 1.355-.123.316a8.062 8.062 0 00-.463 1.745l-.051.335L2 11.575v.85l1.932.455.051.335c.092.607.248 1.194.463 1.744l.124.314-1.443 1.357.426.737 1.895-.57.211.264c.377.473.808.902 1.279 1.278l.264.211-.571 1.896.737.426 1.358-1.444.315.123c.554.217 1.14.373 1.743.464l.335.05.455 1.935h.852l.455-1.936.335-.05a8.063 8.063 0 001.741-.464l.315-.123 1.359 1.445.737-.426-.572-1.899.264-.211c.47-.375.899-.805 1.277-1.276l.211-.264 1.899.571.426-.737-1.446-1.359.123-.315a8.057 8.057 0 00.462-1.739l.051-.335L22 12.426v-.852l-1.937-.456-.051-.335a8.027 8.027 0 00-.462-1.739l-.123-.315 1.446-1.359-.426-.738-1.899.572-.211-.264a8.153 8.153 0 00-1.277-1.276l-.264-.211.572-1.899-.737-.426-1.359 1.445-.315-.123a8.078 8.078 0 00-1.741-.464l-.335-.05L12.426 2zM12 6c3.309 0 6 2.691 6 6s-2.691 6-6 6-6-2.691-6-6 2.691-6 6-6zm0 1c-2.757 0-5 2.243-5 5s2.243 5 5 5 5-2.243 5-5-2.243-5-5-5z" fill="currentColor" fill-rule="evenodd"></path>
  </symbol>
  <symbol xmlns="http://www.w3.org/2000/svg" viewBox="0 0 24 24" id="hand-gesture-11">
    <title>Icons / Mastercard / UI / hand gesture 11</title>
    <path d="M17.302 7.211c.78-.78 2.049-.78 2.829 0l3.536 3.536-.707.707-3.535-3.536a1.003 1.003 0 00-1.415 0 1.002 1.002 0 000 1.415l1.415 1.415-.707.707-1.061-1.061-.353-.354-.354-.354v.001l-.354-.354a1.002 1.002 0 00-1.414 0 1.002 1.002 0 000 1.415l2.122 2.122-.707.707-2.476-2.476.05-.05v-.001l-.051.051-.353-.354a1.023 1.023 0 00-1.414 0 .993.993 0 00-.293.707c0 .267.104.518.293.707l2.829 2.829-.707.707-5.304-5.303-.353-.354a1.023 1.023 0 00-1.414 0 .993.993 0 00-.293.707c0 .267.104.518.293.707l7.479 7.479A.624.624 0 0114.441 20H12a.993.993 0 00-.707.293A.993.993 0 0011 21c0 .267.104.518.293.707.189.189.44.293.707.293h8v1h-8.013a1.993 1.993 0 01-1.401-.586A1.986 1.986 0 0110 21c0-.534.208-1.036.586-1.414.378-.378.88-.586 1.414-.586h1.536l-6.84-6.84a1.986 1.986 0 01-.586-1.414c0-.535.208-1.037.586-1.414.756-.756 2.074-.755 2.828 0l1.61 1.61c.089-.338.258-.65.512-.903.595-.596 1.536-.714 2.279-.371.071-.382.254-.748.549-1.043a1.997 1.997 0 012.28-.379c.072-.379.255-.742.548-1.035zM5.147 3.145a6.525 6.525 0 019.217.001l.354.354-.707.708-.354-.354a5.526 5.526 0 00-7.804 0L2.685 7H6v1H1V2.987h1v3.284z" fill="currentColor" fill-rule="evenodd"></path>
  </symbol>
  <symbol xmlns="http://www.w3.org/2000/svg" viewBox="0 0 24 24" id="hand-gesture-39">
    <title>Icons / Mastercard / UI / hand gesture 39</title>
    <path d="M10.207 8.207c1.103 0 2 .897 2 2v2.278a1.978 1.978 0 011-.278c.872 0 1.607.564 1.88 1.344a1.988 1.988 0 013 1 2.002 2.002 0 013.12 1.656v4.5l-.522 3.077-.986-.169.515-2.993-.006-3.915h-.001v-.5a1.001 1.001 0 00-2 0v2h-1v-3a1.001 1.001 0 00-2 0v3h-1v-4a1.001 1.001 0 00-2 0v4h-1v-8c0-.551-.449-1-1-1-.551 0-1 .449-1 1v10.577a.624.624 0 01-1.068.441L6.414 19.5A1.025 1.025 0 005 19.5a.993.993 0 00-.293.707c0 .267.104.518.293.707l.002.002.002-.002.349.353 1.922 1.943-.711.703-1.922-1.943-.349-.349a1.986 1.986 0 01-.586-1.414c0-.534.208-1.036.586-1.414.756-.756 2.072-.756 2.828 0l1.086 1.086v-9.672c0-1.103.897-2 2-2zm-4-2.707l.707.707-2 2h3.081c-.26.29-.47.625-.604 1H4.914l2 2-.707.707L3 8.707 6.207 5.5zm9 0l3.207 3.207-3.207 3.207-.707-.707 2-2h-3.293v-1H16.5l-2-2 .707-.707zm-4.5-4.5l3.207 3.207-.707.707-2-2v3.293h-1V2.914l-2 2-.707-.707L10.707 1z" fill="currentColor" fill-rule="evenodd"></path>
  </symbol>
  <symbol xmlns="http://www.w3.org/2000/svg" viewBox="0 0 24 24" id="video-gallery">
    <title>Icons / Mastercard / UI / video gallery</title>
    <path d="M21 5v16H1V5h20zm-1 1H2v14h18V6zm3-3v16h-1V4H3V3h20zM8.755 8.07l7 4.148a.5.5 0 01-.014.869l-7 3.852a.513.513 0 01-.495-.008A.5.5 0 018 16.5v-8a.5.5 0 01.755-.43zM9 9.378v6.276l5.492-3.021L9 9.378z" fill="currentColor" fill-rule="evenodd"></path>
  </symbol>
  <symbol xmlns="http://www.w3.org/2000/svg" viewBox="0 0 24 24" id="file-add">
    <title>Icons / Mastercard / UI / file add</title>
    <path d="M18.5 13c2.481 0 4.5 2.019 4.5 4.5S20.981 22 18.5 22a4.505 4.505 0 01-4.5-4.5c0-2.481 2.019-4.5 4.5-4.5zm0 1c-1.93 0-3.5 1.57-3.5 3.5s1.57 3.5 3.5 3.5 3.5-1.57 3.5-3.5-1.57-3.5-3.5-3.5zM7.5 3C8.327 3 9 3.673 9 4.5V5h9.5c.827 0 1.5.673 1.5 1.5v5.713a5.419 5.419 0 00-1-.188V9H2v10h11.213c.099.349.231.683.394 1H1V4.5C1 3.673 1.673 3 2.5 3zM19 15v2h2v1h-2v2h-1v-2h-2v-1h2v-2h1zM7.5 4h-5a.5.5 0 00-.5.5V8h17V6.5a.5.5 0 00-.5-.5H8V4.5a.5.5 0 00-.5-.5z" fill="currentColor" fill-rule="evenodd"></path>
  </symbol>
  <symbol xmlns="http://www.w3.org/2000/svg" viewBox="0 0 24 24" id="hand-gesture-12">
    <title>Icons / Mastercard / UI / hand gesture 12</title>
    <path d="M14.84 6.522a2.002 2.002 0 012.828 0c.295.295.477.661.549 1.043.742-.342 1.683-.224 2.279.372.378.377.586.879.586 1.414 0 .534-.208 1.036-.587 1.415l-3.025 3.025c.331.087.645.252.904.511.616.617.737 1.536.379 2.28.379.073.742.256 1.035.549.378.377.586.879.586 1.414 0 .534-.208 1.036-.586 1.414l-3.536 3.536-.707-.707 3.536-3.536a.993.993 0 00.293-.707 1.001 1.001 0 00-1.708-.707l-1.415 1.415-.707-.707 2.123-2.123a1 1 0 00-1.415-1.414l-2.122 2.122-.707-.707 6.365-6.365a.993.993 0 00.293-.707.993.993 0 00-.293-.707 1.023 1.023 0 00-1.414 0l-.353.354-6.011 6.01-.707-.707 5.657-5.657a1 1 0 10-1.414-1.415l-7.479 7.479a.619.619 0 01-.681.135.622.622 0 01-.386-.577v-2.441a.993.993 0 00-.293-.707 1.023 1.023 0 00-1.414 0 .993.993 0 00-.293.707V20H4v-8.174c0-.534.208-1.036.586-1.415.756-.756 2.072-.756 2.828 0 .378.378.586.88.586 1.414v1.536l6.486-6.486zM9.5.793l.707.707-2.5 2.5H21v1H7.707l2.5 2.5-.707.707L5.793 4.5 9.5.793z" fill="currentColor" fill-rule="evenodd"></path>
  </symbol>
  <symbol xmlns="http://www.w3.org/2000/svg" viewBox="0 0 24 24" id="cart-remove">
    <title>Icons / Mastercard / UI / cart remove</title>
    <path d="M21 19c1.103 0 2 .897 2 2s-.897 2-2 2-2-.897-2-2 .897-2 2-2zM9 19c1.103 0 2 .897 2 2s-.897 2-2 2-2-.897-2-2 .897-2 2-2zm12 1a1.001 1.001 0 000 2 1.001 1.001 0 000-2zM9 20a1.001 1.001 0 000 2 1.001 1.001 0 000-2zM1.646 3c1.334 0 2.534.741 3.13 1.935l5.342 10.683A2.485 2.485 0 0012.354 17H22v1h-9.646a3.48 3.48 0 01-3.13-1.934L3.882 5.382A2.485 2.485 0 001.646 4H0V3zM21.5 5C22.878 5 24 6.121 24 7.5V12c0 1.379-1.122 2.5-2.5 2.5H10.677l-.5-1H21.5c.827 0 1.5-.673 1.5-1.5V7.5c0-.827-.673-1.5-1.5-1.5h-3.525c.015-.165.025-.331.025-.5 0-.169-.01-.335-.025-.5zm-9-4C14.981 1 17 3.019 17 5.5S14.981 10 12.5 10A4.505 4.505 0 018 5.5C8 3.019 10.019 1 12.5 1zm0 1C10.57 2 9 3.57 9 5.5S10.57 9 12.5 9 16 7.43 16 5.5 14.43 2 12.5 2zM15 5v1h-5V5h5z" fill="currentColor" fill-rule="evenodd"></path>
  </symbol>
  <symbol xmlns="http://www.w3.org/2000/svg" viewBox="0 0 24 24" id="time-15-mins">
    <title>Icons / Mastercard / UI / time 15 mins</title>
    <path d="M12.5 2C18.29 2 23 6.71 23 12.5S18.29 23 12.5 23 2 18.29 2 12.5 6.71 2 12.5 2zm0 1C7.262 3 3 7.262 3 12.5S7.262 22 12.5 22s9.5-4.262 9.5-9.5S17.738 3 12.5 3zm.5 15v2h-1v-2h1zm2.683-.986l1 1.732-.866.5-1-1.732.866-.5zm-6.366-.002l.866.5-1 1.732-.866-.5 1-1.732zm8.195-2.194l1.732 1-.5.865-1.732-1 .5-.865zm-10.026-.001l.5.865-1.732 1-.5-.865 1.732-1zM13 4v8h8v1h-9V4h1zm-6 8v1H5v-1h2zm-.746-3.682l1.732 1-.5.865-1.731-1 .5-.865zm2.93-2.563l.999 1.732-.866.5-1-1.732.866-.5z" fill="currentColor" fill-rule="evenodd"></path>
  </symbol>
  <symbol xmlns="http://www.w3.org/2000/svg" viewBox="0 0 24 24" id="activation">
    <title>Icons / Mastercard / UI / activation</title>
    <path d="M8.854 6.146l12 12A.499.499 0 0120.5 19h-6.828l-4.818 4.824A.5.5 0 018 23.471V6.5a.5.5 0 01.854-.354zM9 7.707v14.556l4.111-4.116a.5.5 0 01.354-.147h5.828L9 7.707zm-3.782.11l.5.864-2.598 1.501-.5-.865 2.598-1.5zm-2.098-5l2.599 1.5-.5.866-2.598-1.5.5-.865zm10.758 0l.5.865-2.598 1.5-.5-.864 2.598-1.5zM9 0v3H8V0h1z" fill="currentColor" fill-rule="evenodd"></path>
  </symbol>
  <symbol xmlns="http://www.w3.org/2000/svg" viewBox="0 0 24 24" id="login">
    <title>Icons / Mastercard / UI / login</title>
    <path d="M19.5 1C21.43 1 23 2.57 23 4.5v15c0 1.93-1.57 3.5-3.5 3.5H12v-1h7.5c1.378 0 2.5-1.121 2.5-2.5v-15C22 3.121 20.878 2 19.5 2H12V1zm-8.146 4.126l6.363 6.363-6.363 6.365-.708-.708L15.793 12H2v-1h13.814l-5.168-5.167.708-.707z" fill="currentColor" fill-rule="evenodd"></path>
  </symbol>
  <symbol xmlns="http://www.w3.org/2000/svg" viewBox="0 0 24 24" id="sound-mute">
    <title>Icons / Mastercard / UI / sound mute</title>
    <path d="M12.146 1.134a.5.5 0 01.841.365v21a.501.501 0 01-.841.365L4.806 16H1V8h3.81zm-.159 1.518l-6.64 6.215A.548.548 0 015 9H2v6h3c.133 0 .252.054.341.138l.003-.003 6.643 6.213V2.652zm10.159 5.743l.708.708L19.957 12l2.897 2.896-.708.708-2.896-2.897-2.896 2.897-.708-.708L18.543 12l-2.897-2.896.708-.708 2.896 2.897 2.896-2.897z" fill="currentColor" fill-rule="evenodd"></path>
  </symbol>
  <symbol xmlns="http://www.w3.org/2000/svg" viewBox="0 0 24 24" id="process-cancelled">
    <title>Icons / Mastercard / UI / process cancelled</title>
    <path d="M12.5 2C18.29 2 23 6.71 23 12.5S18.29 23 12.5 23v-1c5.238 0 9.5-4.262 9.5-9.5S17.738 3 12.5 3V2zM6.937 20.203a9.603 9.603 0 001.727.992l-.404.914a10.497 10.497 0 01-1.908-1.096zm-3.112-3.827a9.491 9.491 0 001 1.722l-.808.59a10.424 10.424 0 01-1.105-1.904zM16.743 7.55l.707.707-4.243 4.243 4.243 4.243-.707.707-4.243-4.243-4.243 4.243-.707-.707 4.243-4.243L7.55 8.257l.707-.707 4.243 4.243 4.243-4.243zM2.056 11.403l.995.104a9.581 9.581 0 00.001 1.992l-.994.104a10.591 10.591 0 01-.002-2.2zm1.956-5.087l.808.59a9.49 9.49 0 00-.998 1.723l-.913-.408c.299-.669.67-1.31 1.103-1.905zm4.243-3.42l.403.914c-.603.266-1.184.6-1.725.993l-.586-.811c.598-.433 1.24-.802 1.908-1.096z" fill="currentColor" fill-rule="evenodd"></path>
  </symbol>
  <symbol xmlns="http://www.w3.org/2000/svg" viewBox="0 0 24 24" id="cart">
    <title>Icons / Mastercard / UI / cart</title>
    <path d="M9 18c1.103 0 2 .897 2 2s-.897 2-2 2-2-.897-2-2 .897-2 2-2zm12 0c1.103 0 2 .897 2 2s-.897 2-2 2-2-.897-2-2 .897-2 2-2zM9 19a1.001 1.001 0 000 2 1.001 1.001 0 000-2zm12 0a1.001 1.001 0 000 2 1.001 1.001 0 000-2zM1.646 2c1.334 0 2.534.741 3.13 1.935l5.342 10.684A2.486 2.486 0 0012.354 16H22v1h-9.646a3.479 3.479 0 01-3.13-1.935L3.882 4.382A2.485 2.485 0 001.646 3H0V2h1.646zM21.5 4C22.878 4 24 5.121 24 6.5V11c0 1.379-1.122 2.5-2.5 2.5H10.677l-.5-1H21.5c.827 0 1.5-.673 1.5-1.5V6.5c0-.827-.673-1.5-1.5-1.5H6.427l-.5-1z" fill="currentColor" fill-rule="evenodd"></path>
  </symbol>
  <symbol xmlns="http://www.w3.org/2000/svg" viewBox="0 0 24 24" id="hand-gesture-8">
    <title>Icons / Mastercard / UI / hand gesture 8</title>
    <path d="M15.973 6.401c.767-.64 1.988-.604 2.704.113.378.378.586.88.586 1.414 0 .535-.208 1.037-.586 1.414l-1.61 1.61c.33.087.644.252.903.511.621.621.739 1.549.371 2.296a1.95 1.95 0 011.043.533 1.983 1.983 0 01.381 2.28 2 2 0 011.031 3.376l-3.536 3.536-.707-.707 3.536-3.536c.39-.391.39-1.025 0-1.415a1.003 1.003 0 00-1.414 0l-1.414 1.415-.707-.707 1.061-1.061.354-.353h.001l.705-.705a.993.993 0 00.293-.707.993.993 0 00-.293-.707A1.024 1.024 0 0017.262 15l-.078.078-.276.277-.001-.001-1.769 1.768-.707-.707 2.476-2.475.354-.354c.39-.391.39-1.025 0-1.415a1.003 1.003 0 00-1.413-.001L13.018 15l-.707-.707 2.831-2.83.002-.002 2.472-2.472.354-.353a.997.997 0 000-1.414 1.025 1.025 0 00-1.414 0l-.353.354-.001-.001-7.126 7.126a.624.624 0 01-1.066-.442v-2.441a.997.997 0 00-.293-.707 1.025 1.025 0 00-1.415 0 .993.993 0 00-.292.707h.001l-.012 8.183-1-.001.011-7.683v-.5c0-.535.208-1.037.585-1.414.755-.755 2.072-.757 2.829 0 .378.378.586.88.586 1.414v1.535l6.838-6.839.001.001zM7 1.293L7.707 2l-2 2H9v1H5.707l2 2L7 7.707 3.793 4.5 7 1.293zm5 0L15.207 4.5 12 7.707 11.293 7l2-2H10V4h3.293l-2-2L12 1.293z" fill="currentColor" fill-rule="evenodd"></path>
  </symbol>
  <symbol xmlns="http://www.w3.org/2000/svg" viewBox="0 0 24 24" id="call-outgoing">
    <title>Icons / Mastercard / UI / call outgoing</title>
    <path d="M7.5 1C8.878 1 10 2.121 10 3.5v6.207l-1.597 1.598a18.184 18.184 0 005.292 5.293L15.293 15H21.5c1.244 0 2.5.939 2.5 3.038v4.439c0 .41-.17.807-.466 1.091-.279.265-.637.41-1.015.41-.022 0-.045 0-.067-.002-11.68-.536-20.891-9.747-21.428-21.427a1.455 1.455 0 01.407-1.081A1.522 1.522 0 012.525 1zm0 1H2.525a.513.513 0 00-.37.159.463.463 0 00-.132.344c.513 11.16 9.314 19.962 20.474 20.475a.46.46 0 00.345-.133.512.512 0 00.158-.368v-4.44C23 16.8 22.411 16 21.5 16h-5.793l-1.869 1.868-.337-.209a19.176 19.176 0 01-6.161-6.161l-.209-.337L9 9.293V3.5C9 2.673 8.327 2 7.5 2zM23 2v6h-1V3.707l-8 8-.707-.707 8-8H17V2h6z" fill="currentColor" fill-rule="evenodd"></path>
  </symbol>
  <symbol xmlns="http://www.w3.org/2000/svg" viewBox="0 0 24 24" id="warning">
    <title>Icons / Mastercard / UI / warning</title>
    <path d="M12.5 1L23 23H2L12.5 1zm0 2.322L3.585 22h17.83L12.5 3.322zM13 18v2h-1v-2h1zm0-11v9h-1V7h1z" fill="currentColor" fill-rule="evenodd"></path>
  </symbol>
  <symbol xmlns="http://www.w3.org/2000/svg" viewBox="0 0 24 24" id="bomb">
    <title>Icons / Mastercard / UI / bomb</title>
    <path d="M21.182 4.646a2.497 2.497 0 00-3.422-.093l-1.424-1.424a1 1 0 00-1.415 0l-2.425 2.425C9.469 4.417 5.921 5.058 3.49 7.489c-3.314 3.314-3.314 8.707 0 12.021a8.472 8.472 0 006.01 2.485 8.472 8.472 0 006.01-2.485c2.431-2.432 3.071-5.979 1.935-9.007l2.425-2.426a1 1 0 000-1.414L18.477 5.27c.588-.479 1.448-.465 1.997.082.436.436 1.014.648 1.769.648H23V5h-.757c-.483 0-.82-.112-1.061-.354zm-6.379 14.158c-2.924 2.924-7.682 2.925-10.606 0-2.924-2.925-2.924-7.683 0-10.607A7.472 7.472 0 019.5 6.003c1.92 0 3.841.731 5.303 2.193 2.924 2.925 2.924 7.683 0 10.608zm4.361-11.433l-2.152 2.152a8.472 8.472 0 00-3.536-3.536l2.152-2.152 3.536 3.536z" fill="currentColor" fill-rule="evenodd"></path>
  </symbol>
  <symbol xmlns="http://www.w3.org/2000/svg" viewBox="0 0 24 24" id="call-active">
    <title>Icons / Mastercard / UI / call active</title>
    <path d="M7.5 1C8.878 1 10 2.121 10 3.5v6.207l-1.598 1.598a18.196 18.196 0 005.292 5.293L15.293 15H21.5c1.244 0 2.5.939 2.5 3.037v4.439c0 .41-.17.808-.466 1.091a1.462 1.462 0 01-1.015.411c-.022 0-.045 0-.067-.002-11.68-.537-20.891-9.747-21.428-21.427a1.452 1.452 0 01.408-1.081A1.52 1.52 0 012.525 1H7.5zm0 1H2.525a.513.513 0 00-.37.159.463.463 0 00-.132.344c.513 11.16 9.314 19.962 20.474 20.475a.46.46 0 00.345-.133.512.512 0 00.158-.368v-4.439C23 16.8 22.411 16 21.5 16h-5.793l-1.869 1.868-.337-.209a19.176 19.176 0 01-6.161-6.161l-.209-.337L9 9.293V3.5C9 2.673 8.327 2 7.5 2zM14 6c2.757 0 5 2.243 5 5h-1c0-2.206-1.794-4-4-4V6zm0-4c4.962 0 9 4.037 9 9h-1c0-4.411-3.589-8-8-8V2z" fill="currentColor" fill-rule="evenodd"></path>
  </symbol>
  <symbol xmlns="http://www.w3.org/2000/svg" viewBox="0 0 24 24" id="hand-gesture-9">
    <title>Icons / Mastercard / UI / hand gesture 9</title>
    <path d="M15.972 6.401c.767-.64 1.988-.604 2.705.113.378.378.586.88.586 1.414 0 .535-.208 1.037-.586 1.414l-1.61 1.61c.33.087.644.252.903.511.621.621.739 1.549.371 2.296a1.95 1.95 0 011.043.533 1.983 1.983 0 01.381 2.28 2 2 0 011.031 3.376l-3.536 3.536-.707-.707 3.536-3.536c.39-.391.39-1.025 0-1.415a1.003 1.003 0 00-1.414 0l-1.414 1.415-.707-.707 1.061-1.061.354-.353h.001l.705-.705a.993.993 0 00.293-.707.993.993 0 00-.293-.707A1.024 1.024 0 0017.262 15l-.078.078-.276.277-.001-.001-1.769 1.768-.707-.707 2.476-2.475.354-.354c.39-.391.39-1.025 0-1.415a1.003 1.003 0 00-1.413-.001L13.018 15l-.707-.707 2.831-2.83.002-.002 2.472-2.472.354-.353a.997.997 0 000-1.414 1.025 1.025 0 00-1.414 0l-.353.354-.001-.001-7.126 7.126a.624.624 0 01-1.066-.442v-2.441a.997.997 0 00-.293-.707 1.025 1.025 0 00-1.415 0 .993.993 0 00-.292.707h.001l-.012 8.183-1-.001.011-7.683v-.5c0-.535.208-1.037.585-1.414.755-.755 2.072-.757 2.829 0 .378.378.586.88.586 1.414v1.535l6.838-6.839.001.001zM6 1.293L9.207 4.5 6 7.707 5.293 7l2-2H4V4h3.293l-2-2L6 1.293zm7 0l.707.707-2 2H15v1h-3.293l2 2-.707.707L9.793 4.5 13 1.293z" fill="currentColor" fill-rule="evenodd"></path>
  </symbol>
  <symbol xmlns="http://www.w3.org/2000/svg" viewBox="0 0 24 24" id="collapse">
    <title>Icons / Mastercard / UI / collapse</title>
    <path d="M12.5 2C18.29 2 23 6.71 23 12.5S18.29 23 12.5 23 2 18.29 2 12.5 6.71 2 12.5 2zm0 1C7.262 3 3 7.262 3 12.5S7.262 22 12.5 22s9.5-4.262 9.5-9.5S17.738 3 12.5 3zm6.5 9v1H6v-1h13z" fill="currentColor" fill-rule="evenodd"></path>
  </symbol>
  <symbol xmlns="http://www.w3.org/2000/svg" viewBox="0 0 24 24" id="time-30-mins">
    <title>Icons / Mastercard / UI / time 30 mins</title>
    <path d="M12.5 2C18.29 2 23 6.71 23 12.5S18.29 23 12.5 23 2 18.29 2 12.5 6.71 2 12.5 2zm0 1C7.262 3 3 7.262 3 12.5S7.262 22 12.5 22s9.5-4.262 9.5-9.5S17.738 3 12.5 3zm.5 1v17h-1V4h1zM9.317 17.012l.866.5-1 1.732-.866-.5 1-1.732zm-1.831-2.195l.5.865-1.732 1-.5-.865 1.732-1zM7 12v1H5v-1h2zm-.746-3.682l1.732 1-.5.865-1.731-1 .5-.865zm2.93-2.563l.999 1.732-.866.5-1-1.732.866-.5z" fill="currentColor" fill-rule="evenodd"></path>
  </symbol>
  <symbol xmlns="http://www.w3.org/2000/svg" viewBox="0 0 24 24" id="hand-gesture-40">
    <title>Icons / Mastercard / UI / hand gesture 40</title>
    <path d="M9.5 7c1.103 0 2 .897 2 2v2.278a1.978 1.978 0 011-.278c.872 0 1.607.564 1.88 1.344a1.988 1.988 0 013 1A2.002 2.002 0 0120.5 15v4.5l-.522 3.077-.986-.169.515-2.993-.006-3.915H19.5V15a1.001 1.001 0 00-2 0v2h-1v-3a1.001 1.001 0 00-2 0v3h-1v-4c0-.551-.449-1-1-1-.551 0-1 .449-1 1v4h-1V9c0-.551-.449-1-1-1-.551 0-1 .449-1 1v10.577a.624.624 0 01-1.068.441l-1.725-1.725a1.025 1.025 0 00-1.414 0A.993.993 0 004 19c0 .267.104.518.293.707l.002.002.002-.002.349.353 1.922 1.943-.711.703-1.922-1.943-.349-.349A1.986 1.986 0 013 19c0-.534.208-1.036.586-1.414.756-.756 2.072-.756 2.828 0L7.5 18.672V9c0-1.103.897-2 2-2zm3.536-1.536l.354.354-.707.707-.354-.354a4.004 4.004 0 00-5.657 0l-.354.354-.707-.707.354-.354a5.006 5.006 0 017.071 0zM9.5 1c2.137 0 4.146.832 5.657 2.343l.354.354-.707.707-.354-.354A6.956 6.956 0 009.5 2c-1.87 0-3.627.728-4.95 2.05l-.353.354-.707-.707.353-.354A7.948 7.948 0 019.5 1z" fill="currentColor" fill-rule="evenodd"></path>
  </symbol>
  <symbol xmlns="http://www.w3.org/2000/svg" viewBox="0 0 24 24" id="hand-gesture-43">
    <title>Icons / Mastercard / UI / hand gesture 43</title>
    <path d="M12 4c1.103 0 2 .897 2 2v9.672l1.086-1.086c.756-.756 2.072-.756 2.828 0 .378.378.586.88.586 1.414 0 .534-.208 1.036-.584 1.414l-.354.354-5.425 5.439-.708-.706 5.778-5.794.087-.1a1 1 0 00-.086-1.316 1.025 1.025 0 00-1.414.001l-1.726 1.726A.627.627 0 0113 16.577V6a1.001 1.001 0 00-2 0v8h-1v-4a1.001 1.001 0 00-2 0v4H7v-3a1.001 1.001 0 00-2 0v3H4v-2a1.001 1.001 0 00-2 0v4.5l1.075 6.411-.986.164-1.082-6.493-.006-4.082L1 12a2.002 2.002 0 013.12-1.656A1.995 1.995 0 016 9c.414 0 .8.127 1.12.344A1.995 1.995 0 019 8c.366 0 .705.106 1 .278V6c0-1.103.897-2 2-2zm7.5 3.793L22.707 11l-.707.707-2-2V14h-1V9.707l-2 2-.707-.707L19.5 7.793zM20 1v4.293l2-2 .707.707L19.5 7.207 16.293 4 17 3.293l2 2V1h1z" fill="currentColor" fill-rule="evenodd"></path>
  </symbol>
  <symbol xmlns="http://www.w3.org/2000/svg" viewBox="0 0 24 24" id="hand-gesture-4">
    <title>Icons / Mastercard / UI / hand gesture 4</title>
    <path d="M16.119 5.202c.78-.78 2.049-.78 2.829 0l3.536 3.536-.707.707-3.535-3.536a1 1 0 00-1.415 1.414l1.415 1.415-.707.707L16.12 8.03l-.353-.355-.354-.353a1.002 1.002 0 00-1.414 0 1.002 1.002 0 000 1.415l2.122 2.122-.707.707-2.83-2.83a1.002 1.002 0 00-1.708.707c0 .267.104.518.293.707l2.829 2.829-.707.707-5.657-5.657-.094-.083a1 1 0 00-1.32 1.498l7.479 7.479a.624.624 0 01-.442 1.067h-2.441a.993.993 0 00-.707.293.993.993 0 00-.293.707c0 .267.104.518.293.707.189.189.44.293.707.293h.5L19 20v1l-7.794-.008h-.389a1.986 1.986 0 01-1.414-.586 1.986 1.986 0 01-.586-1.414c0-.534.208-1.036.586-1.414.378-.378.88-.586 1.414-.586h1.536l-6.839-6.839a2.003 2.003 0 010-2.829 2.002 2.002 0 012.828 0l1.609 1.609c.089-.337.259-.649.512-.902a1.996 1.996 0 012.28-.38 1.99 1.99 0 012.828-1.414c.072-.379.255-.742.548-1.035zM7.208 3.518v1h-.5c-2.206 0-4 1.794-4 4v.5h-1v-.5c0-2.757 2.243-5 5-5h.5z" fill="currentColor" fill-rule="evenodd"></path>
  </symbol>
  <symbol xmlns="http://www.w3.org/2000/svg" viewBox="0 0 24 24" id="list-view">
    <title>Icons / Mastercard / UI / list view</title>
    <path d="M4.5 18a2.5 2.5 0 110 5 2.5 2.5 0 010-5zm0 1c-.827 0-1.5.673-1.5 1.5S3.673 22 4.5 22 6 21.327 6 20.5 5.327 19 4.5 19zM23 20v1H9v-1h14zM4.5 10a2.5 2.5 0 110 5 2.5 2.5 0 010-5zm0 1c-.827 0-1.5.673-1.5 1.5S3.673 14 4.5 14 6 13.327 6 12.5 5.327 11 4.5 11zM23 12v1H9v-1h14zM4.5 2a2.5 2.5 0 110 5 2.5 2.5 0 010-5zm0 1C3.673 3 3 3.673 3 4.5S3.673 6 4.5 6 6 5.327 6 4.5 5.327 3 4.5 3zM23 4v1H9V4h14z" fill="currentColor" fill-rule="evenodd"></path>
  </symbol>
  <symbol xmlns="http://www.w3.org/2000/svg" viewBox="0 0 24 24" id="hand-gesture-7">
    <title>Icons / Mastercard / UI / hand gesture 7</title>
    <path d="M13.292 4.364a2.003 2.003 0 012.828 0l6.365 6.365-.707.707-6.365-6.365a1.004 1.004 0 00-1.415 0 1.002 1.002 0 000 1.415l.354.354 3.889 3.889-.707.707-5.656-5.657-.094-.083a1.004 1.004 0 00-1.321.083 1.004 1.004 0 00-.001 1.413l5.658 5.658-.707.707-5.304-5.304-.001.001-.255-.256-.451-.451-.243-.244-.111-.111a1.025 1.025 0 00-1.413.001.993.993 0 00-.293.707.99.99 0 00.293.707l1.06 1.06 5.304 5.305-.707.707-5.658-5.658a1 1 0 00-1.414 1.415l7.479 7.479a.62.62 0 01.136.68.622.622 0 01-.577.387h-2.44a.994.994 0 00-.708.293.993.993 0 00-.292.707c0 .268.104.519.292.707.189.189.44.293.708.293h.5l7.684.01-.002 1-7.793-.01h-.389a1.987 1.987 0 01-1.415-.586 1.986 1.986 0 01-.585-1.414c0-.535.208-1.037.585-1.414.378-.378.88-.586 1.415-.586h1.534l-6.838-6.839a2.003 2.003 0 010-2.829 1.993 1.993 0 011.033-.548 1.977 1.977 0 01.381-2.281c.596-.596 1.537-.715 2.28-.371.071-.383.253-.748.548-1.043a2.003 2.003 0 012.829 0l.196.196c.088-.33.252-.644.511-.903zM13 1v1h-.5C7.262 2 3 6.262 3 11.5v.5H2v-.5C2 5.71 6.71 1 12.5 1h.5z" fill="currentColor" fill-rule="evenodd"></path>
  </symbol>
  <symbol xmlns="http://www.w3.org/2000/svg" viewBox="0 0 24 24" id="hand-gesture-6">
    <title>Icons / Mastercard / UI / hand gesture 6</title>
    <path d="M9.755 5.073a2.003 2.003 0 012.829 0l.354.353 2.67 2.671a1.98 1.98 0 01.512-.903c.756-.757 2.074-.757 2.828 0l3.536 3.536-.707.707-3.183-3.183-.239-.24-.115-.114-.091-.08a1.03 1.03 0 00-1.323.08.993.993 0 00-.293.707c0 .267.104.518.293.707l.354.353 1.061 1.062-.707.707-5.656-5.657-.094-.083a1.004 1.004 0 00-1.321.083 1.004 1.004 0 00-.001 1.413l5.658 5.658-.707.707-5.304-5.304-.001.001-.255-.256-.451-.451-.243-.244-.111-.111a1.025 1.025 0 00-1.413.001.993.993 0 00-.293.707.99.99 0 00.293.707l1.06 1.06 5.304 5.305-.707.707-5.658-5.658a1 1 0 00-1.414 1.415l7.479 7.479a.62.62 0 01.136.68.622.622 0 01-.577.387h-2.44a.994.994 0 00-.708.293.993.993 0 00-.292.707c0 .268.104.519.292.707.189.189.44.293.708.293h.5l7.684.01-.002 1-7.793-.01h-.389a1.987 1.987 0 01-1.415-.586 1.986 1.986 0 01-.585-1.414c0-.535.208-1.037.585-1.414.378-.378.88-.586 1.415-.586h1.534l-6.838-6.839a2.003 2.003 0 010-2.829 1.993 1.993 0 011.033-.548 1.977 1.977 0 01.38-2.279c.596-.596 1.537-.715 2.28-.371.071-.383.253-.748.548-1.043zM11 2v1h-.5C6.364 3 3 6.364 3 10.5v.5H2v-.5C2 5.813 5.813 2 10.5 2h.5z" fill="currentColor" fill-rule="evenodd"></path>
  </symbol>
  <symbol xmlns="http://www.w3.org/2000/svg" viewBox="0 0 24 24" id="location-country-selector">
    <title>Icons / Mastercard / UI / location country selector</title>
    <path d="M17.409 10.766l2.334 1.296a.498.498 0 01.248.34l2 10a.5.5 0 01-.767.514l-4.25-2.832-5.234 2.854a.492.492 0 01-.478.001l-5.235-2.854-4.25 2.832a.502.502 0 01-.767-.514l2-10a.5.5 0 01.248-.34l2.269-1.261c.117.31.238.623.37.939l-1.951 1.084-1.718 8.589 3.496-2.33a.495.495 0 01.516-.022l5.26 2.869 5.26-2.869a.502.502 0 01.517.022l3.496 2.33-1.718-8.589L17.03 11.7c.135-.316.259-.626.379-.934zM11.5 1c3.248 0 5.88 2.262 5.88 5.881 0 3.498-5.495 12.492-5.861 13.088L11.5 20S5.62 10.952 5.62 6.881C5.62 3.714 8.253 1 11.5 1zm0 1C8.855 2 6.62 4.235 6.62 6.881c0 2.636 2.99 8.122 4.863 11.206 1.873-3.203 4.899-8.868 4.899-11.206C16.382 4.007 14.375 2 11.5 2zm0 2a3 3 0 110 6 3 3 0 010-6zm0 1c-1.103 0-2 .897-2 2s.897 2 2 2 2-.897 2-2-.897-2-2-2z" fill="currentColor" fill-rule="evenodd"></path>
  </symbol>
  <symbol xmlns="http://www.w3.org/2000/svg" viewBox="0 0 24 24" id="favorite">
    <title>Icons / Mastercard / UI / favorite</title>
    <path d="M17.75 13.014l1.622 3.287 3.628.527-2.625 2.559.62 3.613-3.245-1.706L14.505 23l.62-3.613-2.625-2.559 3.628-.527 1.622-3.287zm.001 2.26l-.726 1.47-.233.471-.52.076-1.622.236 1.174 1.144.376.367-.089.518-.277 1.616 1.451-.763.465-.245.465.245 1.451.763-.277-1.616-.087-.518.376-.367 1.174-1.144-1.622-.236-.52-.076-.233-.471-.726-1.47zM17 1v11.274l-.147.297L16 14.3V2H2v17h11.295l.755.736-.045.264H1V1h16zm-3 12v1H7v-1h7zm-8 0v1H4v-1h2zm8-4v1H7V9h7zM6 9v1H4V9h2zm8-4v1H7V5h7zM6 5v1H4V5h2z" fill="currentColor" fill-rule="evenodd"></path>
  </symbol>
  <symbol xmlns="http://www.w3.org/2000/svg" viewBox="0 0 24 24" id="hand-gesture-41">
    <title>Icons / Mastercard / UI / hand gesture 41</title>
    <path d="M12 7.207c1.103 0 2 .897 2 2v9.672l1.086-1.086c.756-.756 2.072-.756 2.828 0 .378.378.586.88.586 1.414 0 .534-.208 1.036-.586 1.414l-.349.349-1.922 1.943-.711-.703 1.922-1.943.349-.353.002.002a1 1 0 00.003-1.417 1.025 1.025 0 00-1.414 0l-1.726 1.726A.627.627 0 0113 19.784V9.207c0-.551-.449-1-1-1-.551 0-1 .449-1 1v8h-1v-4c0-.551-.449-1-1-1-.551 0-1 .449-1 1v4H7v-3a1.001 1.001 0 00-2 0v3H4v-2a1.001 1.001 0 00-2 0v4.5l.508 2.908-.986.169-.514-2.992-.007-4.085-.001-.5a2.002 2.002 0 013.12-1.656 1.988 1.988 0 013-1A1.995 1.995 0 019 11.207c.366 0 .705.106 1 .278V9.207c0-1.103.897-2 2-2zM8.5 1l.707.707-2.5 2.5H9.5c5.79 0 10.5 4.71 10.5 10.5V16l2.5-2.5.707.707-3.707 3.707-3.707-3.707.707-.707L19 16v-1.293c0-5.238-4.262-9.5-9.5-9.5H6.707l2.5 2.5-.707.707-3.707-3.707L8.5 1z" fill="currentColor" fill-rule="evenodd"></path>
  </symbol>
  <symbol xmlns="http://www.w3.org/2000/svg" viewBox="0 0 24 24" id="feedback">
    <title>Icons / Mastercard / UI / feedback</title>
    <path d="M15.5 8c1.378 0 2.5 1.121 2.5 2.5v6c0 1.379-1.122 2.5-2.5 2.5H9.707l-4 4A1 1 0 014 22.293V19h-.5A2.503 2.503 0 011 16.5v-6C1 9.121 2.122 8 3.5 8h12zm0 1h-12C2.673 9 2 9.673 2 10.5v6c0 .827.673 1.5 1.5 1.5H5v4.293L9.293 18H15.5c.827 0 1.5-.673 1.5-1.5v-6c0-.827-.673-1.5-1.5-1.5zM12 14v1H4v-1h8zm2-3v1H3.999v-1H14zm7.5-10C22.878 1 24 2.121 24 3.5v6c0 1.379-1.122 2.5-2.5 2.5H19v-1h2.5c.827 0 1.5-.673 1.5-1.5v-6c0-.827-.673-1.5-1.5-1.5h-12C8.673 2 8 2.673 8 3.5V7H7V3.5C7 2.121 8.122 1 9.5 1h12z" fill="currentColor" fill-rule="evenodd"></path>
  </symbol>
  <symbol xmlns="http://www.w3.org/2000/svg" viewBox="0 0 24 24" id="notification">
    <title>Icons / Mastercard / UI / notification</title>
    <path d="M12.5 2C18.29 2 23 6.71 23 12.5S18.29 23 12.5 23 2 18.29 2 12.5 6.71 2 12.5 2zm0 1C7.262 3 3 7.262 3 12.5S7.262 22 12.5 22s9.5-4.262 9.5-9.5S17.738 3 12.5 3zm.5 14v2h-1v-2h1zm0-11v9h-1V6h1z" fill="currentColor" fill-rule="evenodd"></path>
  </symbol>
  <symbol xmlns="http://www.w3.org/2000/svg" viewBox="0 0 24 24" id="hand-gesture-5">
    <title>Icons / Mastercard / UI / hand gesture 5</title>
    <path d="M6.927 5.486a2.002 2.002 0 012.829 0l.354.353 2.672 2.673c.087-.331.251-.645.51-.904a1.998 1.998 0 012.279-.379c.075-.39.262-.748.549-1.035.756-.757 2.074-.757 2.828 0l3.536 3.536-.707.707-3.183-3.183-.239-.24-.115-.114-.092-.08a1.03 1.03 0 00-1.322.08.993.993 0 00-.293.707c0 .267.104.518.293.707l.354.353 1.062 1.062-.707.707-2.121-2.122A1 1 0 0014 9.729l2.122 2.122-.707.707L9.05 6.193a1 1 0 00-1.415 1.414l1.06 1.06 5.304 5.305-.707.707-5.658-5.658a1 1 0 10-1.414 1.415l7.479 7.479a.62.62 0 01.136.68.622.622 0 01-.577.387h-2.441a.993.993 0 00-.707.293.993.993 0 00-.293.707c0 .267.104.518.293.707.189.189.44.293.707.293h.5l7.684.01-.002 1-7.793-.01h-.389a1.986 1.986 0 01-1.414-.586 1.986 1.986 0 01-.586-1.414c0-.534.208-1.036.586-1.414.378-.378.88-.586 1.414-.586h1.535l-6.838-6.839a2.003 2.003 0 010-2.829 1.982 1.982 0 011.034-.548 1.997 1.997 0 01.379-2.28zm1.915-2.965v1h-.5a5.506 5.506 0 00-5.5 5.5v.5h-1v-.5c0-3.584 2.916-6.5 6.5-6.5h.5z" fill="currentColor" fill-rule="evenodd"></path>
  </symbol>
  <symbol xmlns="http://www.w3.org/2000/svg" viewBox="0 0 24 24" id="hand-gesture-1">
    <title>Icons / Mastercard / UI / hand gesture 1</title>
    <path d="M14.413 4.071l6.364 6.364.707-.707-6.01-6.011-.354-.353a2.002 2.002 0 00-2.828 0 1.973 1.973 0 00-.51.904l-.197-.197a2.002 2.002 0 00-3.377 1.035 1.994 1.994 0 00-2.28.38 1.998 1.998 0 00-.38 2.28 1.982 1.982 0 00-1.034.548c-.78.78-.78 2.049 0 2.829l.354.354 6.485 6.485H9.817c-.534 0-1.036.208-1.414.586-.378.378-.586.88-.586 1.414 0 .534.208 1.036.586 1.414.378.378.88.586 1.414.586h.389l7.794.009.001-1-7.684-.01h-.5a.993.993 0 01-.707-.293.993.993 0 01-.293-.707c0-.267.104-.518.293-.707a.993.993 0 01.707-.293h2.441a.624.624 0 00.442-1.067l-7.125-7.125-.354-.354A1 1 0 116.635 9.02l.354.354 5.304 5.304.707-.707-5.305-5.304-.353-.353-.354-.354-.353-.353A1 1 0 018.05 6.193l.354.354.352.353.354.354 5.303 5.303.707-.707-5.303-5.303-.354-.354a1 1 0 111.414-1.415l5.657 5.657.707-.707-3.889-3.888-.354-.354a1.002 1.002 0 010-1.415 1.004 1.004 0 011.415 0z" fill="currentColor" fill-rule="evenodd"></path>
  </symbol>
  <symbol xmlns="http://www.w3.org/2000/svg" viewBox="0 0 24 24" id="refresh">
    <title>Icons / Mastercard / UI / refresh</title>
    <path d="M7 3v5H6V4.595l-.244.212A9.421 9.421 0 003 11.5c0 2.538.988 4.924 2.782 6.718A9.442 9.442 0 0012.5 21h.5v1h-.5a10.435 10.435 0 01-7.425-3.075A10.433 10.433 0 012 11.5c0-2.805 1.092-5.441 3.075-7.425L5.162 4H2V3h5zm5.5-1c2.804 0 5.441 1.092 7.425 3.075A10.433 10.433 0 0123 12.5c0 2.805-1.092 5.441-3.075 7.425l-.087.075H23v1h-5v-5h1v3.405l.244-.212A9.421 9.421 0 0022 12.5a9.438 9.438 0 00-2.782-6.718A9.442 9.442 0 0012.5 3H12V2z" fill="currentColor" fill-rule="evenodd"></path>
  </symbol>
  <symbol xmlns="http://www.w3.org/2000/svg" viewBox="0 0 24 24" id="expression-sad">
    <title>Icons / Mastercard / UI / expression sad</title>
    <path d="M12.5 2C18.29 2 23 6.71 23 12.5S18.29 23 12.5 23 2 18.29 2 12.5 6.71 2 12.5 2zm0 1C7.262 3 3 7.262 3 12.5S7.262 22 12.5 22s9.5-4.262 9.5-9.5S17.738 3 12.5 3zm0 12c1.645 0 3.191.641 4.354 1.804l.354.354-.708.706-.354-.354A5.122 5.122 0 0012.5 16a5.12 5.12 0 00-3.646 1.511l-.354.353-.707-.707.354-.354A6.116 6.116 0 0112.5 15zM16 8a1 1 0 110 2 1 1 0 010-2zM9 8a1 1 0 110 2 1 1 0 010-2z" fill="currentColor" fill-rule="evenodd"></path>
  </symbol>
  <symbol xmlns="http://www.w3.org/2000/svg" viewBox="0 0 24 24" id="hand-gesture-42">
    <title>Icons / Mastercard / UI / hand gesture 42</title>
    <path d="M12 4.207c1.103 0 2 .897 2 2v9.672l1.086-1.086c.756-.756 2.072-.756 2.828 0 .378.378.586.88.586 1.414 0 .534-.208 1.036-.584 1.414l-.354.354-5.425 5.439-.708-.706 5.778-5.794.087-.1a1 1 0 00-.086-1.316 1.025 1.025 0 00-1.414.001l-1.726 1.726A.627.627 0 0113 16.784V6.207a1.001 1.001 0 00-2 0v8h-1v-4a1.001 1.001 0 00-2 0v4H7v-3a1.001 1.001 0 00-2 0v3H4v-2a1.001 1.001 0 00-2 0v4.5l1.075 6.411-.986.164-1.082-6.493-.006-4.082-.001-.5a2.002 2.002 0 013.12-1.656A1.995 1.995 0 016 9.207c.414 0 .8.127 1.12.344A1.995 1.995 0 019 8.207c.366 0 .705.106 1 .278V6.207c0-1.103.897-2 2-2zm8 4V12.5l2-2 .707.707-3.207 3.207-3.207-3.207L17 10.5l2 2V8.207h1zM19.5 1l3.207 3.207-.707.707-2-2v4.293h-1V2.914l-2 2-.707-.707L19.5 1z" fill="currentColor" fill-rule="evenodd"></path>
  </symbol>
  <symbol xmlns="http://www.w3.org/2000/svg" viewBox="0 0 24 24" id="product-highlights">
    <title>Icons / Mastercard / UI / product highlights</title>
    <path d="M18.837 22.414L12 18.819l-6.837 3.595 1.306-7.613L.937 9.409l7.645-1.111L12 1.37l3.419 6.928 7.645 1.111-5.532 5.392 1.305 7.613zM12 17.69l5.509 2.896-1.052-6.135 4.457-4.345-6.159-.895L12 3.63 9.245 9.212l-6.159.895 4.457 4.345-1.052 6.135L12 17.69z" fill="currentColor" fill-rule="evenodd"></path>
  </symbol>
  <symbol xmlns="http://www.w3.org/2000/svg" viewBox="0 0 24 24" id="expression-not-sure">
    <title>Icons / Mastercard / UI / expression not sure</title>
    <path d="M12.5 2C18.29 2 23 6.71 23 12.5S18.29 23 12.5 23 2 18.29 2 12.5 6.71 2 12.5 2zm0 1C7.262 3 3 7.262 3 12.5S7.262 22 12.5 22s9.5-4.262 9.5-9.5S17.738 3 12.5 3zm4.471 12.187l.149.988-9.091 1.365-.149-.988 9.091-1.365zM16 8a1 1 0 110 2 1 1 0 010-2zM9 8a1 1 0 110 2 1 1 0 010-2z" fill="currentColor" fill-rule="evenodd"></path>
  </symbol>
  <symbol xmlns="http://www.w3.org/2000/svg" viewBox="0 0 24 24" id="faq">
    <title>Icons / Mastercard / UI / faq</title>
    <path d="M20.5 3C22.43 3 24 4.57 24 6.5v11c0 1.93-1.57 3.5-3.5 3.5h-17C1.57 21 0 19.43 0 17.5v-11C0 4.57 1.57 3 3.5 3h17zm0 1h-17A2.503 2.503 0 001 6.5v11C1 18.879 2.122 20 3.5 20h17c1.378 0 2.5-1.121 2.5-2.5v-11C23 5.121 21.878 4 20.5 4zm-3.227 4.889c.46 0 .883.078 1.269.233.385.156.717.372.994.649s.493.605.647.985c.154.38.231.795.231 1.243 0 .392-.06.756-.178 1.093a3.07 3.07 0 01-.499.908l.746.998h-1.136l-.291-.386a3.14 3.14 0 01-.825.369 3.482 3.482 0 01-.958.128c-.46 0-.883-.077-1.269-.233a2.944 2.944 0 01-.994-.649 2.925 2.925 0 01-.647-.985A3.276 3.276 0 0114.132 12c0-.448.077-.863.231-1.243.154-.38.37-.708.647-.985s.609-.493.994-.649a3.36 3.36 0 011.269-.234zM8.193 9v.917H4.881v1.603h3.115v.917H4.881v2.562h-.969V9h4.281zm3.552 0l2.37 5.999h-1.042l-.591-1.529H9.766l-.591 1.529H8.167L10.537 9h1.208zm5.528.818a2.25 2.25 0 00-.849.159c-.26.105-.484.254-.672.445a2.085 2.085 0 00-.444.689 2.378 2.378 0 00-.161.888c0 .322.054.618.161.887.107.269.255.499.444.689.188.192.413.341.672.446.26.105.543.158.849.158.229 0 .443-.029.643-.088s.386-.144.557-.255l-1.238-1.646h1.157l.716.964c.091-.162.163-.34.214-.533.051-.192.077-.4.077-.623 0-.323-.054-.619-.161-.888a1.983 1.983 0 00-1.116-1.134 2.266 2.266 0 00-.849-.158zm-6.15.147l-1.002 2.588h2.005l-1.003-2.588z" fill="currentColor" fill-rule="evenodd"></path>
  </symbol>
  <symbol xmlns="http://www.w3.org/2000/svg" viewBox="0 0 24 24" id="sent">
    <title>Icons / Mastercard / UI / sent</title>
    <path d="M21.525 11.438L3.028.758a.626.626 0 00-.907.73L4.817 10h1.049l-2.5-7.893L20.5 12 3.286 21.938 5.886 12H15v-1H5.134L2.092 22.555a.624.624 0 00.917.698l18.515-10.689a.653.653 0 00.326-.563.653.653 0 00-.325-.563z" fill="currentColor" fill-rule="evenodd"></path>
  </symbol>
  <symbol xmlns="http://www.w3.org/2000/svg" viewBox="0 0 24 24" id="range">
    <title>Icons / Mastercard / UI / range</title>
    <path d="M19.854 9.146l-.707.707L21.293 12H17v-2h-5v2H2.707l2.146-2.146-.707-.708L.793 12.5l3.354 3.354.707-.707L2.707 13H12v2h5v-2h4.293l-2.146 2.146.707.707 3.354-3.354-3.354-3.353zM16 14h-3v-3h3v3z" fill="currentColor" fill-rule="evenodd"></path>
  </symbol>
  <symbol xmlns="http://www.w3.org/2000/svg" viewBox="0 0 24 24" id="hand-gesture-2">
    <title>Icons / Mastercard / UI / hand gesture 2</title>
    <path d="M18.117 8.384l-3.536-3.536-.354-.354a2.003 2.003 0 00-2.829 0 1.991 1.991 0 00-.549 1.043c-.744-.343-1.685-.224-2.279.371a1.997 1.997 0 00-.547 1.036 1.998 1.998 0 00-2.28.379 1.996 1.996 0 00-.371 2.296 1.946 1.946 0 00-1.043.533c-.78.78-.78 2.049 0 2.829l.354.354 3.657 3.657H6.803c-.534 0-1.036.208-1.414.586-.378.378-.586.88-.586 1.414 0 .534.208 1.036.586 1.414.378.378.88.586 1.414.586h.389l7.794.008.001-1-7.684-.01h-.5a.993.993 0 01-.707-.293.993.993 0 01-.293-.707c0-.267.104-.518.293-.707a.993.993 0 01.707-.293h2.441a.624.624 0 00.442-1.067l-4.297-4.297-.354-.354a1.002 1.002 0 010-1.415 1.023 1.023 0 011.414 0l.353.354 2.475 2.475.707-.707-3.181-3.181-.353-.353a1.002 1.002 0 010-1.415 1.002 1.002 0 011.414 0l.706.706.001.002.354.354 2.474 2.475.707-.707-2.828-2.83a1 1 0 010-1.414 1.023 1.023 0 011.414 0l.354.354.354.354.354.354 1.768 1.768.707-.707L12.46 6.97l-.354-.354a1 1 0 011.415-1.414l.354.354 3.482 3.473 3.826 5.356.813-.581-3.879-5.42z" fill="currentColor" fill-rule="evenodd"></path>
  </symbol>
  <symbol xmlns="http://www.w3.org/2000/svg" viewBox="0 0 24 24" id="expression-happy">
    <title>Icons / Mastercard / UI / expression happy</title>
    <path d="M12.5 2C18.29 2 23 6.71 23 12.5S18.29 23 12.5 23 2 18.29 2 12.5 6.71 2 12.5 2zm0 1C7.262 3 3 7.262 3 12.5S7.262 22 12.5 22s9.5-4.262 9.5-9.5S17.738 3 12.5 3zm4 12.135l.707.707-.354.354A6.113 6.113 0 0112.5 18a6.117 6.117 0 01-4.354-1.804l-.354-.354.708-.706.354.354A5.122 5.122 0 0012.5 17a5.12 5.12 0 003.646-1.511l.354-.354zM16 8a1 1 0 110 2 1 1 0 010-2zM9 8a1 1 0 110 2 1 1 0 010-2z" fill="currentColor" fill-rule="evenodd"></path>
  </symbol>
  <symbol xmlns="http://www.w3.org/2000/svg" viewBox="0 0 24 24" id="file-delete">
    <title>Icons / Mastercard / UI / file delete</title>
    <path d="M18.5 13c2.481 0 4.5 2.019 4.5 4.5S20.981 22 18.5 22a4.505 4.505 0 01-4.5-4.5c0-2.481 2.019-4.5 4.5-4.5zm0 1c-1.93 0-3.5 1.57-3.5 3.5s1.57 3.5 3.5 3.5 3.5-1.57 3.5-3.5-1.57-3.5-3.5-3.5zM7.5 3C8.327 3 9 3.673 9 4.5V5h9.5c.827 0 1.5.673 1.5 1.5v5.713a5.419 5.419 0 00-1-.188V9H2v10h11.213c.099.349.231.683.394 1H1V4.5C1 3.673 1.673 3 2.5 3zm12.414 12.379l.707.707-1.414 1.414 1.414 1.414-.707.707-1.414-1.414-1.414 1.414-.707-.707 1.414-1.414-1.414-1.414.707-.707 1.414 1.414 1.414-1.414zM7.5 4h-5a.5.5 0 00-.5.5V8h17V6.5a.5.5 0 00-.5-.5H8V4.5a.5.5 0 00-.5-.5z" fill="currentColor" fill-rule="evenodd"></path>
  </symbol>
  <symbol xmlns="http://www.w3.org/2000/svg" viewBox="0 0 24 24" id="hand-gesture-44">
    <title>Icons / Mastercard / UI / hand gesture 44</title>
    <path d="M12 7c1.103 0 2 .897 2 2v2.278A1.978 1.978 0 0115 11c.872 0 1.607.564 1.88 1.344A1.99 1.99 0 0118 12c.872 0 1.607.564 1.88 1.344A2.002 2.002 0 0123 15v4.5l-.522 3.077-.985-.169.514-2.993-.006-3.915H22V15a1 1 0 00-2 0v2h-1v-3a1 1 0 00-2 0v3h-1v-4a1.001 1.001 0 00-2 0v4h-1V9a1.001 1.001 0 00-2 0v10.577a.623.623 0 01-1.067.442l-1.726-1.726a1.025 1.025 0 00-1.414 0A.993.993 0 006.5 19c0 .267.104.518.293.707l.002.002.002-.002.349.353 1.922 1.943-.711.703-1.922-1.943-.349-.349A1.986 1.986 0 015.5 19c0-.534.208-1.036.586-1.414.756-.756 2.072-.756 2.828 0L10 18.672V9c0-1.103.897-2 2-2zM6 7v1H1V7h5zm8-3v1H9V4h5zM6 4v1H1V4h5zm8-3v1H9V1h5zM6 1v1H1V1h5z" fill="currentColor" fill-rule="evenodd"></path>
  </symbol>
  <symbol xmlns="http://www.w3.org/2000/svg" viewBox="0 0 24 24" id="hand-gesture-37">
    <title>Icons / Mastercard / UI / hand gesture 37</title>
    <path d="M7 1c3.987 0 6.893 2.848 6.991 6.797a3.11 3.11 0 00-.991.208C13 4.467 10.533 2 7 2 3.748 2 1 4.748 1 8c0 3.642 4.554 11.242 5.991 13.55a99.136 99.136 0 003.371-6.122l.747.746a96.495 96.495 0 01-3.683 6.588l-.415.671-.43-.661C6.312 22.359 0 12.595 0 8c0-3.794 3.206-7 7-7zm11.399 5.495c.78-.78 2.049-.78 2.829 0l2.122 2.122-.707.707-2.122-2.122a1 1 0 00-1.415 1.414l2.121 2.121-.707.707-2.83-2.83a1 1 0 00-1.414 1.415l2.829 2.829-.707.708-3.535-3.536a.993.993 0 00-1.011-.234.98.98 0 00-.404.234.993.993 0 00-.293.707c0 .267.104.518.293.707l3.536 3.536-.707.707-2.475-2.475-.353-.354a1.023 1.023 0 00-1.414 0 .994.994 0 00-.293.708c0 .267.104.518.293.707l4.651 4.651a.626.626 0 01-.442 1.067h-2.441a.997.997 0 00-1 1c0 .268.104.519.293.708a.993.993 0 00.707.292v-.001l8.183.012-.001 1-7.683-.011h-.5a1.986 1.986 0 01-1.414-.585 1.987 1.987 0 01-.586-1.415c0-.534.208-1.036.586-1.414.378-.378.88-.586 1.414-.586h1.535l-4.01-4.01a1.986 1.986 0 01-.586-1.414c0-.536.208-1.038.586-1.415.129-.129.278-.228.434-.313a2.033 2.033 0 01.608-.221 1.948 1.948 0 01-.15-.407l-.008-.025a1.983 1.983 0 01.531-1.863c.14-.139.298-.244.463-.334.033-.018.064-.035.097-.051.17-.081.346-.139.528-.169l.018-.002c.196-.031.395-.031.591-.003h.001l.15.028c.148.033.293.084.433.151l.041-.167a2.242 2.242 0 01.508-.867c.139-.139.297-.244.462-.334l.096-.05c.17-.081.346-.139.528-.169l.018-.002c.197-.031.395-.031.592-.003l.15.028c.148.033.293.084.433.151l.041-.167c.034-.11.078-.216.129-.321l.06-.114c.086-.154.187-.302.318-.433zM7 4c2.206 0 4 1.794 4 4s-1.794 4-4 4-4-1.794-4-4 1.794-4 4-4zm0 1C5.346 5 4 6.346 4 8s1.346 3 3 3 3-1.346 3-3-1.346-3-3-3z" fill="currentColor" fill-rule="evenodd"></path>
  </symbol>
  <symbol xmlns="http://www.w3.org/2000/svg" viewBox="0 0 24 24" id="hand-gesture-3">
    <title>Icons / Mastercard / UI / hand gesture 3</title>
    <path d="M15.499 4.364a2.002 2.002 0 012.828 0l.354.353 6.01 6.011-.707.707-6.364-6.364a1.004 1.004 0 00-1.415 0 1.002 1.002 0 000 1.415l.354.354 3.889 3.888-.707.707-5.657-5.657-.094-.083a1 1 0 00-1.32 1.498l.354.354 5.303 5.303-.707.707-5.303-5.303-.354-.354-.352-.353-.354-.354a1 1 0 00-1.415 1.414l.353.353.354.354 5.658 5.657-.707.707-5.658-5.658a1 1 0 10-1.414 1.415l7.479 7.479a.624.624 0 01-.442 1.067h-2.441a.993.993 0 00-.707.293.993.993 0 00-.293.707c0 .267.104.518.293.707.189.189.44.293.707.293h.5l7.684.01-.001 1-7.794-.009h-.389a1.986 1.986 0 01-1.414-.586 1.986 1.986 0 01-.586-1.414c0-.534.208-1.036.586-1.414.378-.378.88-.586 1.414-.586h1.536l-6.485-6.485-.354-.354a2.003 2.003 0 010-2.829 1.982 1.982 0 011.034-.548 1.996 1.996 0 01.38-2.28 1.995 1.995 0 012.28-.38 2.002 2.002 0 013.377-1.035l.197.197c.087-.331.251-.645.51-.904zM14.207 2v1h-.5c-4.136 0-7.5 3.364-7.5 7.5v6.793l2.5-2.5.707.707-3.707 3.707L2 15.5l.707-.707 2.5 2.5V10.5c0-4.687 3.813-8.5 8.5-8.5h.5z" fill="currentColor" fill-rule="evenodd"></path>
  </symbol>
  <symbol xmlns="http://www.w3.org/2000/svg" viewBox="0 0 24 24" id="edit">
    <title>Icons / Mastercard / UI / edit</title>
    <path d="M22.596 4.919L19.06 1.383 3.114 17.33l-.095.095-1.267 4.765 4.514-.942 16.33-16.329zm-1.414 0l-1.768 1.768-2.121-2.121 1.768-1.769 2.121 2.122zM3.135 20.88l.781-2.938 12.669-12.67 2.122 2.122L5.771 20.33l-2.636.55z" fill="currentColor" fill-rule="evenodd"></path>
  </symbol>
  <symbol xmlns="http://www.w3.org/2000/svg" viewBox="0 0 24 24" id="hand-gesture-22">
    <title>Icons / Mastercard / UI / hand gesture 22</title>
    <path d="M5.5 12.5c2.481 0 4.5 2.019 4.5 4.5s-2.019 4.5-4.5 4.5A4.505 4.505 0 011 17c0-2.481 2.019-4.5 4.5-4.5zm0 1C3.57 13.5 2 15.07 2 17s1.57 3.5 3.5 3.5S9 18.93 9 17s-1.57-3.5-3.5-3.5zm12.912-9.815c.756-.756 2.074-.756 2.828 0l3.535 3.536-.707.707-3.182-3.183-.353-.354a1.021 1.021 0 00-1.413.001 1.002 1.002 0 000 1.415l1.415 1.415-.707.707-2.123-2.123a1.002 1.002 0 00-1.415 0 1.003 1.003 0 000 1.414l2.12 2.121-.707.707-1.768-1.768-.353-.354-.353-.353-.001.001-.353-.354a1.023 1.023 0 00-1.414 0 .993.993 0 00-.293.707c0 .267.104.518.293.707l.354.353 2.475 2.475-.707.707-5.656-5.656a1.023 1.023 0 00-1.414 0 .993.993 0 00-.293.707c0 .267.104.518.293.707l.353.353 7.125 7.126a.624.624 0 01-.442 1.067h-2.441a.997.997 0 00-.707 1.707c.189.189.44.293.707.293h.5l7.684.01-.001 1-7.793-.01h-.389a1.985 1.985 0 01-1.415-.586 1.99 1.99 0 01-.585-1.414c0-.534.208-1.036.586-1.414a1.983 1.983 0 011.414-.586h1.536L7.806 8.634A1.986 1.986 0 017.22 7.22c0-.535.208-1.037.586-1.414.755-.756 2.072-.756 2.828 0l.353.353 1.256 1.257a1.98 1.98 0 01.512-.903c.595-.595 1.536-.714 2.279-.371.072-.382.254-.748.549-1.043a1.997 1.997 0 012.28-.379c.073-.379.256-.742.549-1.035zM6 14.5v2.293L7.707 18.5 7 19.207l-2-2V14.5h1zM9.5 2v1H9C6.794 3 5 4.794 5 7v.5H4V7c0-2.757 2.243-5 5-5h.5z" fill="currentColor" fill-rule="evenodd"></path>
  </symbol>
  <symbol xmlns="http://www.w3.org/2000/svg" viewBox="0 0 24 24" id="call-incoming">
    <title>Icons / Mastercard / UI / call incoming</title>
    <path d="M7.5 1C8.878 1 10 2.121 10 3.5v6.207l-1.598 1.598a18.196 18.196 0 005.292 5.293L15.293 15H21.5c1.244 0 2.5.939 2.5 3.037v4.439c0 .41-.17.808-.466 1.091a1.462 1.462 0 01-1.015.411c-.022 0-.045 0-.067-.002-11.68-.537-20.891-9.747-21.428-21.427a1.452 1.452 0 01.408-1.081A1.52 1.52 0 012.525 1H7.5zm0 1H2.525a.513.513 0 00-.37.159.463.463 0 00-.132.344c.513 11.16 9.314 19.962 20.474 20.475a.46.46 0 00.345-.133.512.512 0 00.158-.368v-4.439C23 16.8 22.411 16 21.5 16h-5.793l-1.869 1.868-.337-.209a19.176 19.176 0 01-6.161-6.161l-.209-.337L9 9.293V3.5C9 2.673 8.327 2 7.5 2zm15-.207l.707.707-7.5 7.5H20v1h-6V5h1v4.293l7.5-7.5z" fill="currentColor" fill-rule="evenodd"></path>
  </symbol>
  <symbol xmlns="http://www.w3.org/2000/svg" viewBox="0 0 24 24" id="hand-gesture-36">
    <title>Icons / Mastercard / UI / hand gesture 36</title>
    <path d="M6 5.945c.206-.343.461-.69.766-1.041a5.476 5.476 0 012.532-1.64C9.851 3.089 10.483 3 11.194 3c.883 0 1.665.14 2.347.418.681.279 1.251.658 1.709 1.138.459.48.806 1.042 1.042 1.685.235.643.354 1.328.354 2.057 0 .549-.069 1.065-.206 1.55a7.004 7.004 0 01-.54 1.362 7.304 7.304 0 01-.777 1.189c-.296.368-.598.716-.906 1.041l-6.531 6.827h9.705v.874H6.309v-.72l7.2-7.521c.309-.316.596-.646.861-.989.265-.343.497-.705.694-1.087a5.97 5.97 0 00.462-1.195 5.14 5.14 0 00.168-1.331c0-.6-.097-1.167-.29-1.703a3.974 3.974 0 00-.861-1.408 4.017 4.017 0 00-1.42-.951c-.566-.231-1.218-.347-1.954-.347-.592 0-1.119.073-1.582.219a4.8 4.8 0 00-1.233.577c-.36.24-.678.517-.952.829a7.244 7.244 0 00-.72.971L6 5.945z" fill="currentColor" fill-rule="evenodd"></path>
  </symbol>
  <symbol xmlns="http://www.w3.org/2000/svg" viewBox="0 0 24 24" id="hand-gesture-23">
    <title>Icons / Mastercard / UI / hand gesture 23</title>
    <path d="M12.5 0C13.878 0 15 1.122 15 2.5V8h-1V2.5c0-.827-.673-1.5-1.5-1.5h-9C2.673 1 2 1.673 2 2.5V17h10v1H2v3.5c0 .827.673 1.5 1.5 1.5H12v1H3.5A2.503 2.503 0 011 21.5v-19C1 1.122 2.122 0 3.5 0zm7.619 7.202c.756-.757 2.074-.756 2.828 0l1.415 1.414-.707.708-1.062-1.061-.164-.165-.189-.188-.092-.08a1.03 1.03 0 00-1.322.08.993.993 0 00-.293.707c0 .267.104.518.293.707l.354.353 1.06 1.059-.707.707-2.122-2.122a1 1 0 00-1.414 1.415l2.122 2.122-.707.707-2.83-2.83a1.025 1.025 0 00-1.414 0 .997.997 0 000 1.415l2.829 2.829-.707.707-5.657-5.657-.094-.083a1 1 0 00-1.32 1.498l7.479 7.479a.62.62 0 01.136.68.622.622 0 01-.577.387h-2.44a.997.997 0 00-.707 1.707.99.99 0 00.707.293h.5l7.684.01-.002 1-7.793-.008h-.389a1.985 1.985 0 01-1.415-.586 1.99 1.99 0 01-.585-1.414c0-.534.208-1.036.586-1.414.377-.378.88-.586 1.415-.586h1.534l-6.838-6.839a2.003 2.003 0 010-2.829 2.002 2.002 0 012.828 0l1.61 1.61c.089-.338.258-.65.512-.903.593-.595 1.534-.715 2.278-.372.072-.382.255-.748.55-1.043a1.995 1.995 0 012.278-.379c.075-.39.262-.748.549-1.035zM11 6v1h-.5C8.57 7 7 8.57 7 10.5v.5H6v-.5C6 8.019 8.019 6 10.5 6h.5z" fill="currentColor" fill-rule="evenodd"></path>
  </symbol>
  <symbol xmlns="http://www.w3.org/2000/svg" viewBox="0 0 24 24" id="sound-down">
    <title>Icons / Mastercard / UI / sound down</title>
    <path d="M12.146 1.135a.5.5 0 01.841.365v21a.501.501 0 01-.841.365L4.806 16H1V8h3.81zm-.159 1.518l-6.64 6.215A.548.548 0 015 9H2v6h3c.133 0 .252.054.341.138l.003-.003 6.643 6.213V2.653zM23 12v1h-7v-1h7z" fill="currentColor" fill-rule="evenodd"></path>
  </symbol>
  <symbol xmlns="http://www.w3.org/2000/svg" viewBox="0 0 24 24" id="share">
    <title>Icons / Mastercard / UI / share</title>
    <path d="M10 8v1H5c-1.103 0-2 .897-2 2v9c0 1.103.897 2 2 2h15c1.103 0 2-.897 2-2v-9c0-1.103-.897-2-2-2h-5V8h5c1.65 0 3 1.35 3 3v9c0 1.65-1.35 3-3 3H5c-1.65 0-3-1.35-3-3v-9c0-1.65 1.35-3 3-3h5zm2.5-7l4.243 4.243-.707.707L13 2.914V15h-1V2.914L8.964 5.95l-.707-.707L12.5 1z" fill="currentColor" fill-rule="evenodd"></path>
  </symbol>
  <symbol xmlns="http://www.w3.org/2000/svg" viewBox="0 0 24 24" id="hand-gesture-34">
    <title>Icons / Mastercard / UI / hand gesture 34</title>
    <path d="M17.303 8.224c.753-.755 2.071-.757 2.828 0l3.536 3.536-.707.707-3.535-3.536a1.024 1.024 0 00-1.414.001 1.002 1.002 0 000 1.415l1.415 1.415-.707.707-2.123-2.123a1.003 1.003 0 00-1.415 0 1.003 1.003 0 000 1.414l2.122 2.122-.707.707-2.83-2.83a1 1 0 00-1.414 1.414l2.829 2.829-.707.707-5.656-5.657a1.002 1.002 0 00-1.415 0c-.39.39-.39 1.024 0 1.415l7.479 7.479a.624.624 0 01-.442 1.067H12a.993.993 0 00-.707.293.993.993 0 00-.293.707c0 .267.104.518.293.707.189.189.44.293.707.293h8v1h-8.013a1.993 1.993 0 01-1.401-.586A1.986 1.986 0 0110 22.013c0-.534.208-1.036.586-1.414.378-.378.88-.586 1.414-.586h1.535l-6.839-6.838a2.003 2.003 0 010-2.828c.757-.757 2.074-.755 2.829 0l1.609 1.609c.089-.337.259-.649.512-.902a1.995 1.995 0 012.279-.38 1.99 1.99 0 012.829-1.415 1.99 1.99 0 01.549-1.035zM4 5.013c1.654 0 3 1.346 3 3 0 .376-.078.733-.205 1.065-.29.142-.566.32-.807.561-.309.31-.531.673-.677 1.059A2.964 2.964 0 014 11.013c-1.654 0-3-1.346-3-3s1.346-3 3-3zm0 1c-1.103 0-2 .897-2 2s.897 2 2 2 2-.897 2-2-.897-2-2-2zm16.099-1.254l.311.951-.476.155a3.035 3.035 0 01-.853.147l-.5.014-.027-1 .5-.014c.194-.005.387-.038.569-.098l.476-.155zM8.07 3.693l.416.909-1.354.624-.425-.905 1.363-.628zm8.879-.477l.167.471c.064.18.155.352.271.509l.296.403-.806.592-.296-.403a2.95 2.95 0 01-.406-.766l-.168-.471.942-.335zM22 2.483v.53c0 .292-.042.58-.124.857l-.144.479-.958-.286.143-.479c.056-.184.083-.376.083-.571v-.5l1-.03zm-10.108-.217l.246.969-.484.123c-.311.079-.61.172-.91.279l-.472.167-.335-.942.471-.168c.329-.117.657-.219 1-.306l.484-.122zm3.608-.253v1H15c-.349 0-.672.007-.977.02l-.499.022-.046-.999.5-.022A23.32 23.32 0 0115 2.013h.5zM17.556.337l.613.79-.395.307a1.997 1.997 0 00-.4.416l-.292.406-.812-.582.291-.406c.168-.235.37-.445.6-.624l.395-.307zM19.422 0l.477.15c.278.087.542.214.781.377l.413.282-.562.827-.413-.282a1.968 1.968 0 00-.518-.25l-.478-.15.3-.954z" fill="currentColor" fill-rule="evenodd"></path>
  </symbol>
  <symbol xmlns="http://www.w3.org/2000/svg" viewBox="0 0 24 24" id="account-activation">
    <title>Icons / Mastercard / UI / account activation</title>
    <path d="M6.61 9.497a.743.743 0 01.844-.33.742.742 0 01.546.722V23h7.261c.315.381.682.715 1.087 1H7V10.776l-5.168 8.459-.854-.521zM19.5 15c2.481 0 4.5 2.019 4.5 4.5S21.981 24 19.5 24a4.505 4.505 0 01-4.5-4.5c0-2.481 2.019-4.5 4.5-4.5zm0 1c-1.93 0-3.5 1.57-3.5 3.5s1.57 3.5 3.5 3.5 3.5-1.57 3.5-3.5-1.57-3.5-3.5-3.5zm1.881 1.896l.707.708-3.104 3.103-2.072-2.072.707-.707 1.365 1.365 2.397-2.397zm-4.835-8.729a.743.743 0 01.844.329l2.779 4.549A5.473 5.473 0 0019.5 14c-.174 0-.345.01-.514.026L17 10.776v3.831a5.5 5.5 0 00-1 .654V9.889c0-.34.219-.63.546-.722zM12 0c2.206 0 4 1.794 4 4s-1.794 4-4 4-4-1.794-4-4 1.794-4 4-4zm0 1c-1.654 0-3 1.346-3 3s1.346 3 3 3 3-1.346 3-3-1.346-3-3-3z" fill="currentColor" fill-rule="evenodd"></path>
  </symbol>
  <symbol xmlns="http://www.w3.org/2000/svg" viewBox="0 0 24 24" id="file-transfer">
    <title>Icons / Mastercard / UI / file transfer</title>
    <path d="M10.5 9c.827 0 1.5.673 1.5 1.5V23H1V10.5C1 9.673 1.673 9 2.5 9zm12 0c.827 0 1.5.673 1.5 1.5V23H13V10.5c0-.827.673-1.5 1.5-1.5zm-12 1h-8a.5.5 0 00-.5.5V22h9V10.5a.5.5 0 00-.5-.5zm12 0h-8a.5.5 0 00-.5.5V22h9V10.5a.5.5 0 00-.5-.5zM9 18v1H4v-1h5zm12 0v1h-5v-1h5zM9 13v1H4v-1h5zm12 0v1h-5v-1h5zM14.5 1C18.084 1 21 3.916 21 7.5V8h-1v-.5C20 4.468 17.533 2 14.5 2c-.172 0-.341.01-.509.026A6.496 6.496 0 0117 7.5V8h-1v-.5a5.505 5.505 0 00-3.5-5.118A5.505 5.505 0 009 7.5V8H8v-.5a6.496 6.496 0 013.009-5.474A5.353 5.353 0 0010.5 2 5.506 5.506 0 005 7.5V8H4v-.5C4 3.916 6.916 1 10.5 1c.698 0 1.369.114 2 .318a6.487 6.487 0 012-.318z" fill="currentColor" fill-rule="evenodd"></path>
  </symbol>
  <symbol xmlns="http://www.w3.org/2000/svg" viewBox="0 0 24 24" id="time-24-hours">
    <title>Icons / Mastercard / UI / time 24 hours</title>
    <path d="M12.5 1C18.29 1 23 5.71 23 11.5S18.29 22 12.5 22 2 17.29 2 11.5 6.71 1 12.5 1zm0 1C7.262 2 3 6.262 3 11.5S7.262 21 12.5 21s9.5-4.262 9.5-9.5S17.738 2 12.5 2zM8.727 6.872c.459 0 .869.071 1.229.213.36.142.665.338.914.589.249.251.438.55.569.895.131.346.196.721.196 1.124 0 .278-.035.539-.105.782a3.279 3.279 0 01-.28.676 4.07 4.07 0 01-.39.579 8.102 8.102 0 01-.435.499l-2.588 2.749h4.082v1.036H6.224v-.856l3.373-3.56c.271-.283.488-.579.653-.889.165-.309.248-.65.248-1.023 0-.249-.04-.481-.119-.698a1.561 1.561 0 00-.918-.938 1.994 1.994 0 00-.759-.136 2.144 2.144 0 00-1.623.68c-.124.131-.24.27-.348.415l-.785-.638c.107-.154.239-.319.396-.495.157-.176.346-.338.57-.486.223-.148.483-.271.782-.37a3.28 3.28 0 011.033-.148zm8.568.14L14 13.122h2.857v-2.491h1.088v2.491h1.5v1.03h-1.5v1.86h-1.088v-1.86h-4.165v-.837l3.367-6.303h1.236z" fill="currentColor" fill-rule="evenodd"></path>
  </symbol>
  <symbol xmlns="http://www.w3.org/2000/svg" viewBox="0 0 24 24" id="video">
    <title>Icons / Mastercard / UI / video</title>
    <path d="M4 20v1H2v-1h2zm4 0v1H6v-1h2zm4 0v1h-2v-1h2zm4 0v1h-2v-1h2zm4 0v1h-2v-1h2zm4 0v1h-2v-1h2zm0-15v1h-2v12h2v1H0v-1h2V6H0V5h24zm-3 1H3v12h18V6zM9 7.46L16.864 12 9 16.54V7.46zm1 1.732v5.615L14.864 12 10 9.192zM2 3v1H0V3h2zm4 0v1H4V3h2zm4 0v1H8V3h2zm4 0v1h-2V3h2zm4 0v1h-2V3h2zm4 0v1h-2V3h2z" fill="currentColor" fill-rule="evenodd"></path>
  </symbol>
  <symbol xmlns="http://www.w3.org/2000/svg" viewBox="0 0 24 24" id="hand-gesture-35">
    <title>Icons / Mastercard / UI / hand gesture 35</title>
    <path d="M18.5 5c-.366 0-.705.106-1 .278V5a2.002 2.002 0 00-3.12-1.656A1.995 1.995 0 0012.5 2c-.872 0-1.607.564-1.88 1.344A2.002 2.002 0 007.5 5v9.672l-1.086-1.086c-.756-.756-2.072-.756-2.828 0C3.208 13.964 3 14.466 3 15c0 .534.208 1.036.586 1.414l.354.354 5.425 5.439.708-.706-5.778-5.794a.993.993 0 01-.002-1.414 1.023 1.023 0 011.414 0l1.727 1.727a.624.624 0 001.066-.443V5a1.001 1.001 0 012 0v8h1V4a1.001 1.001 0 012 0v9h1V5a1.001 1.001 0 012 0v8h1V7a1.001 1.001 0 012 0v.5l.006 7.918-1.082 6.493.986.164L20.5 15.5V7c0-1.103-.897-2-2-2z" fill="currentColor" fill-rule="evenodd"></path>
  </symbol>
  <symbol xmlns="http://www.w3.org/2000/svg" viewBox="0 0 24 24" id="hand-gesture-20">
    <title>Icons / Mastercard / UI / hand gesture 20</title>
    <path d="M13 4c1.103 0 2 .897 2 2v2.278A1.978 1.978 0 0116 8c.872 0 1.607.564 1.88 1.344a1.988 1.988 0 013 1A2.002 2.002 0 0124 12v4.5l-1.089 6.575-.986-.164 1.082-6.493-.006-3.918H23V12c0-.551-.449-1-1-1-.551 0-1 .449-1 1v2h-1v-3c0-.551-.449-1-1-1-.551 0-1 .449-1 1v3h-1v-4c0-.551-.449-1-1-1-.551 0-1 .449-1 1v4h-1V6c0-.551-.449-1-1-1-.551 0-1 .449-1 1v10.577a.625.625 0 01-1.067.442l-1.726-1.726a1.023 1.023 0 00-1.414 0A.993.993 0 007.5 16a.99.99 0 00.294.707l5.779 5.794-.708.706-5.425-5.439-.354-.354A1.986 1.986 0 016.5 16c0-.534.208-1.036.586-1.414.756-.756 2.072-.756 2.828 0L11 15.672V6c0-1.103.897-2 2-2zm0-4c2.753 0 5.35.594 7.312 1.673C22.368 2.804 23.5 4.34 23.5 6v.5h-1V6c0-1.278-.948-2.504-2.67-3.451C18.014 1.55 15.588 1 13 1s-5.014.55-6.831 1.549C4.448 3.496 3.5 4.722 3.5 6c0 1.234.891 2.416 2.5 3.349V6h1v5.002l-5.002-.017.004-1 3.14.01C3.438 8.904 2.5 7.504 2.5 6c0-1.66 1.132-3.196 3.188-4.327C7.65.594 10.247 0 13 0z" fill="currentColor" fill-rule="evenodd"></path>
  </symbol>
  <symbol xmlns="http://www.w3.org/2000/svg" viewBox="0 0 24 24" id="file-remove">
    <title>Icons / Mastercard / UI / file remove</title>
    <path d="M18.5 13c2.481 0 4.5 2.019 4.5 4.5S20.981 22 18.5 22a4.505 4.505 0 01-4.5-4.5c0-2.481 2.019-4.5 4.5-4.5zm0 1c-1.93 0-3.5 1.57-3.5 3.5s1.57 3.5 3.5 3.5 3.5-1.57 3.5-3.5-1.57-3.5-3.5-3.5zM7.5 3C8.327 3 9 3.673 9 4.5V5h9.5c.827 0 1.5.673 1.5 1.5v5.713a5.419 5.419 0 00-1-.188V9H2v10h11.213c.099.349.231.683.394 1H1V4.5C1 3.673 1.673 3 2.5 3zM21 17v1h-5v-1h5zM7.5 4h-5a.5.5 0 00-.5.5V8h17V6.5a.5.5 0 00-.5-.5H8V4.5a.5.5 0 00-.5-.5z" fill="currentColor" fill-rule="evenodd"></path>
  </symbol>
  <symbol xmlns="http://www.w3.org/2000/svg" viewBox="0 0 24 24" id="attach">
    <title>Icons / Mastercard / UI / attach</title>
    <path d="M8.257 24H2.625A.625.625 0 012 23.375V17.74c0-.933.363-1.811 1.021-2.471L15.646 2.605a4.036 4.036 0 012.875-1.192c1.085 0 2.106.424 2.875 1.191a4.072 4.072 0 010 5.749L10.482 19.309a2.482 2.482 0 01-1.769.733H6.625A.625.625 0 016 19.417v-2.175c0-.922.374-1.823 1.025-2.475L16.5 5.293l.707.707-9.475 9.475A2.515 2.515 0 007 17.242v1.8h1.713c.4 0 .777-.156 1.061-.439L20.688 7.647a3.07 3.07 0 000-4.336c-1.159-1.158-3.177-1.158-4.335 0L3.729 15.975A2.486 2.486 0 003 17.74V23h5.257c.667 0 1.295-.26 1.768-.732L22 10.293l.707.707-11.975 11.975A3.477 3.477 0 018.257 24z" fill="currentColor" fill-rule="evenodd"></path>
  </symbol>
  <symbol xmlns="http://www.w3.org/2000/svg" viewBox="0 0 24 24" id="hand-gesture-21">
    <title>Icons / Mastercard / UI / hand gesture 21</title>
    <path d="M14 3c1.103 0 2 .897 2 2v4.278A1.978 1.978 0 0117 9c.872 0 1.607.564 1.88 1.344A2.002 2.002 0 0122 12v4.5l-1.089 6.575-.986-.164 1.082-6.493-.006-3.918H21V12c0-.551-.449-1-1-1-.551 0-1 .449-1 1v2h-1v-3c0-.551-.449-1-1-1-.551 0-1 .449-1 1v3h-1V5c0-.551-.449-1-1-1-.551 0-1 .449-1 1v9h-1V6c0-.551-.449-1-1-1-.551 0-1 .449-1 1v10.577a.625.625 0 01-1.067.442l-1.726-1.726a1.023 1.023 0 00-1.414 0A.993.993 0 005.5 16a.99.99 0 00.294.707l5.779 5.794-.708.706-5.425-5.439-.354-.354A1.986 1.986 0 014.5 16c0-.534.208-1.036.586-1.414.756-.756 2.072-.756 2.828 0L9 15.672V6a2.002 2.002 0 013.12-1.656A1.995 1.995 0 0114 3zM6 1.293L6.707 2l-2 2H8v1H4.707l2 2L6 7.707 2.793 4.5 6 1.293zm13 0L22.207 4.5 19 7.707 18.293 7l2-2H17V4h3.293l-2-2L19 1.293z" fill="currentColor" fill-rule="evenodd"></path>
  </symbol>
  <symbol xmlns="http://www.w3.org/2000/svg" viewBox="0 0 24 24" id="hand-gesture-31">
    <title>Icons / Mastercard / UI / hand gesture 31</title>
    <path d="M3.207 15.175l3.207 3.207-.707.707-2-2v3.293h-1v-3.293l-2 2L0 18.382l3.207-3.207zM17.119 4.567c.756-.756 2.074-.755 2.828 0l3.535 3.536-.707.707-3.182-3.183-.353-.354a1.021 1.021 0 00-1.413 0 1.002 1.002 0 000 1.416l1.415 1.415-.707.707-2.123-2.123a1.003 1.003 0 00-1.415 0 1.003 1.003 0 000 1.414l2.12 2.12-.707.708-1.768-1.768-.353-.354-.353-.353h-.001l-.353-.353a1.023 1.023 0 00-1.414 0 .993.993 0 00-.293.707c0 .267.104.518.293.707l.354.353 2.475 2.475-.707.707-5.656-5.656a1.023 1.023 0 00-1.414 0 .993.993 0 00-.293.707c0 .267.104.518.293.707l.353.353 7.125 7.126a.624.624 0 01-.442 1.067h-2.441a.997.997 0 00-.707 1.707c.189.189.44.293.707.293h.5l7.684.01-.001 1-7.793-.01h-.389a1.985 1.985 0 01-1.415-.586 1.99 1.99 0 01-.585-1.414c0-.534.208-1.036.586-1.414a1.983 1.983 0 011.414-.586h1.536l-6.839-6.84a1.986 1.986 0 01-.586-1.413c0-.535.208-1.037.586-1.414.755-.755 2.072-.756 2.828 0l.353.353 1.256 1.257a1.98 1.98 0 01.512-.903c.595-.595 1.536-.714 2.279-.371.072-.382.254-.748.549-1.043a1.997 1.997 0 012.28-.38c.073-.378.256-.741.549-1.034zM3.707 9.382v3.293l2-2 .707.707-3.207 3.207L0 11.382l.707-.707 2 2V9.382h1z" fill="currentColor" fill-rule="evenodd"></path>
  </symbol>
  <symbol xmlns="http://www.w3.org/2000/svg" viewBox="0 0 24 24" id="hand-gesture-19">
    <title>Icons / Mastercard / UI / hand gesture 19</title>
    <path d="M18.119 6.184c.78-.78 2.049-.78 2.829 0l3.536 3.536-.707.707-3.535-3.536a1 1 0 00-1.415 1.414l1.415 1.415-.707.707-1.415-1.415-.353-.355-.354-.353a1 1 0 00-1.414 1.415l2.122 2.122-.707.707-2.83-2.83a1.003 1.003 0 00-1.708.707c0 .267.104.518.293.707l2.829 2.829-.707.707-5.657-5.657-.094-.083a1 1 0 00-1.32 1.498l7.479 7.479a.624.624 0 01-.442 1.067h-2.441a.993.993 0 00-.707.293.993.993 0 00-.293.707c0 .267.104.518.293.707.189.189.44.293.707.293h.5l7.684.01v1l-7.794-.008h-.389a1.986 1.986 0 01-1.414-.586 1.986 1.986 0 01-.586-1.414c0-.534.208-1.036.586-1.414.378-.378.88-.586 1.414-.586h1.536l-6.839-6.839a2.003 2.003 0 010-2.829 2.002 2.002 0 012.828 0l1.609 1.609c.089-.337.259-.649.512-.902a1.995 1.995 0 012.28-.38 1.99 1.99 0 012.828-1.414c.072-.379.255-.742.548-1.035zM9 4.982v1h-.5c-1.93 0-3.5 1.57-3.5 3.5v.5H4v-.5c0-2.481 2.019-4.5 4.5-4.5H9zM9 2v1h-.5C4.916 3 2 5.908 2 9.482v.5H1v-.5C1 5.357 4.364 2 8.5 2H9z" fill="currentColor" fill-rule="evenodd"></path>
  </symbol>
  <symbol xmlns="http://www.w3.org/2000/svg" viewBox="0 0 24 24" id="michelin-star-2">
    <title>Icons / Mastercard / UI / michelin star 2</title>
    <path d="M1 1v5.5C1 7.327 1.673 8 2.5 8S4 7.327 4 6.5V1h1v5.5c0 1.208-.86 2.217-2 2.45V23H2V8.949A2.502 2.502 0 010 6.5V1h1zm19.729.016l.103.003C23.17 1.288 24 4.274 24 6.75V15h-3v8h-1V1.772a.76.76 0 01.832-.753zM12.032 5c1.226-.021 1.807.496 2.088.936.449.704.428 1.68.248 2.586.696-.608 1.53-1.115 2.355-1.083.522.023 1.268.275 1.854 1.34.491.893.544 1.7.157 2.397-.398.718-1.208 1.173-2.04 1.463.867.298 1.711.766 2.093 1.5.241.464.397 1.235-.236 2.274-.535.883-1.212 1.337-2.011 1.348h-.028c-.772 0-1.515-.432-2.142-.964.176.899.193 1.863-.252 2.56-.274.431-.843.937-2.001.937l-.086-.001c-1.577-.033-2.163-.87-2.377-1.567-.175-.568-.147-1.259-.026-1.93-.627.532-1.371.965-2.143.965h-.028c-.799-.011-1.476-.465-2.011-1.348-.629-1.04-.474-1.811-.233-2.275.382-.735 1.226-1.203 2.093-1.5-.832-.29-1.642-.744-2.04-1.463-.386-.697-.334-1.503.157-2.397.586-1.066 1.332-1.318 1.854-1.34.825-.033 1.66.475 2.356 1.084-.124-.679-.155-1.38.022-1.955.213-.697.8-1.534 2.377-1.567zm.192.996l-.17.003c-.668.014-1.101.206-1.325.587-.612 1.044.298 3.268.596 3.851l-.875.505c-.496-.718-1.972-2.506-3.085-2.506l-.045.001c-.144.006-.583.026-1.022.822-.319.579-.371 1.047-.159 1.43.548.988 2.663 1.355 3.609 1.432v1.028c-.935.088-3.148.485-3.649 1.45-.067.128-.269.518.202 1.296.349.576.731.859 1.169.865 1.101-.006 2.524-1.725 2.98-2.41l.874.505c-.298.583-1.208 2.807-.596 3.851.224.381.657.573 1.325.587.894.035 1.145-.351 1.223-.473.602-.943-.226-3.162-.604-3.963l.876-.506c.479.722 1.835 2.41 2.965 2.41h.016c.438-.007.82-.289 1.169-.865.408-.674.31-1.057.234-1.231L17.9 14.6c-.5-.965-2.713-1.362-3.649-1.45v-1.028c.947-.077 3.061-.443 3.609-1.432.212-.383.159-.851-.159-1.43-.438-.798-.876-.817-1.021-.823l-.045-.001c-1.113 0-2.588 1.788-3.085 2.506l-.877-.506c.378-.8 1.206-3.02.604-3.963-.078-.123-.33-.516-1.223-.473zM21 2.069V14h2V6.75c0-1.572-.43-4.222-2-4.681zM3 1v6H2V1h1z" fill="currentColor" fill-rule="evenodd"></path>
  </symbol>
  <symbol xmlns="http://www.w3.org/2000/svg" viewBox="0 0 24 24" id="new-add-expand">
    <title>Icons / Mastercard / UI / new add expand</title>
    <path d="M12.485 2c5.782 0 10.486 4.704 10.486 10.485 0 5.783-4.705 10.486-10.486 10.486C6.704 22.971 2 18.267 2 12.485 2 6.704 6.703 2 12.485 2zm0 1C7.255 3 3 7.256 3 12.486s4.255 9.486 9.485 9.486c5.231 0 9.486-4.257 9.486-9.487S17.715 3 12.485 3zm.486 3v6h6v1h-6v6h-1v-6h-6v-1h6V6h1z" fill="currentColor" fill-rule="evenodd"></path>
  </symbol>
  <symbol xmlns="http://www.w3.org/2000/svg" viewBox="0 0 24 24" id="menu">
    <title>Icons / Mastercard / UI / menu</title>
    <path d="M23 17v1H1v-1h22zm0-5v1H1v-1h22zm0-5v1H1V7h22z" fill="currentColor" fill-rule="evenodd"></path>
  </symbol>
  <symbol xmlns="http://www.w3.org/2000/svg" viewBox="0 0 24 24" id="hand-gesture-25">
    <title>Icons / Mastercard / UI / hand gesture 25</title>
    <path d="M16.399 6.495c.756-.757 2.075-.757 2.828 0l4.243 4.243-.707.707-3.89-3.89-.238-.239-.115-.113-.091-.08a1.03 1.03 0 00-1.323.08.993.993 0 00-.293.707c0 .267.104.518.293.707l.354.353 1.765 1.766-.707.707-2.828-2.829a1 1 0 00-1.414 1.415l2.829 2.829-.707.707-3.537-3.537a1.025 1.025 0 00-1.414 0 .997.997 0 000 1.415l.707.707.001.001 2.829 2.829-.707.707-2.828-2.829a1.002 1.002 0 00-1.415 0 1.006 1.006 0 000 1.415l4.651 4.65a.624.624 0 01-.442 1.067h-2.44a.993.993 0 00-.707.293.997.997 0 00.707 1.707h.5l7.684.01-.002 1-7.794-.01h-.389a1.986 1.986 0 01-1.414-.586 1.986 1.986 0 01-.586-1.414c0-.534.208-1.036.586-1.414.378-.378.88-.586 1.414-.586h1.535l-3.658-3.657-.238-.239-.114-.114-.116-.127a2.006 2.006 0 01.116-2.701 1.985 1.985 0 011.034-.55 1.983 1.983 0 01.382-2.279c.593-.595 1.534-.714 2.278-.371.072-.382.255-.748.55-1.043a1.998 1.998 0 012.279-.379c.075-.39.262-.748.549-1.035zM9 16v1H7v-1h2zm-7-3v3h3v1H1v-4h1zm0-6v4H1V7h1zm3-6v1H2v3H1V1h4zm12 0v4h-1V2h-3V1h4zm-6 0v1H7V1h4z" fill="currentColor" fill-rule="evenodd"></path>
  </symbol>
  <symbol xmlns="http://www.w3.org/2000/svg" viewBox="0 0 24 24" id="file-success">
    <title>Icons / Mastercard / UI / file success</title>
    <path d="M18.5 13c2.481 0 4.5 2.019 4.5 4.5S20.981 22 18.5 22a4.505 4.505 0 01-4.5-4.5c0-2.481 2.019-4.5 4.5-4.5zm0 1c-1.93 0-3.5 1.57-3.5 3.5s1.57 3.5 3.5 3.5 3.5-1.57 3.5-3.5-1.57-3.5-3.5-3.5zM7.5 3C8.327 3 9 3.673 9 4.5V5h9.5c.827 0 1.5.673 1.5 1.5v5.713a5.419 5.419 0 00-1-.188V9H2v10h11.213c.099.349.231.683.394 1H1V4.5C1 3.673 1.673 3 2.5 3zm12.881 13.146l.707.708-3.104 3.103-2.072-2.072.707-.707 1.365 1.365 2.397-2.397zM7.5 4h-5a.5.5 0 00-.5.5V8h17V6.5a.5.5 0 00-.5-.5H8V4.5a.5.5 0 00-.5-.5z" fill="currentColor" fill-rule="evenodd"></path>
  </symbol>
  <symbol xmlns="http://www.w3.org/2000/svg" viewBox="0 0 24 24" id="hand-gesture-30">
    <title>Icons / Mastercard / UI / hand gesture 30</title>
    <path d="M4.5 8.382c1.93 0 3.5 1.57 3.5 3.5v.5h1v9H0v-9h1v-.5c0-1.93 1.57-3.5 3.5-3.5zm3.5 5H1v7h7v-7zm-3 2v3H4v-3h1zM17.412 2.567c.756-.756 2.073-.755 2.828 0l3.535 3.536-.707.707-3.182-3.183-.353-.354a1.021 1.021 0 00-1.413 0 1.002 1.002 0 000 1.416l1.415 1.415-.707.707-2.123-2.123a1.003 1.003 0 00-1.415 0 1.003 1.003 0 000 1.414l2.12 2.12-.707.708-1.768-1.768-.353-.354-.353-.353h-.001l-.353-.353a1.023 1.023 0 00-1.414 0 .993.993 0 00-.293.707c0 .267.104.518.293.707l.354.353 2.475 2.475-.707.707-5.656-5.656a1.023 1.023 0 00-1.414 0 .993.993 0 00-.293.707c0 .267.104.518.293.707l.353.353 7.125 7.126a.624.624 0 01-.442 1.067h-2.441a.997.997 0 00-.707 1.707c.189.189.44.293.707.293h.5l7.684.01-.001 1-7.793-.01h-.389a1.985 1.985 0 01-1.415-.586 1.99 1.99 0 01-.585-1.414c0-.534.208-1.036.586-1.414a1.983 1.983 0 011.414-.586h1.536l-6.839-6.84a1.986 1.986 0 01-.586-1.413c0-.535.208-1.037.586-1.414.754-.755 2.072-.756 2.828 0l.353.353 1.256 1.257a1.98 1.98 0 01.512-.903c.595-.595 1.536-.714 2.279-.371.072-.382.254-.748.549-1.043a1.997 1.997 0 012.28-.38c.073-.378.256-.741.549-1.034zM4.5 9.382a2.503 2.503 0 00-2.5 2.5v.5h5v-.5c0-1.378-1.122-2.5-2.5-2.5z" fill="currentColor" fill-rule="evenodd"></path>
  </symbol>
  <symbol xmlns="http://www.w3.org/2000/svg" viewBox="0 0 24 24" id="hand-gesture-24">
    <title>Icons / Mastercard / UI / hand gesture 24</title>
    <path d="M17.5 0C18.879 0 20 1.122 20 2.5V6h-1V2.5c0-.827-.673-1.5-1.5-1.5h-14C2.673 1 2 1.673 2 2.5V17h10v1H2v3.5c0 .827.673 1.5 1.5 1.5H12v1H3.5A2.503 2.503 0 011 21.5v-19C1 1.122 2.121 0 3.5 0zm2.619 7.202c.757-.757 2.075-.756 2.828 0l1.415 1.414-.707.708-1.062-1.061-.164-.165-.189-.188-.092-.08a1.03 1.03 0 00-1.322.08.993.993 0 00-.293.707c0 .267.104.518.293.707l.354.353 1.06 1.059-.707.707-2.122-2.122a1 1 0 00-1.414 1.415l2.122 2.122-.707.707-2.83-2.83a1.025 1.025 0 00-1.414 0 .997.997 0 000 1.415l2.829 2.829-.707.707-5.657-5.657-.094-.083a1 1 0 00-1.32 1.498l7.479 7.479a.62.62 0 01.136.68.622.622 0 01-.577.387h-2.44a.994.994 0 00-.708.293.993.993 0 00-.292.707c0 .268.104.519.292.707.189.189.44.293.708.293h.5l7.684.01-.002 1-7.793-.008h-.389a1.987 1.987 0 01-1.415-.586 1.986 1.986 0 01-.585-1.414c0-.535.208-1.037.585-1.414.378-.378.88-.586 1.415-.586h1.534l-6.838-6.839a2.003 2.003 0 010-2.829 2.003 2.003 0 012.828 0l.354.353 1.257 1.257c.089-.338.258-.65.512-.903.593-.595 1.534-.715 2.278-.372.072-.382.255-.748.55-1.043a1.995 1.995 0 012.278-.379c.075-.39.262-.748.549-1.035zM11 6v1h-.5C8.57 7 7 8.57 7 10.5v.5H6v-.5C6 8.019 8.019 6 10.5 6h.5z" fill="currentColor" fill-rule="evenodd"></path>
  </symbol>
  <symbol xmlns="http://www.w3.org/2000/svg" viewBox="0 0 24 24" id="hand-gesture-18">
    <title>Icons / Mastercard / UI / hand gesture 18</title>
    <path d="M15.707 2.207c1.103 0 2 .897 2 2v4.278a1.978 1.978 0 011-.278c.872 0 1.607.564 1.88 1.344a2.002 2.002 0 013.12 1.656v4.5l-1.089 6.575-.986-.164 1.082-6.493-.006-3.918h-.001v-.5a1.001 1.001 0 00-2 0v2h-1v-3a1.001 1.001 0 00-2 0v3h-1v-9a1.001 1.001 0 00-2 0v9h-1v-8a1.001 1.001 0 00-2 0v10.577a.624.624 0 01-1.066.443L8.914 14.5a1.023 1.023 0 00-1.414 0 .993.993 0 00.002 1.414l5.778 5.794-.708.706-5.425-5.439-.354-.354a1.986 1.986 0 01-.586-1.414c0-.534.208-1.036.586-1.414.756-.756 2.072-.756 2.828 0l1.086 1.086V5.207a2.002 2.002 0 013.12-1.656 1.995 1.995 0 011.88-1.344zM5.207 1l3.207 3.207-.707.707-2-2v9.293h-1V2.914l-2 2L2 4.207 5.207 1z" fill="currentColor" fill-rule="evenodd"></path>
  </symbol>
  <symbol xmlns="http://www.w3.org/2000/svg" viewBox="0 0 24 24" id="hand-gesture-26">
    <title>Icons / Mastercard / UI / hand gesture 26</title>
    <path d="M9.5 14.793l.707.707L2.5 23.207l-.707-.707L9.5 14.793zm5.792-11.429a2.003 2.003 0 012.828 0l6.365 6.365-.707.707-6.365-6.365a1.004 1.004 0 00-1.415 0 1.002 1.002 0 000 1.415l4.243 4.243-.707.707-5.656-5.657-.094-.083a1.003 1.003 0 00-1.321.083 1.004 1.004 0 00-.001 1.413l5.658 5.658-.707.707-5.304-5.304-.001.001-.255-.256-.451-.451-.243-.244-.111-.111a1.025 1.025 0 00-1.413.001.993.993 0 00-.293.707.99.99 0 00.293.707l1.06 1.06 5.304 5.305-.707.707-5.658-5.658a1 1 0 00-1.414 1.415l7.479 7.479a.62.62 0 01.136.68.622.622 0 01-.577.387h-2.44a.994.994 0 00-.708.293.993.993 0 00-.292.707c0 .268.104.519.292.707.189.189.44.293.708.293h.5l7.684.01-.002 1-7.793-.01h-.389a1.987 1.987 0 01-1.415-.586 1.986 1.986 0 01-.585-1.414c0-.535.208-1.037.585-1.414.378-.378.88-.586 1.415-.586h1.534l-6.838-6.839a2.003 2.003 0 010-2.829 1.993 1.993 0 011.033-.548 1.977 1.977 0 01.381-2.281c.596-.596 1.537-.715 2.28-.371.071-.383.253-.748.548-1.043a2.003 2.003 0 012.829 0l.196.196c.088-.33.252-.644.511-.903zM23.5.793l.707.707L21 4.707 20.293 4 23.5.793z" fill="currentColor" fill-rule="evenodd"></path>
  </symbol>
  <symbol xmlns="http://www.w3.org/2000/svg" viewBox="0 0 24 24" id="print">
    <title>Icons / Mastercard / UI / print</title>
    <path d="M23 10h-5V2H6v8H1v10h5v3h12v-3h5V10zM7 3h10v7H7V3zm10 19H7v-4.501h10V22zm5-3h-4v-2.501H6V19H2v-8h20v8z" fill="currentColor" fill-rule="evenodd"></path>
  </symbol>
  <symbol xmlns="http://www.w3.org/2000/svg" viewBox="0 0 24 24" id="hand-gesture-32">
    <title>Icons / Mastercard / UI / hand gesture 32</title>
    <path d="M3.707 15.401v3.293l2-2 .707.707-3.207 3.207L0 17.401l.707-.707 2 2v-3.293h1zM17.119 4.585a2.001 2.001 0 012.828 0l3.537 3.536-.707.707-3.183-3.182-.354-.354a1 1 0 10-1.413 1.415l1.415 1.415-.707.707-2.123-2.123a1 1 0 00-1.414 1.415l2.123 2.123-.707.707-2.83-2.83a1.026 1.026 0 00-1.415 0 .993.993 0 00-.293.707c0 .267.104.518.293.707l.354.353 2.475 2.475-.707.707-5.304-5.303-.353-.353a1.023 1.023 0 00-1.414 0 .993.993 0 00-.293.707c0 .267.104.518.293.707l.353.353 7.125 7.126a.62.62 0 01.136.68.622.622 0 01-.577.387h-2.441a.997.997 0 00-.707 1.707c.189.189.44.293.707.293h.5l7.684.01-.002 1-7.793-.01h-.389a1.985 1.985 0 01-1.415-.586 1.99 1.99 0 01-.585-1.414c0-.534.208-1.036.586-1.414a1.983 1.983 0 011.414-.586h1.535L6.513 9.535a1.986 1.986 0 01-.586-1.414c0-.535.208-1.037.585-1.415.754-.755 2.072-.756 2.828 0l1.61 1.61a1.98 1.98 0 01.512-.903c.594-.595 1.535-.714 2.279-.371.072-.382.255-.748.55-1.043a1.998 1.998 0 012.279-.379 1.99 1.99 0 01.549-1.035zM3.207 9.194l3.207 3.207-.707.707-2-2v3.293h-1v-3.293l-2 2L0 12.401l3.207-3.207z" fill="currentColor" fill-rule="evenodd"></path>
  </symbol>
  <symbol xmlns="http://www.w3.org/2000/svg" viewBox="0 0 24 24" id="michelin-star-1">
    <title>Icons / Mastercard / UI / michelin star 1</title>
    <path d="M21.812 14.3c-.63-1.212-2.224-1.912-3.69-2.31 1.418-.388 2.952-1.069 3.615-2.265.526-.95.449-2.059-.231-3.295-.648-1.18-1.499-1.802-2.528-1.848-1.363-.048-2.784 1.01-3.873 2.093.398-1.482.605-3.242-.139-4.409-.554-.868-1.5-1.28-2.864-1.266-2.176.046-2.98 1.186-3.272 2.135-.316 1.03-.163 2.336.135 3.506C7.88 5.567 6.471 4.528 5.122 4.582c-1.029.046-1.88.667-2.528 1.848-.68 1.236-.757 2.345-.231 3.295.663 1.196 2.197 1.877 3.615 2.264-1.466.4-3.06 1.1-3.69 2.31-.475.913-.362 1.961.336 3.112.741 1.224 1.669 1.852 2.757 1.866l.038.001c1.286 0 2.546-.898 3.533-1.862-.289 1.155-.432 2.435-.121 3.447.292.95 1.096 2.09 3.272 2.135l.124.001c1.282 0 2.203-.426 2.74-1.267.732-1.149.544-2.873.158-4.34.99.974 2.26 1.886 3.557 1.886h.038c1.088-.016 2.016-.644 2.757-1.867.697-1.15.81-2.199.335-3.112zm-1.191 2.594c-.558.921-1.185 1.374-1.915 1.384l-.026.001c-1.766 0-3.84-2.567-4.561-3.656l-.878.507c.603 1.262 1.834 4.571.882 6.065-.358.562-1.029.837-2 .804-1.071-.022-1.773-.344-2.145-.98-.959-1.646.421-5.012.875-5.89l-.873-.507c-.719 1.09-2.791 3.656-4.561 3.656h-.025c-.731-.01-1.357-.464-1.916-1.385-.512-.845-.611-1.542-.305-2.133.79-1.52 4.095-2.125 5.569-2.26v-1.033c-1.43-.117-4.652-.686-5.506-2.228-.352-.638-.276-1.399.234-2.327.476-.866 1.03-1.3 1.695-1.33C6.89 5.475 9.18 8.217 9.979 9.376l.875-.505c-.454-.879-1.835-4.245-.875-5.89.372-.638 1.074-.959 2.145-.98 1.002-.026 1.642.241 2 .802.951 1.491-.279 4.803-.881 6.066l.88.508c.796-1.156 3.039-3.86 4.814-3.796.665.03 1.22.465 1.695 1.331.51.928.586 1.688.233 2.327-.854 1.542-4.077 2.111-5.506 2.228V12.5c1.474.135 4.779.74 5.569 2.26.304.591.205 1.288-.307 2.133z" fill="currentColor" fill-rule="evenodd"></path>
  </symbol>
  <symbol xmlns="http://www.w3.org/2000/svg" viewBox="0 0 24 24" id="timer">
    <title>Icons / Mastercard / UI / timer</title>
    <path d="M19 1v6.052a3.975 3.975 0 01-1.17 2.826L15.207 12.5l2.623 2.622A3.97 3.97 0 0119 17.948V24H5v-6.052c0-1.067.416-2.071 1.17-2.826L8.793 12.5 6.17 9.878A3.975 3.975 0 015 7.052V1h14zm-1 1H6v5.052c0 .8.312 1.553.877 2.119l3.33 3.329-3.33 3.329A2.983 2.983 0 006 17.948V23h12v-5.052c0-.8-.312-1.553-.877-2.119l-3.33-3.329 3.33-3.329A2.983 2.983 0 0018 7.052V2zm-5.558 12.736l4.521 4.521.037.295v1.823c0 .345-.28.625-.625.625h-8.75A.625.625 0 017 21.375v-2.03l.183-.234 4.375-4.375a.625.625 0 01.884 0zm-.442.972l-4 4V21h8v-1.292l-4-4zM15.198 8a.624.624 0 01.443 1.067L12 12.707l-3.64-3.64a.622.622 0 01-.135-.682A.622.622 0 018.802 8h6.396zm-.905 1H9.707L12 11.293 14.293 9z" fill="currentColor" fill-rule="evenodd"></path>
  </symbol>
  <symbol xmlns="http://www.w3.org/2000/svg" viewBox="0 0 24 24" id="hand-gesture-27">
    <title>Icons / Mastercard / UI / hand gesture 27</title>
    <path d="M12 0c6.617 0 12 5.383 12 12s-5.383 12-12 12S0 18.617 0 12 5.383 0 12 0zm8.111 4.596L4.596 20.111A10.944 10.944 0 0012 23c6.065 0 11-4.935 11-11 0-2.853-1.101-5.447-2.889-7.404zm-9.659 11.072l2.246 2.246a.62.62 0 01.136.68.622.622 0 01-.577.387h-2.44a.994.994 0 00-.708.293.993.993 0 00-.292.707c0 .268.104.519.292.707.189.189.44.293.709.293v-.001l4.183.012-.002 1-3.682-.011h-.5a1.987 1.987 0 01-1.415-.586 1.986 1.986 0 01-.585-1.414c0-.535.208-1.037.585-1.414.378-.378.88-.586 1.415-.586h1.534l-1.606-1.606.707-.707zM12 1C5.935 1 1 5.935 1 12c0 2.853 1.101 5.447 2.889 7.404L19.404 3.889A10.944 10.944 0 0012 1zm.574 12.547l1.043 1.043-.707.707-1.043-1.043.707-.707zm-.282-10.183a2.003 2.003 0 012.828 0l.354.353 1.344 1.344-.707.707-1.698-1.698a1 1 0 00-1.414 1.415l1.698 1.698-.707.707-3.112-3.112-.094-.083a1.003 1.003 0 00-1.321.083 1.005 1.005 0 00-.001 1.414l3.111 3.113-.707.707-2.759-2.759-.235-.236-.471-.471-.235-.236-.118-.118a1.025 1.025 0 00-1.413.001.993.993 0 00-.293.707.99.99 0 00.293.707l3.818 3.818-.707.707L6.634 9.02a1 1 0 00-1.414 1.415l3.112 3.112-.707.707-3.111-3.111a2.003 2.003 0 010-2.829 1.993 1.993 0 011.033-.548 1.977 1.977 0 01.381-2.281c.596-.596 1.537-.715 2.28-.371.071-.383.253-.748.548-1.043a2.003 2.003 0 012.829 0l.196.196c.088-.33.252-.644.511-.903zm2.403 8.062l1.043 1.043-.707.707-1.043-1.043.707-.707zm2.122-2.122l1.043 1.043-.708.707-1.043-1.043.708-.707zm2.122-2.121l2.545 2.545-.707.707-2.546-2.545.708-.707z" fill="currentColor" fill-rule="evenodd"></path>
  </symbol>
</svg>